<?xml version="1.0" encoding="UTF-8" standalone="no"?>
<!-- Created with Inkscape (http://www.inkscape.org/) -->

<svg
   xmlns:dc="http://purl.org/dc/elements/1.1/"
   xmlns:cc="http://creativecommons.org/ns#"
   xmlns:rdf="http://www.w3.org/1999/02/22-rdf-syntax-ns#"
   xmlns:svg="http://www.w3.org/2000/svg"
   xmlns="http://www.w3.org/2000/svg"
   xmlns:sodipodi="http://sodipodi.sourceforge.net/DTD/sodipodi-0.dtd"
   xmlns:inkscape="http://www.inkscape.org/namespaces/inkscape"
   width="101.67061mm"
   height="120.44424mm"
   viewBox="0 0 360.25019 426.77092"
   id="svg4924"
   version="1.1"
   inkscape:version="0.91 r13725"
   sodipodi:docname="aliemu-u.svg">
  <defs
     id="defs4926" />
  <sodipodi:namedview
     id="base"
     pagecolor="#ffffff"
     bordercolor="#666666"
     borderopacity="1.0"
     inkscape:pageopacity="0.0"
     inkscape:pageshadow="2"
     inkscape:zoom="1.979899"
     inkscape:cx="161.84991"
     inkscape:cy="234.72794"
     inkscape:document-units="px"
     inkscape:current-layer="layer1"
     showgrid="false"
     fit-margin-top="0"
     fit-margin-left="0"
     fit-margin-right="0"
     fit-margin-bottom="0"
     inkscape:window-width="3840"
     inkscape:window-height="2067"
     inkscape:window-x="2160"
     inkscape:window-y="93"
     inkscape:window-maximized="0" />
  <metadata
     id="metadata4929">
    <rdf:RDF>
      <cc:Work
         rdf:about="">
        <dc:format>image/svg+xml</dc:format>
        <dc:type
           rdf:resource="http://purl.org/dc/dcmitype/StillImage" />
        <dc:title></dc:title>
      </cc:Work>
    </rdf:RDF>
  </metadata>
  <g
     inkscape:label="Layer 1"
     inkscape:groupmode="layer"
     id="layer1"
     transform="translate(-3.5319816,-2.7006734)">
    <path
       inkscape:connector-curvature="0"
       id="path4913"
       d="m 3.5323746,2.7008268 0,256.0048332 c 0,24.43006 3.195426,46.18847 9.2341904,65.56106 4.216598,-0.0668 8.356919,-0.17664 12.805097,-0.11517 18.495016,0.25557 38.886413,1.71066 60.415948,5.14507 6.1924,0.98793 12.50176,2.21335 18.87158,3.55161 a 31.868953,31.5683 0 0 1 28.68177,-17.9117 31.868953,31.5683 0 0 1 1.43981,0.0766 c -0.13271,-0.15688 -0.29096,-0.28279 -0.42267,-0.44153 -11.13489,-13.43806 -16.70223,-35.0364 -16.70223,-64.79313 l 0,-247.0777966 -114.3238884,0 z m 246.5018054,0 0,132.7923132 c 16.49307,14.75923 31.21214,30.42901 44.59688,46.30548 a 31.868953,31.5683 0 0 1 13.381,-2.95648 31.868953,31.5683 0 0 1 24.40059,11.3268 c 10.43278,-4.26118 20.90124,-7.94695 31.36951,-11.00044 l 0,-176.4676732 -113.74798,0 z m 0,153.0461732 0,79.86352 c 8.94599,-6.15885 17.97485,-11.99238 27.1076,-17.45096 a 31.868953,31.5683 0 0 1 -0.99837,-7.73676 31.868953,31.5683 0 0 1 6.66175,-19.25557 C 272.59531,178.89577 261.70742,166.94582 250.03418,155.747 Z m 113.74798,41.90913 c -8.04829,2.5068 -16.11916,5.41159 -24.20863,8.69668 a 31.868953,31.5683 0 0 1 0.30668,4.06999 31.868953,31.5683 0 0 1 -8.08239,20.96416 c 11.97501,18.11628 22.10603,35.66709 30.44801,51.56573 0.90037,-8.63363 1.53583,-17.49251 1.53583,-26.83875 l 0,-58.45781 z m -1.53584,85.29656 -0.23,1.40146 c 0.0196,-0.003 0.0196,-0.0167 0.0393,-0.0197 0.0491,-0.46866 0.14253,-0.91167 0.19167,-1.38225 z m -76.02399,-49.54995 c -12.27116,7.38841 -24.42752,15.46066 -36.38012,24.20865 -0.91413,25.96718 -6.09833,45.0965 -15.64627,57.24832 -10.36692,13.24668 -27.1652,19.86989 -50.39473,19.86989 -6.57721,0 -12.53803,-0.79588 -18.14203,-2.03497 -0.79225,0.84463 -1.61202,1.66651 -2.39974,2.51492 a 31.868953,31.5683 0 0 1 2.15017,11.30761 31.868953,31.5683 0 0 1 -0.346,4.37712 c 12.6725,4.99536 25.41547,10.79032 38.10793,17.62375 a 31.868953,31.5683 0 0 1 21.80898,-8.60069 31.868953,31.5683 0 0 1 27.1075,15.0128 c 24.72477,-7.04113 52.55375,-12.02124 84.0871,-14.05291 9.97769,-15.1273 17.23864,-32.40859 21.78963,-51.8345 -10.09947,-20.88551 -23.27945,-44.73844 -39.14463,-68.95909 a 31.868953,31.5683 0 0 1 -10.80846,1.9006 31.868953,31.5683 0 0 1 -21.78972,-8.5815 z m 71.74281,75.63999 c 0.1111,-0.47446 0.18087,-0.98185 0.28801,-1.45905 -0.0197,-0.052 -4e-4,-0.10219 -0.0197,-0.15363 l -0.26932,1.61263 z M 25.514062,341.81365 c -2.160493,-0.0325 -4.020305,0.0953 -6.124182,0.0963 7.46412,16.68716 17.429713,31.27419 30.217608,43.50258 9.60977,9.13222 20.65777,16.66779 32.82848,22.96076 8.771228,-13.41437 18.187752,-26.71268 28.317002,-39.79738 a 31.868953,31.5683 0 0 1 -8.81182,-18.27646 c -6.31851,-1.33095 -12.58669,-2.55119 -18.737214,-3.53242 -20.586114,-3.28448 -40.054237,-4.69174 -57.689874,-4.95307 z m 132.331558,25.09174 a 31.868953,31.5683 0 0 1 -24.30466,11.17321 31.868953,31.5683 0 0 1 -6.29688,-0.6335 c -9.92579,12.67533 -19.21679,25.53044 -27.83714,38.47273 15.02909,5.68288 31.8195,9.40518 50.0683,11.51876 12.74896,-10.55054 27.41948,-20.55449 44.34731,-29.46886 a 31.868953,31.5683 0 0 1 -0.71068,-6.48892 31.868953,31.5683 0 0 1 1.05588,-7.90955 c -12.10151,-6.46729 -24.23566,-11.96099 -36.32252,-16.66384 z m 163.14423,13.01622 c -23.70802,2.41332 -45.00223,6.5872 -64.15955,12.05632 a 31.868953,31.5683 0 0 1 -2.03497,10.55887 c 4.79564,3.80395 9.52808,7.85813 14.24489,12.01794 18.42573,-7.38294 34.46311,-17.36635 47.80292,-30.29439 1.44344,-1.39915 2.77119,-2.88606 4.14671,-4.33874 z M 202.2121,413.53724 c -9.41987,4.9335 -18.05112,10.19572 -26.03247,15.70393 1.99723,0.0383 3.86225,0.23041 5.89378,0.23041 25.11803,0 47.55119,-2.93683 67.61527,-8.44711 -1.79936,-1.49757 -3.58457,-3.0294 -5.39465,-4.47312 a 31.868953,31.5683 0 0 1 -19.31311,6.48891 31.868953,31.5683 0 0 1 -22.76882,-9.503 z"
       style="font-style:normal;font-variant:normal;font-weight:800;font-stretch:normal;font-size:60px;line-height:125%;font-family:'Open Sans';-inkscape-font-specification:'Open Sans Ultra-Bold';letter-spacing:0px;word-spacing:0px;display:inline;fill:#00b092;fill-opacity:1;stroke:none;stroke-width:1px;stroke-linecap:butt;stroke-linejoin:miter;stroke-opacity:1" />
  </g>
</svg>
