<?xml version="1.0" encoding="UTF-8" standalone="no"?>
<!-- Created with Inkscape (http://www.inkscape.org/) -->

<svg
   xmlns:dc="http://purl.org/dc/elements/1.1/"
   xmlns:cc="http://creativecommons.org/ns#"
   xmlns:rdf="http://www.w3.org/1999/02/22-rdf-syntax-ns#"
   xmlns:svg="http://www.w3.org/2000/svg"
   xmlns="http://www.w3.org/2000/svg"
   xmlns:sodipodi="http://sodipodi.sourceforge.net/DTD/sodipodi-0.dtd"
   xmlns:inkscape="http://www.inkscape.org/namespaces/inkscape"
   width="395.07553mm"
   height="81.898712mm"
   viewBox="0 0 1399.8739 290.19229"
   id="svg2"
   version="1.1"
   inkscape:version="0.91 r13725"
   sodipodi:docname="aliemu-horizontal.svg">
  <defs
     id="defs4" />
  <sodipodi:namedview
     id="base"
     pagecolor="#ffffff"
     bordercolor="#666666"
     borderopacity="1.0"
     inkscape:pageopacity="0.0"
     inkscape:pageshadow="2"
     inkscape:zoom="1"
     inkscape:cx="192.40538"
     inkscape:cy="236.59797"
     inkscape:document-units="px"
     inkscape:current-layer="layer1"
     showgrid="false"
     inkscape:window-width="3840"
     inkscape:window-height="2067"
     inkscape:window-x="2160"
     inkscape:window-y="93"
     inkscape:window-maximized="0"
     fit-margin-top="0"
     fit-margin-left="0"
     fit-margin-right="0"
     fit-margin-bottom="0" />
  <metadata
     id="metadata7">
    <rdf:RDF>
      <cc:Work
         rdf:about="">
        <dc:format>image/svg+xml</dc:format>
        <dc:type
           rdf:resource="http://purl.org/dc/dcmitype/StillImage" />
        <dc:title></dc:title>
      </cc:Work>
    </rdf:RDF>
  </metadata>
  <g
     inkscape:label="Layer 1"
     inkscape:groupmode="layer"
     id="layer1"
     transform="translate(-4.5519984,-1003.2054)"
     style="display:inline">
    <g
       id="g4772"
       transform="matrix(6.3905571,0,0,6.3905571,-24.537641,-5407.836)">
      <g
         id="text4136"
         style="font-style:normal;font-weight:normal;font-size:40px;line-height:125%;font-family:sans-serif;letter-spacing:0px;word-spacing:0px;fill:#000000;fill-opacity:1;stroke:none;stroke-width:1px;stroke-linecap:butt;stroke-linejoin:miter;stroke-opacity:1"
         mask="none">
        <path
           id="path4760"
           style="font-style:normal;font-variant:normal;font-weight:600;font-stretch:normal;font-size:60px;font-family:'Open Sans';-inkscape-font-specification:'Open Sans Semi-Bold';fill:#444243;fill-opacity:1"
           d="m 36.77853,1048.0297 -4.277344,-11.8946 -16.376953,0 -4.189453,11.8946 -7.3828124,0 16.0253904,-43.0078 7.617188,0 16.02539,43.0078 -7.441406,0 z M 30.655483,1030.1 26.641811,1018.4398 q -0.439453,-1.1719 -1.230468,-3.6914 -0.761719,-2.5195 -1.054688,-3.6914 -0.791016,3.6035 -2.314453,7.8809 l -3.867188,11.1621 12.480469,0 z"
           inkscape:connector-curvature="0" />
        <path
           id="path4762"
           style="font-style:normal;font-variant:normal;font-weight:600;font-stretch:normal;font-size:60px;font-family:'Open Sans';-inkscape-font-specification:'Open Sans Semi-Bold';fill:#444243;fill-opacity:1"
           d="m 49.932827,1048.0297 0,-42.8321 7.001953,0 0,36.8262 18.134766,0 0,6.0059 -25.136719,0 z"
           inkscape:connector-curvature="0" />
        <path
           id="path4764"
           style="font-style:normal;font-variant:normal;font-weight:600;font-stretch:normal;font-size:60px;font-family:'Open Sans';-inkscape-font-specification:'Open Sans Semi-Bold';fill:#444243;fill-opacity:1"
           d="m 88.663296,1048.0297 -6.884766,0 0,-32.4024 6.884766,0 0,32.4024 z m -7.294922,-40.9864 q 0,-1.8457 0.996094,-2.8418 1.02539,-0.9961 2.90039,-0.9961 1.816406,0 2.8125,0.9961 1.025391,0.9961 1.025391,2.8418 0,1.7578 -1.025391,2.7832 -0.996094,0.9961 -2.8125,0.9961 -1.875,0 -2.90039,-0.9961 -0.996094,-1.0254 -0.996094,-2.7832 z"
           inkscape:connector-curvature="0" />
        <path
           id="path4766"
           style="font-style:normal;font-variant:normal;font-weight:600;font-stretch:normal;font-size:60px;font-family:'Open Sans';-inkscape-font-specification:'Open Sans Semi-Bold';fill:#444243;fill-opacity:1"
           d="m 123.49728,1048.0297 -24.228516,0 0,-42.8321 24.228516,0 0,5.918 -17.22656,0 0,11.6602 16.14258,0 0,5.8593 -16.14258,0 0,13.4473 17.22656,0 0,5.9473 z"
           inkscape:connector-curvature="0" />
        <path
           id="path4768"
           style="font-style:normal;font-variant:normal;font-weight:600;font-stretch:normal;font-size:60px;font-family:'Open Sans';-inkscape-font-specification:'Open Sans Semi-Bold';fill:#444243;fill-opacity:1"
           d="m 151.30001,1048.0297 -12.42187,-35.7715 -0.23438,0 q 0.49805,7.9687 0.49805,14.9414 l 0,20.8301 -6.35742,0 0,-42.8321 9.87305,0 11.89453,34.0723 0.17578,0 12.24609,-34.0723 9.90235,0 0,42.8321 -6.73828,0 0,-21.1817 q 0,-3.1933 0.14648,-8.3203 0.17578,-5.1269 0.29297,-6.2109 l -0.23438,0 -12.86132,35.7129 -6.18165,0 z"
           inkscape:connector-curvature="0" />
        <path
           style="font-style:normal;font-variant:normal;font-weight:800;font-stretch:normal;font-size:60px;font-family:'Open Sans';-inkscape-font-specification:'Open Sans Ultra-Bold';fill:#00b092;fill-opacity:1"
           d="m 186.95508,5.984375 0,26.044922 c 0,2.485417 0.32509,4.699031 0.93945,6.669922 0.42898,-0.0068 0.8502,-0.01797 1.30274,-0.01172 1.88161,0.026 3.95615,0.174036 6.14648,0.523438 0.62999,0.100509 1.27188,0.225178 1.91992,0.361328 a 3.2422214,3.2116342 0 0 1 2.91797,-1.822266 3.2422214,3.2116342 0 0 1 0.14648,0.0078 c -0.0135,-0.01596 -0.0296,-0.02877 -0.043,-0.04492 -1.13282,-1.367134 -1.69922,-3.564464 -1.69922,-6.591797 l 0,-25.136719 -11.63086,0 z m 25.07812,0 0,13.509766 c 1.67794,1.501546 3.1754,3.095727 4.53711,4.710937 a 3.2422214,3.2116342 0 0 1 1.36133,-0.300781 3.2422214,3.2116342 0 0 1 2.48242,1.152344 c 1.06139,-0.433516 2.12641,-0.808491 3.19141,-1.119141 l 0,-17.953125 -11.57227,0 z m 0,15.570313 0,8.125 c 0.91013,-0.626577 1.82869,-1.220058 2.75782,-1.775391 a 3.2422214,3.2116342 0 0 1 -0.10157,-0.787109 3.2422214,3.2116342 0 0 1 0.67774,-1.958985 c -1.03871,-1.24845 -2.1464,-2.46419 -3.33399,-3.603515 z m 11.57227,4.263671 c -0.8188,0.25503 -1.6399,0.550553 -2.46289,0.884766 a 3.2422214,3.2116342 0 0 1 0.0312,0.414063 3.2422214,3.2116342 0 0 1 -0.82227,2.132812 c 1.21829,1.843078 2.24898,3.628628 3.09766,5.246094 0.0916,-0.878353 0.15625,-1.779619 0.15625,-2.730469 l 0,-5.947266 z m -0.15625,8.677735 -0.0234,0.142578 c 0.002,-2.6e-4 0.002,-0.0017 0.004,-0.002 0.005,-0.04768 0.0145,-0.09275 0.0195,-0.140625 z m -7.73438,-5.041016 c -1.24842,0.751667 -2.48516,1.572905 -3.70117,2.462891 -0.093,2.641799 -0.62042,4.587941 -1.59179,5.824219 -1.05469,1.347664 -2.76368,2.021484 -5.12696,2.021484 -0.66914,0 -1.27557,-0.08097 -1.8457,-0.207031 -0.0806,0.08593 -0.164,0.169545 -0.24414,0.255859 a 3.2422214,3.2116342 0 0 1 0.21875,1.150391 3.2422214,3.2116342 0 0 1 -0.0352,0.445312 c 1.28925,0.508208 2.58567,1.097764 3.87695,1.792969 a 3.2422214,3.2116342 0 0 1 2.21876,-0.875 3.2422214,3.2116342 0 0 1 2.75781,1.527344 c 2.5154,-0.716337 5.34661,-1.222994 8.55469,-1.429688 1.01509,-1.538992 1.75379,-3.297122 2.21679,-5.273437 -1.02748,-2.12481 -2.36836,-4.551513 -3.98242,-7.015625 a 3.2422214,3.2116342 0 0 1 -1.09961,0.193359 3.2422214,3.2116342 0 0 1 -2.2168,-0.873047 z m 7.29883,7.695313 c 0.0113,-0.04827 0.0184,-0.09989 0.0293,-0.148438 -0.002,-0.0053 -4e-5,-0.0104 -0.002,-0.01563 l -0.0274,0.164063 z m -33.82226,3.333984 c -0.2198,-0.0033 -0.40901,0.0097 -0.62305,0.0098 0.75937,1.697686 1.77323,3.181713 3.07422,4.425781 0.97766,0.929076 2.10164,1.695715 3.33984,2.335937 0.89235,-1.364725 1.85035,-2.717643 2.88086,-4.048828 A 3.2422214,3.2116342 0 0 1 196.9668,41.34769 c -0.64282,-0.135406 -1.28052,-0.259548 -1.90625,-0.359375 -2.09435,-0.33415 -4.07496,-0.477319 -5.86914,-0.503906 z m 13.46289,2.552734 a 3.2422214,3.2116342 0 0 1 -2.47266,1.136719 3.2422214,3.2116342 0 0 1 -0.64062,-0.06445 c -1.00981,1.289537 -1.95504,2.597365 -2.83204,3.914063 1.529,0.578155 3.23719,0.956846 5.09375,1.171874 1.29703,-1.07337 2.78955,-2.091133 4.51172,-2.998046 a 3.2422214,3.2116342 0 0 1 -0.0723,-0.660157 3.2422214,3.2116342 0 0 1 0.10742,-0.804687 c -1.23116,-0.657956 -2.46564,-1.216864 -3.69531,-1.695313 z m 16.59765,1.324219 c -2.41196,0.245522 -4.57835,0.670156 -6.52734,1.226563 a 3.2422214,3.2116342 0 0 1 -0.20703,1.074218 c 0.48789,0.386998 0.96935,0.799454 1.44922,1.222657 1.87456,-0.751111 3.50614,-1.766784 4.86328,-3.082032 0.14685,-0.142343 0.28193,-0.293615 0.42187,-0.441406 z m -12.08398,3.419922 c -0.95834,0.501914 -1.83645,1.037273 -2.64844,1.597656 0.20319,0.0039 0.39293,0.02344 0.59961,0.02344 2.55541,0 4.83767,-0.298782 6.87891,-0.859375 -0.18306,-0.152357 -0.36468,-0.3082 -0.54883,-0.455078 a 3.2422214,3.2116342 0 0 1 -1.96484,0.660156 3.2422214,3.2116342 0 0 1 -2.31641,-0.966797 z"
           transform="translate(0,999.2126)"
           id="path4770"
           inkscape:connector-curvature="0" />
      </g>
      <g
         id="g4645" />
    </g>
  </g>
</svg>
