<?xml version="1.0" encoding="UTF-8" standalone="no"?>
<!-- Created with Inkscape (http://www.inkscape.org/) -->

<svg
   xmlns:dc="http://purl.org/dc/elements/1.1/"
   xmlns:cc="http://creativecommons.org/ns#"
   xmlns:rdf="http://www.w3.org/1999/02/22-rdf-syntax-ns#"
   xmlns:svg="http://www.w3.org/2000/svg"
   xmlns="http://www.w3.org/2000/svg"
   xmlns:sodipodi="http://sodipodi.sourceforge.net/DTD/sodipodi-0.dtd"
   xmlns:inkscape="http://www.inkscape.org/namespaces/inkscape"
   width="185.41513mm"
   height="72.579857mm"
   viewBox="0 0 656.98275 257.17272"
   id="svg8870"
   version="1.1"
   inkscape:version="0.91 r13725"
   sodipodi:docname="cord-logo-small.svg">
  <defs
     id="defs8872" />
  <sodipodi:namedview
     id="base"
     pagecolor="#ffffff"
     bordercolor="#666666"
     borderopacity="1.0"
     inkscape:pageopacity="0.0"
     inkscape:pageshadow="2"
     inkscape:zoom="1.979899"
     inkscape:cx="710.64184"
     inkscape:cy="69.064955"
     inkscape:document-units="px"
     inkscape:current-layer="layer1"
     showgrid="false"
     fit-margin-top="0"
     fit-margin-left="0"
     fit-margin-right="0"
     fit-margin-bottom="0"
     inkscape:window-width="3840"
     inkscape:window-height="2067"
     inkscape:window-x="2160"
     inkscape:window-y="93"
     inkscape:window-maximized="0" />
  <metadata
     id="metadata8875">
    <rdf:RDF>
      <cc:Work
         rdf:about="">
        <dc:format>image/svg+xml</dc:format>
        <dc:type
           rdf:resource="http://purl.org/dc/dcmitype/StillImage" />
        <dc:title></dc:title>
      </cc:Work>
    </rdf:RDF>
  </metadata>
  <g
     inkscape:groupmode="layer"
     id="layer6"
     inkscape:label="apple color"
     transform="translate(217.46366,-243.77585)">
    <g
       inkscape:groupmode="layer"
       id="layer10"
       inkscape:label="bottom"
       style="display:inline">
      <path
         style="display:inline;fill:#ed5e53;fill-opacity:1"
         d="m 59.939453,315.90039 c -2.86907,0.0607 -6.344439,0.47451 -12.917969,1.29102 -5.18953,0.6446 -13.737608,2.72454 -19.048828,4.63476 -2.34422,0.84312 -8.64501,3.37983 -10.03125,4.03906 -0.93364,0.44398 -1.464385,0.6112 -1.734375,0.50586 0.35895,0.42363 0.968586,1.30137 4.103516,-0.0762 1.83932,-0.80824 4.258327,-1.02248 6.466797,-1.78515 32.929338,-2.95005 59.869109,-5.05774 83.554686,11.99414 0.41499,0 4.66777,4.34221 6.90625,7.05078 1.22724,1.485 2.40978,2.90095 2.62695,3.14843 1.16016,1.32223 5.42953,8.40231 5.92579,9.82618 0.18687,0.53625 0.52473,0.97461 0.75195,0.97461 0.40104,0 0.41891,-0.42153 -0.26563,-3.16602 0.14382,0.74034 0.0744,0.83542 -0.21484,0.46484 -0.32196,-0.4125 -0.88391,-1.35709 -1.24805,-2.09961 -0.36414,-0.7425 -1.47825,-2.54053 -2.47656,-3.99609 -0.99831,-1.45556 -2.01812,-2.95275 -2.26562,-3.32617 -0.2475,-0.37342 -1.39579,-1.73277 -2.55079,-3.02148 -7.06431,-7.88216 -14.90957,-13.64609 -25.648433,-18.8418 -3.10872,-1.50407 -3.927363,-1.82884 -8.851563,-3.52149 -4.48419,-1.54138 -8.789158,-2.56379 -13.798828,-3.27539 -4.15022,-0.58952 -6.414143,-0.88103 -9.283203,-0.82031 z m -98.03125,12.12109 c -0.35866,0.003 -11.699372,2.42671 -13.039062,3.57032 -10.358241,7.52984 -16.360325,14.22737 -27.472657,26.98828 l -0.08789,37.11719 17.58789,39.35937 0.623047,-1.51562 c 0.392159,0.73737 0.718861,1.3704 1.207031,2.26367 0.82413,1.50802 1.358721,2.4805 1.806641,3.28515 -0.0763,-0.14706 -0.136535,-0.25708 -0.228515,-0.43554 l -0.773438,-1.5 0.845703,1.03125 c 0.46496,0.56793 1.047422,1.32926 1.294922,1.6914 1.79148,2.62127 3.493529,5.00085 5.992187,8.37696 1.5875,2.145 3.607755,4.91289 4.490235,6.15039 1.95687,2.74408 1.778639,2.53776 2.011719,2.30468 0.3332,-0.3332 -0.963652,-3.23955 -2.701172,-6.05468 -9.12055,-14.77712 -14.025717,-23.91961 -13.248047,-24.69532 0.11298,-0.11269 0.541302,0.20032 0.951172,0.69532 1.66368,2.00925 4.534427,5.426 5.804687,6.91015 0.7425,0.86753 2.294219,2.95807 3.449219,4.64649 2.67162,3.90546 6.736698,9.15974 9.111328,11.77734 1.01481,1.11865 2.114653,2.60906 2.445313,3.3125 0.35489,0.755 2.444479,3.17871 5.099609,5.91602 3.32,3.42276 4.577141,4.92471 4.800781,5.73632 0.23621,0.85724 1.038718,1.75062 3.642578,4.05079 6.00991,5.30897 7.401879,6.87249 8.542969,9.60351 2.21036,9.48774 59.463094,13.74383 85.830078,1.23437 4.5965,-2.20306 11.356135,-6.43313 14.359375,-8.98633 6.20013,-5.27104 8.540886,-7.4331 14.384766,-13.28125 3.638908,-3.64155 7.724318,-7.95013 9.080078,-9.57422 2.55264,-3.0578 6.65429,-9.085 9.9707,-14.65625 1.05123,-1.76596 1.94628,-3.17677 1.98828,-3.13477 0.0186,0.0186 0.005,0.12098 -0.0234,0.26368 0.52657,-2.08316 -0.65295,-1.30161 -4.09821,4.4481 -1.62837,2.71753 -5.90548,8.21091 -7.26061,9.91768 C -6.8346247,515.70595 -81.865033,442.67818 -38.091767,328.02147 Z m 32.8125001,3.92383 c -4.1097534,-0.38064 -29.5350681,16.93241 -27.2656251,29.83594 0.347508,1.97585 3.37547,3.09614 5.351563,2.75 13.11225,-2.29675 31.4769171,-25.73317 27.20312463,-29.23633 0,0 -2.19083303,-1.66087 -4.96093753,-3.25586 -0.086566,-0.0498 -0.1955523,-0.0815 -0.328125,-0.0937 z M 90.714844,476.48828 c -2.572512,1.62492 -5.482584,3.44692 -9.964844,5.60352 -7.53231,3.62412 -9.688381,4.19948 -8.681641,2.31836 0.19362,-0.36184 0.275341,-0.73433 0.181641,-0.82813 -0.0938,-0.0938 -1.093636,0.255 -2.222656,0.77539 -1.12901,0.5204 -2.189682,0.94531 -2.357422,0.94531 -0.16774,0 -0.734373,0.21544 -1.257813,0.47657 -10.070873,4.88568 -34.595916,0.99785 -9.675781,6.72461 -0.38847,-0.2613 -0.295192,-0.27791 4.236328,-1.44727 10.403133,-2.66836 19.129634,-5.61977 26.476563,-9.60356 1.484265,-0.11845 5.748588,-5.27873 3.265625,-4.9648 z"
         id="path9445-7"
         inkscape:connector-curvature="0"
         sodipodi:nodetypes="cssccsccsccscssssssssscsccccsccccssssscsssssssscccsssscssccscccsccccsssssccccc" />
      <rect
         style="fill:#ed5e53;fill-opacity:1;stroke:none;stroke-width:1.11572969;stroke-miterlimit:4;stroke-dasharray:none;stroke-opacity:1"
         id="rect10108"
         width="25.419977"
         height="42.205688"
         x="47.557865"
         y="358.75934" />
      <rect
         y="307.76755"
         x="188.14665"
         height="7.6669602"
         width="48.488564"
         id="rect10112"
         style="fill:#ed5e53;fill-opacity:1;stroke:none;stroke-width:1.11572969;stroke-miterlimit:4;stroke-dasharray:none;stroke-opacity:1"
         transform="matrix(0.96633957,0.25726996,-0.40235972,0.91548165,0,0)" />
    </g>
    <g
       transform="translate(-220.56369,241.93468)"
       style="display:inline"
       id="g10018" />
    <g
       inkscape:groupmode="layer"
       id="layer9"
       inkscape:label="middle"
       style="display:inline">
      <path
         style="display:inline;fill:#ec3844"
         d="m 57.787109,316.82812 c -2.51307,-0.01 -4.936251,0.10927 -7.175781,0.36915 -6.26669,0.72719 -8.603332,1.09704 -9.601562,1.51953 -0.495,0.20951 -1.910938,0.59324 -3.148438,0.85351 -8.73301,1.35107 -16.356595,4.47853 -23.015625,8.03125 25.110137,52.03801 61.267534,-8.78079 103.066457,58.92965 -0.15216,0.33 -0.33361,1.54422 -0.40234,2.69922 -13.38796,93.86136 -135.370877,74.81915 -168.648445,34.65039 -11.584332,-25.69423 0.696013,-72.53894 11.752788,-93.08231 0.57152,-0.34057 -2.79566,-0.5173 -3.387551,-0.5173 -0.616998,0 -3.30757,1.93371 -7.21289,5.18359 -2.866096,2.38508 -4.39368,3.89403 -4.78711,4.73047 0.612863,-2.25931 1.140796,-3.66931 1.160157,-3.89258 0.328678,-3.79035 -13.156733,18.21661 -12.9375,17.16407 0.722186,-3.46719 -3.24787,7.0353 -4.72461,12.13672 -0.35823,1.2375 -0.865653,3.39632 -1.126953,4.79882 -0.2613,1.4025 -0.611757,3.1579 -0.779297,3.90039 -0.16753,0.7425 -0.349403,2.16041 -0.402343,3.15039 -0.0529,0.99003 -0.261494,3.01501 -0.464844,4.5 -0.62678,4.57709 0.116044,13.44697 1.646484,19.6504 0.9572,3.87985 1.149727,4.51648 1.404297,4.67382 0.14237,0.088 0.260109,0.52474 0.261719,0.96875 0.001,0.44401 0.33911,1.52948 0.75,2.41211 0.41089,0.88264 0.746094,1.76613 0.746094,1.96485 0,0.19872 0.594178,1.42578 1.011718,2.26367 0.68711,1.37884 1.251478,3.44464 1.992188,6.33594 0.15071,0.58831 0.481875,1.465 0.734375,1.94922 0.25249,0.48419 0.459927,1.09918 0.460937,1.36523 10e-4,0.34344 0.514426,1.72115 1.384766,3.76367 -0.0524,-0.33537 -0.03755,-0.58322 0.06055,-0.74023 0.46906,-0.75104 0.442306,-2.41082 -0.07617,-4.62891 -0.97942,-4.19031 -1.165211,-4.82992 -1.556641,-5.39258 -0.22643,-0.32546 -0.410156,-1.01653 -0.410156,-1.53711 0,-0.52059 -0.183673,-1.09881 -0.408203,-1.28515 -0.22454,-0.18635 -0.484272,-1.06714 -0.576172,-1.95703 -0.0918,-0.8899 -0.393422,-2.40783 -0.669922,-3.37305 -0.27651,-0.96521 -0.685966,-2.43086 -0.910156,-3.25586 -0.22421,-0.825 -0.609712,-2.24094 -0.857422,-3.14844 -0.24771,-0.9075 -0.535542,-2.46117 -0.638672,-3.45117 -0.10313,-0.99 -0.393561,-2.87922 -0.644531,-4.19922 -0.25097,-1.32 -0.567678,-3.41289 -0.705078,-4.65039 -0.1374,-1.2375 -0.397635,-3.53211 -0.578125,-5.09961 -0.18049,-1.5675 -0.33575,-5.34789 -0.34375,-8.40039 -0.02,-7.41818 0.824394,-11.66537 3.365234,-16.94922 l 0.576172,-1.20117 -0.150391,1.80078 c -0.412678,4.92493 -0.520398,17.09869 -0.1875,21.2168 0.832081,10.29297 4.637452,24.34787 8.794922,32.48242 0.50597,0.99 1.289395,2.54367 1.740235,3.45117 0.99408,2.00098 2.801832,4.4354 4.101562,5.52344 0.52743,0.44152 1.046457,1.08015 1.154297,1.41992 0.19785,0.62335 1.167203,2.15305 1.876953,2.96484 0.36093,0.41285 1.803357,2.51228 4.998047,7.26954 0.74895,1.11527 1.642668,2.26159 1.986328,2.54882 0.34366,0.28722 1.109172,1.24651 1.701172,2.13086 1.37361,2.05194 12.471763,13.23717 15.132813,15.25196 22.3062872,17.85817 49.593703,34.57468 77.791015,30.69922 11.778226,-1.9436 23.155696,-7.19507 32.248047,-14.41016 0.30537,-0.2475 1.448356,-1.12422 2.541016,-1.94922 1.09266,-0.825 2.643262,-2.10711 3.445312,-2.84961 0.80205,-0.7425 2.580352,-2.36211 3.951172,-3.59961 4.6716,-4.21731 12.401562,-12.31869 15.603522,-16.35156 18.9561,-15.62793 26.03956,-62.19152 16.7793,-89.02344 -0.49626,-1.42387 -4.76563,-8.50395 -5.92579,-9.82617 -0.21717,-0.2475 -1.39777,-1.66539 -2.625,-3.15039 -2.23848,-2.70858 -6.49322,-7.04883 -6.9082,-7.04883 -0.12189,0 -0.86029,-0.57414 -1.64062,-1.27539 -0.78036,-0.70125 -2.01523,-1.67647 -2.74414,-2.16797 -0.72891,-0.49149 -1.87416,-1.33289 -2.54688,-1.86914 -0.67272,-0.53625 -1.70994,-1.17923 -2.30469,-1.42773 -0.59475,-0.2485 -1.160661,-0.57831 -1.255861,-0.73242 -0.19176,-0.31025 -2.512498,-1.63695 -6.617188,-3.78321 -2.42499,-1.26797 -9.20781,-4.01412 -12.75,-5.16211 -6.50068,-2.10682 -14.833837,-3.30609 -22.373047,-3.33594 z m -101.90625,14.48438 c 0.0512,-4e-4 0.08008,0.0199 0.08008,0.0625 0,0.0814 -0.390088,0.71476 -0.867188,1.4082 -0.4771,0.69345 -1.066114,1.73609 -1.308594,2.31641 -0.24247,0.58033 -0.63602,1.25318 -0.875,1.49414 -0.48255,0.48652 -0.674658,0.8294 -3.074218,5.49219 -0.921081,1.78984 -1.675782,3.43045 -1.675782,3.64648 0,0.21603 -0.414985,1.31618 -0.921875,2.44531 -1.15698,2.57728 -1.960381,4.95494 -2.550781,7.53907 -0.2531,1.10784 -0.781898,3.36562 -1.173828,5.01562 -0.41667,1.75413 -0.908657,5.36635 -1.185547,8.69922 -0.26046,3.135 -0.512194,6.1725 -0.558594,6.75 l -0.08398,1.05078 -0.240235,-1.09375 c -0.587108,-2.67525 0.173778,-14.20232 1.304688,-19.75781 0.05816,-0.28572 0.125724,-0.81917 0.191406,-1.34375 0.184261,-1.09185 0.332743,-2.00507 0.355469,-2.49609 0.05134,-1.10926 0.134531,-2.17109 0.238281,-3.18946 0.104386,-0.77776 0.215818,-1.55706 0.324219,-2.11914 1.21216,-6.28531 1.653539,-7.44863 3.505859,-9.22461 0.81865,-0.78492 1.670829,-1.42578 1.892578,-1.42578 0.221742,0 0.402344,-0.18749 0.402344,-0.41601 0,-0.22852 0.305988,-0.61647 0.679688,-0.86133 0.3737,-0.24486 1.419169,-1.07703 2.324218,-1.84961 1.33969,-1.14361 2.858142,-2.13976 3.216792,-2.14258 z m 108.070313,2.25 c 2.28823,0.0389 4.920104,0.39754 7.865234,1.07422 5.09157,1.16985 9.027673,2.30767 10.976563,3.17383 0.70566,0.31363 1.539352,0.57031 1.851562,0.57031 0.31221,0 0.948886,0.19388 1.416016,0.42969 0.4671,0.23581 2.199609,1.06138 3.849609,1.83398 3.4422,1.61182 8.264861,4.42528 9.025391,5.26563 0.28443,0.3143 0.463284,0.55987 0.396484,0.54687 -0.47823,-0.0932 -1.224074,-0.47928 -2.521484,-1.30664 -3.15447,-2.01165 -14.228506,-7.06836 -15.478516,-7.06836 -0.1824,0 -0.75543,-0.18708 -1.27539,-0.41406 -2.45616,-1.07228 -12.964763,-3.1701 -15.945313,-3.18359 -0.99,-0.004 -2.543672,-0.10066 -3.451172,-0.21485 l -1.65039,-0.20898 1.201172,-0.22266 c 1.119059,-0.20748 2.367304,-0.29872 3.740234,-0.27539 z m -70.4257814,3.24414 z m 0,0 c -1.6282582,1.09742 -6.4868106,5.20786 -9.5410156,8.07031 -1.82934,1.71448 -3.526764,3.28346 -3.771484,3.48633 -0.24471,0.20288 -0.653644,0.70664 -0.908203,1.11914 -0.254561,0.4125 -1.307477,1.7609 -2.341797,2.99805 -1.03431,1.23714 -2.280452,2.95956 -2.769532,3.82617 -0.48909,0.8666 -1.08075,1.57422 -1.3125,1.57422 -0.53438,0 -0.526556,-0.11729 0.06641,-1.28906 0.73261,-1.44768 2.152349,-3.29736 4.255859,-5.54102 1.04117,-1.11055 2.107831,-2.42492 2.369141,-2.91992 0.47008,-0.89048 0.841991,-1.27675 4.050781,-4.19922 3.27045,-2.97866 4.925001,-4.33314 6.9882811,-5.72266 1.732984,-3.09502 -0.7015531,-3.10562 -1.9754461,-3.35797 -6.704994,0.70372 -29.191849,19.28802 -19.601562,29.24888 14.001402,4.99026 32.3961465,-20.2984 24.4910676,-27.29325 z m -48.4394526,3.91211 c -0.01552,0.10007 -0.03428,0.19081 -0.07422,0.27344 0.02561,-0.10059 0.04878,-0.17577 0.07422,-0.27344 z m 155.173832,6.0625 c 0.0155,-0.0155 0.13708,0.0751 0.375,0.26172 0.28875,0.22645 0.52539,0.46309 0.52539,0.52539 0,0.24691 -0.24676,0.0876 -0.63868,-0.41211 -0.18657,-0.2379 -0.2772,-0.35951 -0.26171,-0.375 z m -50.64732,8.26139 c -15.745272,11.09655 6.211598,63.4569 24.85937,49.28939 10.258543,-17.57778 -8.378342,-57.66494 -24.85937,-49.28939 z m 1.217628,5.00033 c 0.70959,0.0569 1.628036,0.24432 2.947266,0.57617 3.01047,0.75726 4.638439,1.5382 6.943359,3.33008 4.68737,3.64403 8.933765,9.67817 9.865235,14.02148 0.178229,0.83097 0.266712,1.68061 0.195312,1.88672 -0.0715,0.20611 -0.229249,-0.0653 -0.349609,-0.60156 -0.12036,-0.53625 -0.322379,-0.97461 -0.449219,-0.97461 -0.12683,0 -0.47822,-0.57414 -0.78125,-1.27539 -1.3636,-3.15546 -3.707769,-6.53454 -6.105469,-8.80274 -2.47991,-2.34591 -2.33398,-2.22991 -4.869141,-3.86132 -1.60412,-1.03227 -3.797313,-1.99641 -6.533203,-2.87305 -2.29352,-0.73489 -2.968481,-1.05872 -2.550781,-1.22266 0.47811,-0.18765 0.97791,-0.26005 1.6875,-0.20312 z"
         id="path9443-5"
         inkscape:connector-curvature="0"
         sodipodi:nodetypes="cscccccccsscssssccssccssscscccccsscccsssssccccssssscscscccsssccssscssscssccssccsssssscccscscsssssscscsscsccsscccccsccccscscsssscsccccscscsccccccsssssssscssss" />
    </g>
    <g
       inkscape:groupmode="layer"
       id="layer8"
       inkscape:label="top"
       style="display:inline">
      <path
         sodipodi:nodetypes="csssssssssssssccssssccscsacczsssssssscsscccsssscscscsccsccsssscsssscsssssssssssscscscssssscssssscsssssssscssssssscccsccscscscsssscsssssssccccccscsccccscsccsccscsssscsscsssscccscssscccccssssccsscssssssscccscsssssscccssssssscscscssssccsscssccssscssssscssscsccssscccccsssssssssssscsssccscssssssssssssssccssccssscccssssssssscssccccccscssscccsscsscsssccccssssssssssscsssccccccsccssssssssssccsssccsssssscsscsscccssssssssscssscscscssscccscccccscsscscscsscscscssscsscsssscsssccssssscscsccccssssscssscssscscssssssccsscssssssscssssscssscsscssccscccccsccc"
         inkscape:connector-curvature="0"
         id="path9441"
         d="m 274.95071,258.46632 c -1.0725,-0.13766 -2.895,-0.45747 -4.05,-0.71069 -1.155,-0.25322 -3.315,-0.6723 -4.8,-0.93129 -1.485,-0.25899 -4.2525,-0.74538 -6.15,-1.08086 -2.82868,-0.50012 -5.50305,-0.65366 -14.85,-0.85254 -6.27,-0.13342 -12.345,-0.39383 -13.5,-0.57869 -4.11319,-0.65833 -7.85311,-1.49981 -11.55,-2.59876 -2.0625,-0.61311 -4.6275,-1.34789 -5.7,-1.63284 -5.42249,-1.44072 -11.96569,-3.94983 -15.6756,-6.01107 -7.12916,-3.96101 -11.57148,-7.54325 -17.87694,-13.8541 -14.34574,-14.35801 -26.39966,-33.42838 -34.13308,-54.00158 -3.46687,-9.22288 -5.62911,-17.71102 -6.8015,-26.70001 -0.857,-6.57082 -0.64491,-18.15177 0.42251,-23.07053 0.33664,-1.5513 0.61208,-3.88254 0.61208,-5.18055 0,-3.17154 1.6523,-7.09272 4.60973,-13.00623 5.23938,-8.719164 4.14332,-7.30572 6.67709,-10.638884 1.15571,-1.52625 3.04085,-3.80203 4.18919,-5.05728 1.89384,-2.07014 2.10709,-2.43263 2.29443,-3.9 0.19694,-1.54265 0.31288,-1.71518 2.49838,-3.71772 4.85267,-4.44646 9.88245,-9.35893 10.99784,-10.74136 0.73006,-0.90483 1.32464,-1.38121 1.59462,-1.27762 0.31082,0.11928 0.38101,0.009 0.25248,-0.39567 -0.12654,-0.39871 0.35306,-1.20045 1.65887,-2.77311 1.01029,-1.21673 1.93852,-2.31996 2.06275,-2.4516 0.41927,-0.44431 1.7303,0.44028 2.24159,1.51245 0.34373,0.72081 0.60738,0.999157 1.03566,1.38502 0.54846,0.494123 1.1953,1.055083 1.90185,1.134713 15.13933,-0.615627 41.87662,10.814312 51.60919,11.057177 0.76961,-0.0278 1.16946,-0.83847 1.75717,-1.50001 0.58771,-0.66153 1.57324,-1.09871 3.11573,-2.44157 10.1741,-8.85736 21.62423,-14.03457 34.41956,-15.5629 15.89942,-1.8991 31.82734,1.09203 47.48641,8.91753 9.50601,4.75056 16.66617,11.08036 22.49574,19.88694 5.56374,8.404984 8.43162,16.310264 10.01277,27.600014 1.27587,9.11014 1.38543,10.81301 1.37022,21.29999 -0.015,10.30387 -0.21894,13.83502 -1.35177,23.40001 -1.02279,8.63601 -3.30843,18.9014 -6.08022,27.30765 -1.93491,5.86814 -6.60093,17.01301 -8.36613,19.98262 -0.20934,0.35215 -0.98811,1.678 -1.73061,2.94634 -6.67503,11.40232 -13.98579,20.04891 -24,28.38537 -14.92056,12.4208 -26.97174,17.357 -38.70001,15.85164 z m 10.08243,-8.51548 c 7.32627,-1.78874 13.35552,-4.77323 17.97237,-8.89636 0.99264,-0.88648 3.47979,-2.82679 5.52699,-4.31179 4.57464,-3.31833 6.32364,-4.85698 9.70059,-8.53384 3.53391,-3.84778 7.23612,-9.11218 10.24371,-14.56615 1.36482,-2.475 3.40824,-6.12 4.54095,-8.1 3.67443,-6.42316 7.63296,-16.34227 7.63296,-19.12642 0,-0.43349 0.135,-0.87159 0.3,-0.97357 0.165,-0.10197 0.3,-0.57447 0.3,-1.05 0,-0.47552 0.12396,-0.94121 0.27549,-1.03485 0.55914,-0.34557 3.62451,-11.62496 3.62451,-13.33681 0,-0.36728 0.14094,-0.93111 0.31317,-1.25296 0.58911,-1.10076 2.3862,-13.08953 2.31225,-15.42539 -0.0156,-0.495 0.14079,-3.195 0.34773,-6 0.43776,-5.93437 0.27015,-22.63993 -0.25692,-25.60356 -0.18618,-1.04696 -0.25878,-2.15485 -0.16131,-2.46198 0.30132,-0.94935 -0.43071,-5.32789 -1.66491,-9.9585 -1.23138,-4.61991 -2.99397,-9.22461 -5.07117,-13.248064 -2.28699,-4.42982 -0.60213,-2.64428 2.23935,2.37319 3.10479,5.482374 5.04612,10.888124 6.31797,17.592714 0.62313,3.28488 1.11933,4.07559 0.88743,1.41419 -0.19587,-2.24838 -1.81731,-8.42991 -3.21528,-12.25798 -1.33836,-3.66482 -3.83235,-8.516944 -6.1221,-11.910684 -2.26488,-3.35689 -3.33927,-4.58933 -4.00071,-4.58933 -0.25422,0 -1.50741,-1.03906 -2.78487,-2.30901 -2.19732,-2.18445 -3.08823,-2.68789 -2.36493,-1.33641 0.17835,0.33328 0.3243,0.74985 0.3243,0.92569 0,0.77138 -0.92616,0.15597 -3.15705,-2.09774 -2.77017,-2.79854 -8.26938,-7.32527 -11.60181,-9.55016 -4.92459,-3.28787 -12.50808,-6.78185 -19.44114,-8.95721 -2.4045,-0.75445 -3.74883,-0.95486 -8.60025,-1.28213 -15.71659,-1.06021 -27.89041,1.78883 -40.19494,9.40682 -4.86513,3.0121 -12.70481,9.54447 -12.70481,10.58621 0,0.23474 0.32802,0.57626 0.72894,0.75893 0.61806,0.2816 1.06298,0.16949 2.925,-0.73709 2.24565,-1.09335 6.19905,-2.6079 6.80736,-2.6079 0.18628,0 0.3387,0.2025 0.3387,0.45 0,0.2475 -0.1835,0.45 -0.40777,0.45 -0.42651,0 -3.73352,1.66795 -4.22723,2.13207 -0.15675,0.14736 -0.64726,0.26793 -1.09001,0.26793 -0.55271,0 -0.85419,0.18805 -0.96192,0.6 -0.0928,0.35503 -0.4092,0.6 -0.77487,0.6 l -0.61797,0 0.61952,1.05 c 0.5963,1.01065 1.16025,1.3752 1.16025,0.75 0,-0.165 0.27538,-0.3 0.61195,-0.3 0.33657,0 1.12623,-0.26237 1.75478,-0.58303 1.28105,-0.65354 6.52242,-1.84327 9.0146,-2.0462 1.30157,-0.10598 1.70781,-0.0283 2.00963,0.3845 0.28767,0.39342 0.6155,0.46923 1.36866,0.3165 0.54471,-0.11046 2.07038,-0.32059 3.39038,-0.46695 1.32,-0.14636 3.0075,-0.40652 3.75,-0.57813 1.73324,-0.4006 6.9,-0.42487 6.9,-0.0324 0,0.37843 -1.36723,0.66929 -5.7,1.21261 -2.59768,0.32574 -4.59579,0.80997 -5.78247,1.40137 -0.45786,0.22817 -1.59652,0.55611 -2.53036,0.72874 -0.98135,0.18141 -3.16214,1.06195 -5.16753,2.0865 -6.93363,3.54236 -7.85784,4.18794 -6.8812,4.80659 1.13636,0.71984 7.229,-0.10791 11.05909,-1.5025 1.49638,-0.54486 3.13049,-0.9276 3.96037,-0.9276 0.77705,0 2.14354,-0.19032 3.03663,-0.42294 0.89309,-0.23262 3.97093,-0.58493 6.83963,-0.78291 6.18744,-0.42702 7.21053,-0.63664 7.61663,-1.56056 0.2165,-0.49257 0.50985,-0.65973 1.04983,-0.59823 0.41216,0.0469 3.25469,0.0704 6.31674,0.0521 4.91975,-0.0294 5.7735,0.0392 7.3396,0.58964 1.09944,0.38642 2.51724,0.6229 3.73461,0.6229 1.07931,0 2.43399,0.13656 3.01041,0.30347 0.57642,0.16691 1.85802,0.43417 2.84802,0.59392 0.99,0.15975 2.33478,0.56319 2.98842,0.89653 0.65364,0.33334 1.40409,0.60608 1.66767,0.60608 0.26358,0 0.74127,0.19821 1.06158,0.44046 0.32028,0.24225 0.80205,0.44475 1.07061,0.45 0.26853,0.005 0.64899,0.2032 0.84543,0.4399 0.44028,0.53053 2.1906,1.45408 3.68661,1.94525 0.61617,0.2023 1.3725,0.68845 1.68075,1.08032 0.56193,0.71439 3.59655,2.23267 4.51125,2.25708 0.7398,0.0197 4.49742,2.401824 6.13233,3.887464 0.52545,0.47747 1.33362,1.17895 1.79598,1.55883 1.91424,1.57284 2.29857,2.01979 2.12523,2.47152 -0.10512,0.27395 0.0189,0.53976 0.30291,0.64871 0.636,0.24406 4.68123,5.66309 4.68123,6.27104 0,0.26055 0.29415,0.8716 0.6537,1.35789 1.30593,1.76638 0.34884,1.08495 -1.5537,-1.10618 -4.06329,-4.67966 -8.19717,-8.53619 -11.34399,-10.58288 -5.39487,-3.50883 -6.3744,-4.059144 -10.70601,-6.014884 -1.155,-0.52148 -2.59926,-1.20833 -3.20943,-1.52633 -0.6102,-0.31801 -1.3527,-0.58099 -1.65,-0.5844 -0.29733,-0.003 -1.89057,-0.49082 -3.54057,-1.08312 -3.05835,-1.09787 -7.12545,-2.14144 -12.05056,-3.09204 -2.33245,-0.45019 -3.44972,-0.49216 -7.35,-0.27611 -4.86309,0.26938 -8.05572,0.64054 -8.64559,1.0051 -0.89079,0.55054 0.61717,0.76439 6.61078,0.9375 3.71568,0.10733 7.25947,0.36601 8.38537,0.6121 1.0725,0.23442 3.03,0.61169 4.35,0.83837 3.47781,0.59723 8.86482,2.13045 10.5,2.98847 0.495,0.25973 1.20048,0.47307 1.56774,0.47409 0.36726,9e-4 1.10976,0.27134 1.65,0.60073 0.54024,0.32938 1.18476,0.59973 1.43226,0.60077 0.2475,9e-4 1.21974,0.46605 2.16051,1.033354 0.9408,0.5673 2.49441,1.34809 3.45252,1.73508 1.65888,0.67006 3.90984,1.99834 6.53697,3.85746 0.66,0.46706 1.88553,1.32509 2.72337,1.90674 2.55942,1.77675 7.39194,6.77228 9.24405,9.55581 0.95484,1.43502 2.12079,2.8831 2.59104,3.21795 0.47025,0.33484 1.0776,1.04421 1.34964,1.57638 0.73761,1.44281 1.83909,4.9645 2.08419,6.66363 0.11868,0.82283 0.4152,1.88168 0.65892,2.35301 0.35358,0.68374 0.41025,1.68506 0.28038,4.95395 -0.21192,5.3341 -0.44172,7.85638 -0.78318,8.59699 -0.15216,0.33 -0.33288,1.545 -0.40161,2.7 -0.13908,2.33724 -0.9336,5.44732 -1.57713,6.17363 -0.23082,0.26049 -0.42426,0.86799 -0.42984,1.35 -0.006,0.482 -0.27102,1.41637 -0.58983,2.07637 -0.31881,0.66 -0.58422,1.33873 -0.58983,1.50828 -0.006,0.16955 -0.39048,1.04705 -0.85527,1.95 -0.46482,0.90296 -1.36299,3.05893 -1.99599,4.79107 -1.07151,2.93216 -1.64763,4.03812 -2.89155,5.55066 -0.27141,0.33 -0.66501,1.13495 -0.87471,1.78877 -0.2097,0.65382 -0.76632,1.72033 -1.23696,2.37001 -0.47064,0.64969 -0.85569,1.36038 -0.85569,1.57932 0,0.21894 -0.33069,0.61474 -0.73485,0.87956 -0.40416,0.26482 -0.8826,0.92925 -1.06323,1.47651 -0.1806,0.54727 -1.2762,2.05496 -2.43465,3.35043 -1.15845,1.29547 -2.26038,2.6929 -2.44878,3.1054 -0.1884,0.4125 -0.82089,1.30485 -1.4055,1.983 -0.58464,0.67814 -1.73799,2.01085 -2.56299,2.96156 -0.825,0.95072 -1.73037,2.08337 -2.01195,2.51701 -0.61668,0.94972 -3.00492,3.63479 -5.56305,6.2545 -1.03125,1.05605 -1.875,2.05607 -1.875,2.22223 0,0.1716 -0.27564,0.21464 -0.63801,0.0996 -0.87585,-0.27799 -2.07564,1.19093 -1.86132,2.27887 0.0956,0.48541 -0.0237,0.91173 -0.32481,1.16173 -0.26172,0.21721 -0.47586,0.56269 -0.47586,0.76774 0,0.20504 -0.27,0.71606 -0.6,1.13558 -0.33891,0.43087 -0.6,1.21704 -0.6,1.80674 0,1.02494 -0.044,1.06172 -2.4168,2.01818 -1.95741,0.78903 -2.54871,0.91412 -3.11067,0.65807 -0.54801,-0.24969 -0.89346,-0.19478 -1.64328,0.26122 -0.52218,0.31755 -1.02897,0.78476 -1.12626,1.03825 -0.0973,0.25349 -0.39648,0.43967 -0.66492,0.41374 -0.96438,-0.0932 -1.18749,0.0367 -1.77537,1.03304 -0.3922,0.66473 -0.8905,1.06406 -1.45463,1.16569 -1.48087,0.26681 -2.91101,0.9133 -4.2823,1.9358 -0.72833,0.54308 -1.48827,0.98741 -1.68875,0.98741 -0.50508,0 -3.80682,1.53076 -4.2473,1.96914 -0.19816,0.19721 -0.8337,0.44738 -1.41233,0.55593 -0.57863,0.10855 -1.429,0.39399 -1.88972,0.6343 -0.46072,0.24032 -1.00691,0.43777 -1.21376,0.43878 -0.20685,9e-4 -0.87985,0.27185 -1.49556,0.60185 -0.6157,0.33 -1.48393,0.6 -1.92938,0.6 -0.44545,0 -1.18995,0.14519 -1.65444,0.32265 -0.46449,0.17745 -1.54979,0.45365 -2.41178,0.61377 -0.86199,0.16012 -1.89478,0.46105 -2.29508,0.66873 -1.22133,0.63363 -12.48319,0.3694 -15.73569,-0.3692 -1.43109,-0.32498 -3.95198,-0.81401 -5.60198,-1.08673 -1.65,-0.27271 -3.4725,-0.6859 -4.05,-0.9182 -0.5775,-0.2323 -1.59,-0.55226 -2.25,-0.71103 -0.66,-0.15877 -2.145,-0.57271 -3.3,-0.91987 -1.155,-0.34715 -2.505,-0.73779 -3,-0.86806 -0.495,-0.13028 -1.33205,-0.46079 -1.8601,-0.73447 -0.52806,-0.27367 -1.27056,-0.49809 -1.65,-0.49871 -0.37945,-6e-4 -1.10615,-0.25495 -1.6149,-0.56518 -0.50874,-0.31023 -1.38624,-0.66482 -1.95,-0.78797 -0.56375,-0.12316 -1.33737,-0.46878 -1.71915,-0.76806 -0.38178,-0.29928 -0.88803,-0.46974 -1.125,-0.37881 -0.68316,0.26215 -0.50301,0.67167 0.39415,0.89599 1.4021,0.35057 3.975,1.58127 3.975,1.90137 0,0.16708 0.12702,0.30378 0.28226,0.30378 0.15524,0 1.4295,0.54 2.83169,1.2 1.40218,0.66 2.72641,1.20089 2.94274,1.20198 0.21632,0.001 0.79831,0.2702 1.29331,0.59802 0.495,0.32783 1.14032,0.59694 1.43404,0.59802 0.29372,0.001 1.37372,0.35835 2.4,0.79392 1.02628,0.43556 2.74346,1.02681 3.81596,1.31389 1.0725,0.28708 2.355,0.67133 2.85,0.85389 2.23815,0.82543 11.96108,2.72789 14.86099,2.90781 5.78843,0.35911 14.65644,-0.66566 17.1063,-1.97679 0.68717,-0.36776 1.62677,-0.16655 1.34573,0.28818 -0.32028,0.51822 -3.29313,1.74454 -4.73103,1.95157 -0.7799,0.11229 -1.48936,0.31962 -1.57657,0.46073 -0.0872,0.14111 -0.73161,0.35177 -1.43199,0.46814 -0.70039,0.11637 -1.62954,0.39375 -2.06478,0.61641 -0.62481,0.31963 -1.44559,0.34586 -3.9,0.12463 -1.70976,-0.15411 -4.18865,-0.28491 -5.50865,-0.29066 -1.32,-0.006 -3.4125,-0.22247 -4.65,-0.4816 -1.2375,-0.25913 -2.655,-0.53365 -3.15,-0.61004 -2.86965,-0.44284 -4.79537,-0.87869 -7.2,-1.62957 -1.485,-0.46371 -3.375,-1.04621 -4.2,-1.29444 -1.88172,-0.56618 -4.0166,-1.32199 -4.8,-1.69934 -0.33,-0.15895 -1.51928,-0.62966 -2.64284,-1.04601 -1.12355,-0.41636 -2.94605,-1.22511 -4.05,-1.79723 -1.10394,-0.57212 -2.90701,-1.4422 -4.00682,-1.93351 -1.09982,-0.49131 -2.07789,-1.01988 -2.17351,-1.17458 -0.0956,-0.1547 -0.74826,-0.57776 -1.45033,-0.94013 -0.70208,-0.36237 -1.5465,-0.90056 -1.8765,-1.19598 -0.33,-0.29542 -1.02596,-0.75227 -1.54658,-1.01522 -0.52062,-0.26296 -1.12812,-0.65753 -1.35,-0.87683 -0.22188,-0.21931 -0.97838,-0.72049 -1.6811,-1.11375 -0.70272,-0.39325 -1.47419,-1.01492 -1.71437,-1.38148 -0.24019,-0.36657 -0.90292,-0.82035 -1.47275,-1.00841 -0.56983,-0.18806 -1.244,-0.6593 -1.49817,-1.0472 -0.25416,-0.3879 -1.07149,-0.938 -1.81629,-1.22244 -0.81955,-0.31299 -1.43194,-0.76219 -1.55116,-1.13782 -0.22417,-0.70629 -1.19032,-1.59292 -2.05379,-1.88474 -0.32131,-0.10859 -1.69859,-1.15863 -3.06061,-2.33343 -1.36203,-1.17479 -3.37985,-2.87849 -4.48404,-3.78598 -2.46029,-2.02203 -3.29653,-2.79351 -3.45182,-3.18451 -0.0656,-0.16523 -0.76057,-0.73779 -1.54432,-1.27236 -0.78375,-0.53458 -1.425,-1.15226 -1.425,-1.37263 0,-0.4434 -2.23025,-2.5705 -2.69515,-2.5705 -0.16138,0 -0.37732,-0.33428 -0.47986,-0.74285 -0.1789,-0.71277 -2.2613,-2.85715 -2.77457,-2.85715 -0.13632,0 -0.55883,-0.66393 -0.9389,-1.47541 -0.38008,-0.81147 -0.91926,-1.53508 -1.19818,-1.60802 -0.27892,-0.0729 -0.88232,-0.79276 -1.34088,-1.59959 -0.45856,-0.80684 -1.36611,-2.00698 -2.01677,-2.66698 -1.58971,-1.61252 -5.48794,-6.46286 -5.74927,-7.15348 -0.11519,-0.30441 -0.46628,-0.62064 -0.78019,-0.70273 -0.31391,-0.0821 -0.64181,-0.421 -0.72866,-0.75313 -0.1784,-0.68219 -0.89932,-0.58957 -1.03962,0.13357 -0.0525,0.27086 0.18009,0.56089 0.54206,0.67577 0.74814,0.23746 0.69311,1.14497 -0.0784,1.29356 -0.35655,0.0687 -0.52156,-0.0915 -0.52156,-0.5061 0,-0.74921 -1.3533,-2.26353 -1.78462,-1.99696 -0.47496,0.29354 -0.39707,0.59455 0.58462,2.2595 0.495,0.83953 0.9,1.77226 0.9,2.07275 0,0.30048 0.29176,0.91725 0.64835,1.37058 0.35659,0.45333 0.99784,1.4705 1.425,2.26038 0.67577,1.24959 3.09604,4.88957 4.78492,7.19629 0.30201,0.4125 0.93681,1.33962 1.41066,2.06027 0.47384,0.72065 1.57109,2.13815 2.43831,3.15 0.86721,1.01185 2.28911,2.6939 3.15975,3.73789 0.87065,1.04398 2.35925,2.69273 3.308,3.66389 1.64109,1.67983 2.06871,2.38794 1.44206,2.38794 -0.22383,0 -5.17793,-4.57024 -6.07797,-5.60703 -0.11601,-0.13363 -0.89792,-0.97117 -1.73759,-1.86121 -0.83968,-0.89003 -1.66711,-1.88063 -1.83874,-2.20133 -0.23449,-0.43815 -0.50137,-0.53557 -1.07364,-0.39194 -0.68481,0.17188 -0.74355,0.11926 -0.58263,-0.52187 0.13842,-0.55152 -0.0572,-0.94194 -0.86376,-1.72367 -0.57354,-0.55581 -1.04276,-1.18315 -1.04276,-1.39404 0,-0.2109 -0.38827,-0.58423 -0.86281,-0.82963 -0.5038,-0.26052 -1.05421,-0.91908 -1.32278,-1.5827 -0.25298,-0.62509 -1.22731,-2.01403 -2.16518,-3.08653 -4.00443,-4.57929 -7.34923,-9.5141 -7.34923,-10.84282 0,-0.19796 -0.20785,-0.5896 -0.46189,-0.87031 -0.50184,-0.55453 -1.31094,-2.54347 -2.37443,-5.83687 -0.37297,-1.155 -1.09491,-3.07534 -1.60432,-4.26744 -0.50941,-1.1921 -1.08609,-3.0146 -1.28152,-4.05001 -0.19543,-1.0354 -0.68406,-3.03006 -1.08584,-4.43256 -0.40178,-1.4025 -0.9283,-3.765 -1.17004,-5.25 -0.24174,-1.485 -0.57252,-3.375 -0.73506,-4.2 -0.51521,-2.61506 -0.70806,-16.37102 -0.29229,-20.84999 0.47673,-5.13576 0.49996,-5.33667 0.7631,-6.6 0.72218,-3.4672 -3.06987,3.81977 -4.54661,8.92119 -0.35823,1.2375 -0.86512,3.3975 -1.12642,4.8 -0.2613,1.4025 -0.61217,3.1575 -0.77971,3.89999 -0.16753,0.7425 -0.34791,2.16 -0.40085,3.15 -0.0529,0.99 -0.26263,3.015 -0.46598,4.5 -0.62678,4.57708 0.11669,13.44657 1.64713,19.65 0.9572,3.87986 1.14877,4.51811 1.40334,4.67545 0.14237,0.088 0.26017,0.52326 0.26178,0.96727 0.001,0.44401 0.33911,1.52945 0.75,2.41208 0.41089,0.88264 0.74707,1.76738 0.74707,1.9661 0,0.19872 0.59416,1.42567 1.0117,2.26356 0.68711,1.37884 1.25172,3.44391 1.99243,6.3352 0.15071,0.58831 0.4806,1.46581 0.7331,1.95 0.25249,0.48419 0.45991,1.09804 0.46092,1.36409 0.002,0.47705 0.96322,2.8984 2.54759,6.41626 0.67414,1.49684 4.36268,8.35378 5.64663,10.49698 1.24033,2.0704 5.26689,8.10764 7.69826,11.54244 2.31891,3.27593 4.13521,5.3243 9.60936,10.83723 5.89631,5.93804 7.44504,7.46473 10.50133,9.45486 7.24857,4.72 10.54951,6.58527 13.62669,7.70008 10.47259,3.79402 18.41502,5.78154 26.97452,6.75011 5.05383,0.57188 8.64983,0.56106 12,-0.0361 3.17732,-0.56635 7.50721,-0.4358 11.81398,0.3562 2.66925,0.49086 2.8886,0.49064 4.26504,-0.004 1.76167,-0.63349 1.82291,-0.61724 8.54397,2.26637 7.66692,3.28943 8.62248,3.58205 11.10944,3.402 1.17284,-0.0849 3.46784,-0.48042 5.1,-0.87892 z m 24.89244,-27.71788 c -0.12921,-0.2091 -0.15393,-0.46119 -0.0549,-0.56022 0.26847,-0.26849 0.56121,0.12639 0.41622,0.56144 -0.10164,0.30485 -0.17229,0.30461 -0.36132,-0.001 z m 3.58188,-3.62932 c -0.19641,-0.3178 0.8643,-1.51094 1.34325,-1.51094 0.53643,0 0.31623,1.17021 -0.28029,1.48945 -0.7161,0.38324 -0.83784,0.3857 -1.06296,0.0215 z m 2.10894,-1.78554 c -0.23628,-0.38233 1.22721,-2.0546 2.27004,-2.59388 0.47535,-0.24581 0.86427,-0.63544 0.86427,-0.86585 0,-0.42848 2.3019,-2.56567 2.76342,-2.56567 0.14046,0 0.33564,0.20907 0.43368,0.46459 0.17418,0.45385 -0.99051,1.72456 -2.5221,2.75173 -0.37125,0.24898 -0.675,0.61318 -0.675,0.80933 0,0.19616 -0.44517,0.78813 -0.98928,1.3155 -0.97881,0.94871 -1.81644,1.21591 -2.14503,0.68425 z m 6.43431,-6.40864 c 0,-0.68958 0.86553,-1.63955 2.21364,-2.42959 0.81576,-0.47806 1.43937,-1.10757 1.62513,-1.64051 0.16581,-0.47564 0.84738,-1.25447 1.51461,-1.73073 0.6672,-0.47626 1.29072,-1.16968 1.38558,-1.54093 0.1749,-0.68447 0.59598,-0.88478 0.88314,-0.42013 0.16602,0.2686 -1.21437,1.97291 -4.7139,5.82013 -2.00139,2.20024 -2.9082,2.80569 -2.9082,1.94176 z m -17.4,-7.71676 c 0,-0.165 0.135,-0.3 0.3,-0.3 0.165,0 0.3,0.135 0.3,0.3 0,0.165 -0.135,0.3 -0.3,0.3 -0.165,0 -0.3,-0.135 -0.3,-0.3 z m 25.8,-1.5 c 0,-0.165 0.135,-0.3 0.3,-0.3 0.165,0 0.3,0.135 0.3,0.3 0,0.165 -0.135,0.3 -0.3,0.3 -0.165,0 -0.3,-0.135 -0.3,-0.3 z m -1.35,-1.2 c 0.10197,-0.16499 0.31245,-0.29999 0.4677,-0.29999 0.15528,0 0.2823,0.135 0.2823,0.29999 0,0.165 -0.21048,0.3 -0.4677,0.3 -0.25725,0 -0.38427,-0.135 -0.2823,-0.3 z M 255.07921,84.580516 c 0.37317,-0.0718 0.91317,-0.069 1.2,0.006 0.28682,0.0751 -0.0185,0.1338 -0.6785,0.13047 -0.66,-0.003 -0.89468,-0.0648 -0.5215,-0.13653 z m -6.1093,-3.83775 c 0.31305,-0.23697 0.69872,-0.3508 0.85702,-0.25296 0.34688,0.21438 -0.33547,0.69579 -0.97622,0.68875 -0.34606,-0.004 -0.31853,-0.10446 0.1192,-0.43579 z M 219.15071,214.7248 c 0,-0.33721 -0.78034,-0.65176 -1.02067,-0.41143 -0.36113,0.36113 -0.16409,0.67933 0.42067,0.67933 0.33,0 0.6,-0.12056 0.6,-0.2679 z m 81.45,-8.4321 c 0.10197,-0.165 0.0424,-0.3 -0.1323,-0.3 -0.17472,0 -0.3177,0.135 -0.3177,0.3 0,0.165 0.0595,0.3 0.1323,0.3 0.0727,0 0.21573,-0.135 0.3177,-0.3 z m -29.43787,-5.175 c 1.10478,-2.84624 3.85825,-9.82237 6.11882,-15.50251 4.07419,-10.23722 4.1121,-10.31591 4.33683,-8.99999 0.72741,4.25947 2.96714,24.34465 2.84064,25.47396 -0.1173,1.0471 -0.36474,1.52503 -1.11297,2.14969 -0.52918,0.44177 -0.87167,0.94962 -0.76109,1.12854 0.13301,0.21522 2.12401,0.32531 5.88335,0.32531 6.13427,0 6.43346,-0.0897 4.94918,-1.48412 -1.59084,-1.49452 -1.74276,-2.29559 -4.52363,-23.85328 -1.28517,-9.96272 -1.31507,-11.20265 -0.29326,-12.16259 0.86218,-0.80997 0.95531,-1.35702 0.27546,-1.6179 -0.67681,-0.25972 -9.80876,-0.21722 -10.20719,0.0475 -0.18245,0.12122 -0.42587,0.7323 -0.54095,1.35795 -0.11507,0.62566 -1.69473,5.01316 -3.51037,9.75 -1.81563,4.73685 -3.9347,10.26501 -4.70905,12.28482 -0.77434,2.0198 -1.52111,3.63581 -1.65948,3.59114 -0.13836,-0.0447 -0.85991,-1.49474 -1.60343,-3.22237 -3.016,-7.0079 -9.17639,-21.798 -9.42172,-22.62004 -0.14427,-0.4834 -0.43352,-0.98759 -0.64279,-1.12041 -0.20926,-0.13283 -2.5577,-0.24357 -5.21875,-0.24609 -3.99579,-0.004 -4.90507,0.0759 -5.22193,0.4577 -0.32246,0.38853 -0.2326,0.61816 0.56327,1.43928 0.78768,0.81269 0.94693,1.21239 0.94693,2.37675 0,1.58633 -3.41663,27.09775 -3.96524,29.60778 -0.19668,0.89987 -0.80246,2.29718 -1.34618,3.10515 -1.10219,1.63785 -1.21251,2.15861 -0.51404,2.42664 0.61376,0.23552 7.86714,0.22973 8.75046,-0.007 0.89432,-0.23967 0.85191,-0.58022 -0.225,-1.80675 -0.74608,-0.84974 -0.9,-1.28436 -0.9,-2.54129 0,-1.32136 2.65834,-22.3215 3.18529,-25.16287 l 0.19473,-1.05 1.03935,2.25 c 0.57165,1.2375 3.04793,7.00783 5.50285,12.82295 5.32882,12.62269 5.32308,12.61104 7.13666,14.49259 2.26377,2.34862 2.32931,2.29663 4.65325,-3.69055 z m -35.94199,4.43052 c 0.17607,-0.052 0.90264,-1.80497 1.6146,-3.89545 0.95896,-2.81573 1.20698,-3.88834 0.95692,-4.13839 -0.25006,-0.25006 -0.5557,-0.17626 -1.17926,0.28476 -1.58221,1.16978 -4.03558,2.2411 -6.13427,2.67869 -2.04902,0.42723 -4.11681,0.34968 -9.45904,-0.35476 l -1.28091,-0.1689 0.0809,-6.35573 0.0809,-6.35573 3.50042,0 c 3.1804,0 3.58555,0.063 4.43143,0.68874 0.51205,0.3788 1.06311,0.60708 1.22458,0.50729 0.45749,-0.28275 0.37995,-6.44119 -0.0814,-6.46703 -0.20625,-0.0115 -2.36625,-0.003 -4.8,0.0193 l -4.425,0.0403 0,-4.80159 c 0,-3.3731 0.1056,-4.86686 0.35496,-5.02097 0.19523,-0.12066 1.76185,-0.28195 3.48137,-0.35843 3.67824,-0.16358 5.98593,0.26329 7.27158,1.34509 0.49552,0.41695 1.08067,0.68914 1.30033,0.60484 0.45301,-0.17383 0.93384,-5.38699 0.6143,-6.66014 l -0.18942,-0.75472 -10.98753,0.0787 c -10.28872,0.0737 -10.9941,0.11286 -11.09098,0.61628 -0.0589,0.30628 0.22042,0.79237 0.64925,1.12969 1.50582,1.18448 1.54614,1.66128 1.54614,18.2827 0,14.25208 -0.0414,15.52584 -0.53444,16.42834 -0.29394,0.53809 -0.80019,1.14431 -1.125,1.34716 -0.58654,0.3663 -0.77955,1.1355 -0.38415,1.5309 0.19418,0.19417 23.87599,-0.0477 24.56373,-0.2509 z m 51.72986,-47.55552 c 0,-0.165 -0.135,-0.3 -0.3,-0.3 -0.165,0 -0.3,0.135 -0.3,0.3 0,0.165 0.135,0.3 0.3,0.3 0.165,0 0.3,-0.135 0.3,-0.3 z m 2.71261,-3.675 c 0.41944,-0.53625 0.94498,-1.5825 1.16786,-2.325 0.22287,-0.7425 0.67281,-1.93369 0.99984,-2.64709 0.92787,-2.02407 1.26378,-5.92516 0.84408,-9.80257 -0.19647,-1.81519 -0.48483,-3.42859 -0.6408,-3.58534 -0.15597,-0.15675 -0.28359,-0.53099 -0.28359,-0.83166 0,-1.10223 -4.21048,-8.6148 -5.03702,-8.98734 -0.11714,-0.0528 -0.81924,-0.77099 -1.56022,-1.59599 -1.3926,-1.55051 -1.81288,-1.8927 -5.1059,-4.15734 -1.87706,-1.29088 -4.18883,-2.08974 -7.90769,-2.73262 -1.53468,-0.2653 -3.48642,0.0837 -3.7088,0.66324 -0.21225,0.5531 0.67195,1.27833 1.55197,1.27292 0.92075,-0.006 5.94537,1.54688 6.49128,2.00572 0.26049,0.21894 0.57073,0.39808 0.68941,0.39808 0.43334,0 3.67732,2.22435 5.2914,3.62823 3.09842,2.69493 4.86851,5.09593 7.05658,9.57176 2.46819,5.04884 2.64252,10.45915 0.50412,15.64586 -0.18047,0.43772 -0.47145,0.88444 -0.64663,0.99271 -0.17517,0.10826 -0.3185,0.50058 -0.3185,0.8718 0,0.37123 -0.19821,0.93701 -0.44046,1.2573 -0.24225,0.32028 -0.44475,0.75108 -0.45,0.95733 -0.0175,0.68607 0.73075,0.3874 1.50307,-0.6 z m -126.0226,-16.28302 c -0.14115,-3.15656 -0.12298,-6.69791 0.0438,-8.54197 0.47459,-5.24651 1.1564,-9.97675 1.49722,-10.38741 0.17712,-0.21343 0.44159,-1.34015 0.58771,-2.50383 0.28471,-2.2674 1.89163,-8.16907 2.49378,-9.15876 0.20078,-0.33 0.75534,-1.545 1.23235,-2.7 1.12663,-2.72791 4.24413,-8.739344 5.14879,-9.928334 0.38848,-0.51058 0.70632,-1.06918 0.70632,-1.24134 0,-0.42745 2.09783,-3.47257 2.59739,-3.77025 0.57152,-0.34057 0.50758,-1.41009 -0.0843,-1.41009 -0.617,0 -3.30706,1.93316 -7.21238,5.18304 -3.36538,2.80056 -4.90071,4.40266 -4.90071,5.11386 0,0.25722 -0.1158,0.53925 -0.25733,0.62673 -0.48757,0.30133 -1.66646,6.159004 -2.14869,10.676384 -0.18494,1.7325 -0.60967,4.8375 -0.94383,6.9 -1.18634,7.32217 -1.05711,20.05701 0.2572,25.34721 0.97448,3.92237 1.2864,2.58751 0.98265,-4.20524 z m 29.81227,-20.54197 c 0.2924,-0.495 0.64612,-0.9 0.78604,-0.9 0.13992,0 0.66157,-0.72146 1.15921,-1.60323 1.15008,-2.03783 6.56355,-8.53633 8.91031,-10.69623 0.98569,-0.9072 2.32473,-2.1897 2.97564,-2.85 1.84957,-1.876254 10.25052,-8.250554 10.87372,-8.250554 0.22052,0 0.65038,-0.15578 0.95524,-0.34617 0.43804,-0.27356 0.70289,-0.2421 1.26268,0.15 0.86337,0.60472 1.74531,0.63333 2.53313,0.0822 1.37442,-0.96155 4.64175,-2.57555 4.64175,-2.29294 0,0.50451 0.5158,0.34724 0.7152,-0.21807 0.10185,-0.28875 0.25822,-0.67686 0.34748,-0.86247 0.19779,-0.41126 -2.16414,-1.63151 -2.7344,-1.41268 -0.22411,0.086 -1.4584,-0.19256 -2.74287,-0.61902 -1.28448,-0.42646 -2.94291,-0.8998 -3.68541,-1.05187 -0.7425,-0.15207 -2.3378,-0.49449 -3.54511,-0.76092 -2.59558,-0.5728 -7.25489,-0.90217 -7.25489,-0.51284 0,0.47259 0.79781,1.03861 3.56013,2.52577 0.84891,0.45704 2.43158,1.42659 3.51705,2.15458 l 1.97357,1.3236 -1.03675,0.69543 c -5.98931,4.01752 -8.04588,5.47752 -9.08753,6.45144 -0.67294,0.62919 -2.41475,2.224004 -3.8707,3.544004 -3.19939,2.90065 -3.15651,2.85528 -4.82041,5.1 -0.73385,0.99 -2.14455,2.73202 -3.13491,3.87116 -2.40153,2.7623 -4.14219,6.43709 -3.40045,7.17883 0.35173,0.35174 0.55861,0.22036 1.10228,-0.69999 z m 32.59772,-23.082314 c 0,-0.15526 -0.135,-0.36573 -0.3,-0.4677 -0.165,-0.10198 -0.3,0.025 -0.3,0.28229 0,0.25724 0.135,0.46771 0.3,0.46771 0.165,0 0.3,-0.12704 0.3,-0.2823 z m 0.6,-2.1177 c 0,-0.63273 -0.43646,-0.80732 -0.75,-0.3 -0.21876,0.35396 0.065,0.9 0.46771,0.9 0.15526,0 0.28229,-0.27 0.28229,-0.6 z m 7.24253,-1.50681 c 0.60089,-0.16691 1.25734,-0.50206 1.45879,-0.74478 0.66876,-0.80581 -0.51965,-0.86985 -2.11208,-0.11381 -2.20616,1.04742 -1.82588,1.54721 0.65329,0.85859 z m 18.12513,-4.03365 c 0.56195,-0.42504 0.55608,-0.44032 -0.16766,-0.43647 -0.4125,0.002 -1.155,0.18943 -1.65,0.41609 l -0.9,0.4121 1.06766,0.0244 c 0.58721,0.0134 1.32971,-0.17384 1.65,-0.41609 z"
         style="display:inline;fill:#e71a3d"
         transform="translate(-220.56369,241.93468)" />
    </g>
  </g>
  <g
     inkscape:label="CORD base"
     inkscape:groupmode="layer"
     id="layer1"
     style="display:inline"
     transform="translate(217.46366,-243.77585)">
    <path
       style="fill:#000000"
       d="m 55.527349,500.825 c -1.485,-0.11699 -4.6575,-0.6317 -7.05,-1.1438 -10.93039,-2.33959 -12.35132,-2.49258 -24.15,-2.60031 -13.37346,-0.12212 -16.3749004,-0.52363 -26.7530104,-3.57885 -18.7825196,-5.5294 -26.6926596,-9.9127 -37.4123296,-20.73154 -8.16561,-8.24115 -16.77143,-19.67891 -22.99977,-30.56839 -2.36507,-4.13501 -6.9372,-13.11812 -7.74549,-15.21797 -0.33494,-0.87011 -1.03096,-2.59453 -1.54671,-3.83203 -3.90855,-9.37806 -6.75403,-19.37049 -8.11578,-28.5 -0.54622,-3.66199 -0.6524,-5.74973 -0.67131,-13.2 -0.0205,-8.05852 0.0364,-9.11586 0.63597,-11.82278 0.36869,-1.66462 0.65843,-4.0063 0.65843,-5.32142 0,-1.79593 0.21623,-3.02365 0.91886,-5.21712 1.0595,-3.30755 3.33301,-8.47128 4.92786,-11.19248 0.8855,-1.51088 1.03012,-1.96262 0.74017,-2.31199 -0.1982,-0.23881 -0.62133,-0.4342 -0.9403,-0.4342 -0.31897,0 -1.82119,-0.72865 -3.33826,-1.61922 -6.32307,-3.71182 -12.88623,-6.68004 -18.51067,-8.37155 -25.082989,-7.54353 -48.514829,-4.17234 -65.376989,9.40593 -12.47,10.04146 -20.25004,24.62758 -22.7142,42.58483 -0.70965,5.17147 -0.7044,15.82459 0.0104,21.15 2.03875,15.18857 7.75994,29.00562 16.53073,39.92278 5.80869,7.2302 13.32996,13.36697 21.45236,17.50347 17.1159,8.71663 41.88215,7.81613 67.200009,-2.44338 4.40143,-1.78359 11.10956,-4.95624 14.66151,-6.93425 2.7093,-1.50876 3.54201,-1.73706 3.18655,-0.87362 -0.73034,1.77404 -0.51005,1.92492 1.39296,0.95407 0.66941,-0.34151 1.28937,-0.54867 1.37768,-0.46037 0.13761,0.13762 -6.57321,15.67454 -11.82306,27.3728 l -1.63421,3.64151 -2.15572,0.90395 c -8.63518,3.62098 -17.99229,5.76874 -29.155709,6.69219 -4.78079,0.39547 -19.52806,0.19924 -24.3,-0.32333 -16.91953,-1.85288 -30.94977,-5.86231 -44.31655,-12.66439 -24.22516,-12.32765 -39.85426,-33.75252 -44.6017,-61.14143 -1.27537,-7.35781 -1.38198,-8.90782 -1.37217,-19.95 0.0104,-11.69768 0.28347,-14.63423 2.13423,-22.95 5.13418,-23.06862 17.70224,-41.66288 36.55618,-54.08428 4.41711,-2.9101 13.67301,-7.50587 18.84736,-9.35815 7.25618,-2.59754 16.13597,-4.57915 25.10264,-5.60191 5.51113,-0.62862 20.17252,-0.4762 27.15,0.28225 12.438249,1.35202 28.989649,4.46009 34.721969,6.52019 l 1.42196,0.51103 0.078,13.54044 c 0.0572,9.92896 0.1697,13.54043 0.42172,13.54043 0.18902,0 1.32105,-1.2825 2.5156,-2.85 1.19456,-1.5675 3.16615,-3.96832 4.38132,-5.33515 1.85572,-2.08729 2.20943,-2.65401 2.20943,-3.5399 0,-1.6207 0.61305,-2.47497 3.64193,-5.07495 1.53775,-1.32 3.99064,-3.5475 5.45087,-4.95 3.41038,-3.27556 5.51437,-4.73676 9.9572,-6.9152 4.26116,-2.08935 9.82882,-3.55188 16.41065,-4.31081 5.25577,-0.60603 6.55742,-0.59499 12.38935,0.10507 6.6142796,0.79397 12.7918896,2.34574 17.3324896,4.35381 1.41655,0.62647 1.70241,0.90378 2.25448,2.18712 0.42194,0.98081 0.91179,1.59505 1.47264,1.84658 0.46221,0.2073 1.16658,0.58745 1.56526,0.84477 l 0.72488,0.46785 -0.85126,0.34795 -0.85126,0.34795 3.0913204,2.32253 c 1.70022,1.27738 3.17288,2.24095 3.27257,2.14126 0.0997,-0.0997 -0.12201,-0.67797 -0.49266,-1.28506 -3.03366,-4.96894 -4.9155604,-10.30635 -6.5008304,-18.43753 -2.26813,-11.6338 -2.30947,-12.05724 -1.47191,-15.07826 0.27264,-0.98341 0.53013,-2.66553 0.57219,-3.73803 0.0421,-1.07249 0.21594,-2.62499 0.3864,-3.44999 0.17046,-0.825 0.31957,-2.31 0.33137,-3.3 0.0267,-2.24275 0.65797,-4.67946 1.48445,-5.73016 0.34643,-0.44041 0.62987,-1.13068 0.62987,-1.53392 0,-0.76413 6.4969004,-13.75746 7.9072804,-15.81398 1.00611,-1.46704 1.20728,-2.24784 1.01613,-3.94375 -0.13535,-1.20084 -0.0608,-1.41164 0.73601,-2.08215 0.48764,-0.41032 1.02813,-0.74603 1.2011,-0.74603 0.18987,0 0.2427,-0.35892 0.13332,-0.90579 -0.12395,-0.61975 0.0458,-1.41902 0.53758,-2.53098 0.67514,-1.52661 0.81453,-1.65364 2.29811,-2.09421 2.05532,-0.61037 2.94297,-0.59475 3.18277,0.056 0.37841,1.02685 2.23437,2.93003 3.16738,3.24797 0.83033,0.28294 1.09234,0.67329 2.11436,3.15 2.02785,4.91415 2.25952,6.57502 0.95305,6.83251 -0.29436,0.058 -1.02621,-0.17048 -1.62633,-0.50777 -0.74446,-0.41841 -1.23086,-0.52487 -1.53094,-0.33507 -0.2419,0.15299 -1.00478,0.28023 -1.69529,0.28276 -1.78803,0.007 -2.43182,0.33423 -4.29453,2.18591 -3.45983,3.43933 -4.5,4.97717 -4.5,6.65303 0,0.36359 -0.35033,0.98835 -0.7785,1.38836 -0.42818,0.40001 -0.96432,1.08438 -1.19143,1.52081 -0.37861,0.72758 -1.19286,3.84617 -1.47688,5.65648 -0.65716,4.1886 -1.37464,6.6 -1.96374,6.6 -0.41951,0 -0.35547,1.31395 0.0855,1.75522 0.55429,0.55462 0.34465,9.06871 -0.2344,9.51922 -1.24284,0.96697 -1.1941,4.24531 0.0921,6.19383 l 0.73815,1.11828 -0.4721,4.15217 c -0.49915,4.39005 -0.92109,6.05892 -1.4086,5.5714 -0.15817,-0.15817 -0.33185,-1.09953 -0.38596,-2.09191 -0.0541,-0.99239 -0.22344,-1.99809 -0.37628,-2.23489 -0.15284,-0.2368 -0.43568,-0.76868 -0.62852,-1.18194 -0.3118,-0.66816 -0.35642,-0.68493 -0.40283,-0.15139 -0.1334504,1.53437 0.0934,3.49927 0.65808,5.7 0.37054,1.44413 0.63165,3.48257 0.65559,5.11813 l 0.0398,2.71812 1.77575,2.93577 c 0.97667,1.61467 1.9568,3.00524 2.17806,3.09015 0.42646,0.16364 1.0062,-0.26319 4.59619,-3.38391 8.92737,-7.76043 21.8438,-13.36062 33.6,-14.56801 15.43766,-1.58547 31.03266,1.27016 45.54777,8.34035 9.565351,4.65922 16.087351,9.94871 22.014781,17.85449 9.40272,12.54106 13.13931,27.15083 13.13622,51.36194 0,10.16178 -0.25617,14.98541 -1.20651,22.83297 -1.95819,16.1698 -6.57885,31.95486 -13.25376,45.27736 -7.68621,15.34101 -17.57349,27.12311 -31.697401,37.77204 -8.78382,6.62267 -15.32262,9.90889 -22.9911,11.55465 -3.34111,0.71705 -6.09768,0.89475 -9.6,0.61884 z m 5.92837,-7.76063 c 7.93996,-1.35741 15.04679,-4.5002 20.14631,-8.90915 1.30608,-1.12921 4.06725,-3.29582 6.1359,-4.8147 9.90672,-7.27384 14.284261,-12.71738 23.351791,-29.03841 5.20203,-9.36333 6.7662,-13.22039 11.19276,-27.6 1.77789,-5.77547 3.28767,-12.99825 4.79724,-22.95 0.51177,-3.37375 0.89727,-12.72318 0.89745,-21.76503 2.7e-4,-13.19619 -0.65994,-19.94996 -2.60859,-26.68496 -1.0482,-3.62292 -3.35919,-9.72843 -4.31499,-11.40001 -0.67935,-1.18805 -1.03473,-2.38335 -0.63519,-2.13644 0.72885,0.45047 4.3221,7.46042 5.70843,11.13645 0.75576,2.00396 2.45052,8.43547 2.45052,9.29952 0,0.50843 0.19113,1.66153 0.42471,2.56245 0.55995,2.15959 0.70194,4.26742 0.93885,13.93802 0.12426,5.07145 0.31986,8.24877 0.52317,8.49787 0.23766,0.29122 0.21675,0.46457 -0.078,0.64672 -0.3159,0.19524 -0.35991,0.9013 -0.20421,3.27714 0.12849,1.96057 0.0922,3.02827 -0.10305,3.02827 -0.16581,0 -0.3015,0.27 -0.3015,0.6 0,0.33 0.135,0.6 0.3,0.6 0.17853,0 0.31221,1.24509 0.33015,3.075 0.0273,2.79088 0.0606,2.96412 0.35979,1.875 0.21558,-0.78478 0.33069,-5.6636 0.33264,-14.1 0.003,-11.7159 -0.0594,-13.36812 -0.67692,-17.99999 -0.90288,-6.77223 -1.72989,-10.37301 -3.78954,-16.5 -1.88772,-5.61554 -8.58906,-16.65001 -10.11171,-16.65001 -0.29586,0 -1.62087,-1.08 -2.94441,-2.4 -2.76651,-2.75909 -3.68958,-3.19347 -2.55,-1.2 1.10757,1.93747 0.39786,1.58238 -2.55156,-1.27664 -9.133591,-8.85369 -17.424181,-13.88881 -29.848441,-18.12784 -6.47304,-2.20853 -19.9129,-2.51257 -29.47722,-0.66685 -8.94431,1.72607 -19.28993,6.66323 -27.10118,12.93328 -2.62456,2.10671 -6.22309,5.37893 -6.38804,5.80876 -0.0725,0.18903 0.80149,1.30141 1.94228,2.47197 1.14079,1.17056 2.07416,2.33257 2.07416,2.58225 0,0.96497 -1.0942,1.13392 -3.75802,0.58027 -2.51457,-0.52264 -2.54839,-0.52164 -3.8552,0.11325 -0.77732,0.37766 -1.67098,1.15208 -2.1775804,1.88703 -4.83184,7.00993 -6.22166,7.99866 -3.25552,2.31598 1.05603,-2.0232 1.82471,-3.82871 1.70819,-4.01225 -0.43152,-0.67967 -2.34317,-1.607 -3.31498,-1.60809 -0.55171,-6e-4 -2.30671,-0.40026 -3.9,-0.88811 -3.48134,-1.06595 -8.83612,-2.11301 -10.80619,-2.11301 -0.7858696,0 -2.9727696,-0.20614 -4.8597696,-0.45809 -1.88701,-0.25195 -5.18593,-0.44756 -7.33093,-0.43469 -5.61044,0.0337 -5.25,0.0774 -5.25,-0.63667 0,-0.59813 -0.0933,-0.61733 -1.875,-0.38578 -1.03125,0.13402 -2.4504,0.21339 -3.15367,0.17636 -1.3111,-0.069 -1.1251,-0.15005 -10.27708,4.47623 -2.92906,1.48063 -9.82685,7.10119 -14.86513,12.11264 -2.92232,2.90677 -4.5031,4.77864 -6.207,7.35001 -5.88032,8.874 -9.43763,19.56179 -10.61199,31.88322 -0.41984,4.40492 -0.43936,5.83031 -0.1324,9.66677 0.5984,7.47892 2.34014,14.88025 5.12981,21.79852 0.82014,2.03393 1.84724,4.91382 2.28244,6.39977 2.4803,8.46865 6.69959,17.16756 12.73304,26.25171 6.28515,9.46311 9.68116,13.50141 18.42698,21.91202 2.99599,2.88116 4.49522,4.02942 8.93559,6.84376 6.50181,4.1209 10.07612,5.95174 14.67383,7.51627 9.9936996,3.40072 19.7328196,5.41325 28.44058,5.87705 2.77912,0.14802 4.15005,0.0609 7.05,-0.44806 4.00479,-0.70286 5.52805,-0.65787 11.24317,0.33204 3.25177,0.56323 3.51562,0.56871 4.7468,0.0985 0.75976,-0.29016 1.67085,-0.42443 2.18381,-0.32183 0.4841,0.0968 3.14054,1.13964 5.9032,2.31737 4.81109,2.051 9.43638,3.8024 10.16821,3.85029 0.18985,0.0124 1.89229,-0.24191 3.78318,-0.56517 z m 58.411011,-51.5946 c -0.007,-0.29975 -0.16458,-0.19839 -0.43938,0.28234 -0.56115,0.98161 -0.55452,1.51343 0.01,0.76766 0.24225,-0.32028 0.43569,-0.79278 0.42984,-1.05 z m 1.33941,-3.01766 0.19623,-0.75 -0.45186,0.75 c -0.50364,0.83587 -0.63501,1.49324 -0.20688,1.035 0.14646,-0.15675 0.3546,-0.6225 0.46251,-1.035 z m 5.17614,-16.25625 c -0.0958,-0.23932 -0.16686,-0.16823 -0.18126,0.18125 -0.0129,0.31625 0.0579,0.49344 0.15759,0.39375 0.0997,-0.0997 0.11034,-0.35844 0.0237,-0.575 z m 0.97398,-2.88645 c 0.0117,-0.21599 -0.11391,-0.30927 -0.27891,-0.2073 -0.165,0.10198 -0.29052,0.5487 -0.27891,0.99271 0.0189,0.72085 0.0487,0.74304 0.27891,0.20729 0.14181,-0.33 0.26733,-0.77671 0.27891,-0.9927 z m 0.86646,-4.1073 c 0.67104,-3.12006 1.52964,-8.16727 1.68414,-9.9 0.21942,-2.46099 -0.24195,-1.31465 -0.84519,2.1 -1.14198,6.46396 -1.68369,9.67444 -1.6752,9.92797 0.0198,0.59138 0.53136,-0.71024 0.83625,-2.12797 z m 1.25463,74.85001 c -0.22626,-0.42277 -0.62814,-0.6 -1.36056,-0.6 -0.57168,0 -1.03944,-0.12708 -1.03944,-0.28241 0,-0.15532 0.80316,-0.71049 1.78482,-1.2337 0.98163,-0.52321 2.5857,-1.78534 3.56457,-2.80474 2.91627,-3.03699 4.59051,-6.96367 5.6481,-13.24665 0.52536,-3.12113 0.55251,-6.60839 0.55251,-70.93251 0,-62.88686 -0.0367,-67.86878 -0.52194,-70.75739 -1.12725,-6.71107 -2.75382,-10.38826 -6.06582,-13.71291 -1.16172,-1.16617 -2.75349,-2.42696 -3.53724,-2.80176 -0.78375,-0.37481 -1.425,-0.80442 -1.425,-0.9547 0,-0.16277 14.27676,-0.27324 35.31291,-0.27324 38.18082,0 38.85228,0.0239 46.43709,1.65156 8.05704,1.72902 16.65489,5.1983 22.5,9.07887 8.52141,5.65737 14.23806,13.55608 16.69527,23.06794 0.80136,3.10215 0.93621,4.21606 1.06551,8.80164 0.17445,6.18599 -0.26286,9.5366 -1.87248,14.34689 -3.68193,11.00329 -12.00117,20.82194 -23.41752,27.63819 -4.54458,2.71339 -10.65963,5.29235 -15.67563,6.61107 -0.99837,0.26247 -1.27347,0.46313 -1.1712,0.85424 0.12828,0.49059 37.24722,47.3379 40.68624,51.3496 2.73987,3.19609 10.73196,11.23289 14.58981,14.67142 5.83968,5.20494 14.72679,12.32858 15.38055,12.32858 0.73644,0 2.98887,-4.25547 4.04913,-7.65 1.62738,-5.21029 1.57032,-2.463 1.57032,-75.6 0,-63.06006 -0.0364,-68.00251 -0.52098,-70.69679 -1.45836,-8.1089 -4.38843,-12.91665 -9.25068,-15.17875 -0.97464,-0.45345 -1.77351,-0.93173 -1.77522,-1.06285 -0.003,-0.13111 17.78313,-0.18838 39.52188,-0.12727 42.58503,0.11973 40.55697,0.0504 50.775,1.73555 15.27435,2.51902 30.80115,8.37456 42.45,16.00893 19.06746,12.49635 30.7134,31.24682 34.3911,55.37118 0.64047,4.20121 0.70806,5.61997 0.70008,14.7 -0.01,11.26785 -0.34362,14.45309 -2.37297,22.65 -8.62452,34.83623 -36.51369,59.08052 -75.57453,65.69762 -10.93029,1.85165 -9.3345,1.80239 -58.39368,1.80239 -47.27733,0 -46.76202,0.0134 -52.2,-1.35779 -3.59967,-0.90767 -9.28899,-3.35194 -12.17958,-5.23266 -1.48557,-0.96656 -3.80601,-2.88489 -5.22984,-4.32351 -1.40766,-1.42233 -10.1268,-11.96855 -19.37586,-23.43605 l -16.81644,-20.85 -12.21495,-18.71919 c -6.7182,-10.29556 -12.10659,-18.81493 -11.97414,-18.93195 0.13245,-0.11701 2.13081,-0.58287 4.44081,-1.03526 7.84953,-1.53721 14.63664,-3.77859 20.55,-6.78644 4.87818,-2.48131 7.78833,-4.50015 11.19621,-7.76709 5.97528,-5.72818 9.14382,-12.30579 9.75954,-20.26006 0.97005,-12.53138 -4.5588,-22.94814 -15.25575,-28.74288 -5.4306,-2.94187 -12.79518,-3.80993 -23.17227,-2.7313 -5.42118,0.56349 -11.31429,1.48963 -11.65203,1.83118 -0.41607,0.42081 -0.39165,135.68732 0.0252,138.99299 0.51357,4.07348 1.56477,7.94911 2.89599,10.67684 1.42017,2.91009 4.56018,6.23376 6.9282,7.33342 0.86625,0.40227 1.575,0.90203 1.575,1.11057 0,0.30258 -5.11905,0.37918 -25.33944,0.37918 -25.03242,0 -25.34334,-0.007 -25.66056,-0.6 z m 211.95,-20.25209 c 5.75451,-0.61061 9.1209,-1.20589 14.4,-2.54639 28.52589,-7.24341 46.48464,-26.61983 50.07792,-54.03113 1.43133,-10.91863 0.59622,-24.18787 -2.21595,-35.21032 -2.88918,-11.3244 -7.5597,-19.95729 -14.83287,-27.41677 -9.87096,-10.12381 -20.53743,-15.01003 -37.8291,-17.3292 -4.97829,-0.66769 -19.07376,-0.76252 -24,-0.16148 -3.46497,0.42276 -10.60845,1.66101 -12.525,2.17109 l -1.125,0.29941 0,66.59586 0,66.59586 0.675,0.25525 c 0.37125,0.14039 2.16,0.4164 3.975,0.61337 1.815,0.19697 3.57,0.39789 3.9,0.44648 2.07117,0.30496 15.84546,0.10575 19.5,-0.28203 z"
       id="path8868"
       inkscape:connector-curvature="0"
       sodipodi:nodetypes="cssssscssssssscsssssssssssscscsssssssssssscsssssssssssccscccssssscscsssscsccsccscsccsssssscsscsscsccsscscsssscsssscccsssssssccsscsccsssscscssssssssscssscssccsssssscssssssssssssssscscccccccccccccccsccccccccsssccsscssscssssssssssssssssssscsssssssssscscscsssssscccsssccsssssssscccssss" />
  </g>
</svg>
