<?xml version="1.0" encoding="UTF-8" standalone="no"?>
<!-- Created with Inkscape (http://www.inkscape.org/) -->

<svg
   xmlns:dc="http://purl.org/dc/elements/1.1/"
   xmlns:cc="http://creativecommons.org/ns#"
   xmlns:rdf="http://www.w3.org/1999/02/22-rdf-syntax-ns#"
   xmlns:svg="http://www.w3.org/2000/svg"
   xmlns="http://www.w3.org/2000/svg"
   xmlns:sodipodi="http://sodipodi.sourceforge.net/DTD/sodipodi-0.dtd"
   xmlns:inkscape="http://www.inkscape.org/namespaces/inkscape"
   width="225.37634mm"
   height="182.08455mm"
   viewBox="0 0 798.5776 645.18147"
   id="svg2"
   version="1.1"
   inkscape:version="0.91 r13725"
   sodipodi:docname="teaching-course-logo.svg">
  <defs
     id="defs4" />
  <sodipodi:namedview
     id="base"
     pagecolor="#ffffff"
     bordercolor="#666666"
     borderopacity="1.0"
     inkscape:pageopacity="0.0"
     inkscape:pageshadow="2"
     inkscape:zoom="2"
     inkscape:cx="292.6915"
     inkscape:cy="342.5767"
     inkscape:document-units="px"
     inkscape:current-layer="layer5"
     showgrid="false"
     fit-margin-top="0"
     fit-margin-left="0"
     fit-margin-right="0"
     fit-margin-bottom="0"
     inkscape:window-width="3840"
     inkscape:window-height="2067"
     inkscape:window-x="2160"
     inkscape:window-y="93"
     inkscape:window-maximized="0"
     showguides="true"
     inkscape:guide-bbox="true" />
  <metadata
     id="metadata7">
    <rdf:RDF>
      <cc:Work
         rdf:about="">
        <dc:format>image/svg+xml</dc:format>
        <dc:type
           rdf:resource="http://purl.org/dc/dcmitype/StillImage" />
        <dc:title></dc:title>
      </cc:Work>
    </rdf:RDF>
  </metadata>
  <g
     inkscape:groupmode="layer"
     id="layer11"
     inkscape:label="Text"
     style="display:inline"
     sodipodi:insensitive="true"
     transform="translate(-0.324114,-9.5479481)">
    <path
       style="fill:#000000"
       d="m 407.47466,653.99701 c -3.89849,-0.85442 -8.45223,-2.74033 -8.45223,-3.5004 0,-0.30196 0.51599,-2.15098 1.14665,-4.10911 0.90119,-2.79807 1.31844,-3.48442 1.9493,-3.206 3.70985,1.63699 7.13095,2.46582 11.04467,2.67591 5.84733,0.31378 7.82181,-0.0915 10.07254,-2.06774 3.01352,-2.6459 4.0167,-5.17549 4.27994,-10.79241 l 0.23062,-4.9209 -1.98984,1.74713 c -3.66383,3.21684 -5.98442,3.93615 -12.69885,3.93615 -5.45186,0 -6.23098,-0.12428 -8.85419,-1.41258 -8.72708,-4.28607 -12.83257,-13.35533 -12.30267,-27.17724 0.30964,-8.07668 1.80138,-13.47605 5.07936,-18.38495 3.26342,-4.88694 6.70967,-7.26255 12.16811,-8.38781 6.18455,-1.27494 12.29262,0.27354 16.59712,4.2076 l 2.77432,2.5356 0.35192,-3.11057 0.35193,-3.11054 4.39261,0 4.39261,0 0,27.97454 c 0,18.01335 -0.20235,29.0729 -0.56829,31.059 -1.53175,8.31345 -6.73765,14.00829 -14.76625,16.15287 -3.27757,0.87547 -10.95918,0.82068 -15.19938,-0.10855 z M 421.11459,624.73 c 1.14359,-0.52235 3.0734,-2.03248 4.28848,-3.35578 l 2.2092,-2.40603 0,-12.91347 0,-12.91337 -1.82073,-2.12717 c -3.86115,-4.51092 -10.91782,-5.9474 -15.85952,-3.22839 -2.71115,1.49165 -5.30455,5.05237 -6.54669,8.98851 -1.10356,3.49703 -1.5493,13.77766 -0.76181,17.57087 1.50189,7.23471 6.22442,11.36824 12.96243,11.34594 2.21389,-0.009 4.19412,-0.3516 5.52864,-0.96111 z m -340.737169,8.9059 c -0.713779,-0.13309 -2.761625,-0.90578 -4.550756,-1.71702 -6.372931,-2.88966 -11.739982,-10.18763 -13.172861,-17.91218 -0.937087,-5.05174 -0.355779,-16.01881 1.0397,-19.61551 2.669236,-6.87955 8.105571,-12.6915 14.083093,-15.05604 2.20625,-0.87275 3.986426,-1.13595 7.797221,-1.15282 8.093978,-0.0359 13.028733,2.16213 17.177092,7.65084 3.17675,4.2031 4.2504,7.95402 4.53052,15.82791 l 0.24505,6.88754 -17.546739,0 -17.546751,0 0.286195,2.72904 c 0.753187,7.18203 4.598158,12.61818 10.044663,14.20158 5.038037,1.46456 11.99015,0.23542 16.752365,-2.96188 1.235597,-0.82964 2.449317,-1.38309 2.697157,-1.22984 0.24785,0.15314 1.19128,1.57302 2.09652,3.15518 1.5454,2.70107 1.59319,2.93497 0.78257,3.83061 -1.33316,1.47318 -6.533563,4.06736 -9.92365,4.9503 -2.893466,0.75368 -11.652397,0.99781 -14.791389,0.41229 z m 16.807184,-35.61354 c -0.828493,-7.43904 -5.061948,-11.78764 -11.501536,-11.81439 -4.993895,-0.0205 -9.409594,3.49677 -11.541026,9.19354 -1.943668,5.19495 -2.783897,4.83011 11.122405,4.83011 l 12.1662,0 z m 31.014075,35.53367 c -7.08576,-2.28602 -10.5732,-7.18398 -10.58842,-14.87096 -0.01,-4.69819 0.71585,-6.84144 3.31727,-9.8043 4.11937,-4.69169 10.39681,-6.56994 21.95784,-6.56994 l 7.76278,0 -0.17866,-5.1103 c -0.16421,-4.69675 -0.30028,-5.26957 -1.68173,-7.07924 -2.30006,-3.01313 -5.26938,-4.09526 -10.48556,-3.82147 -3.22863,0.16942 -4.9042,0.54307 -6.79109,1.51404 -2.60913,1.34267 -2.49511,1.13531 -3.61174,6.56978 -0.22351,1.08779 -0.5134,1.1696 -4.14605,1.1696 l -3.90573,0 0.14697,-5.78694 0.14698,-5.78694 2.6783,-1.51199 c 6.40274,-3.61457 14.56389,-5.20335 21.52006,-4.18951 7.35119,1.07146 12.37099,4.41725 15.00026,9.99795 l 1.34697,2.859 0.16138,17.54378 0.16139,17.54377 2.04784,0 2.04782,0 0,3.37878 0,3.37878 -6.68958,0 -6.68959,0 -0.3222,-1.94923 c -0.17721,-1.07216 -0.32477,-2.61426 -0.32791,-3.42701 l -0.005,-1.47771 -2.62913,2.36382 c -1.44601,1.30012 -3.96062,3.01768 -5.588,3.81685 -2.56776,1.26094 -3.64604,1.4673 -8.15704,1.56076 -2.85898,0.0594 -5.78296,-0.0809 -6.4977,-0.31137 z m 15.96572,-9.94883 c 1.77674,-0.87467 3.94051,-2.45178 4.80839,-3.50466 1.49578,-1.81465 1.57794,-2.15517 1.57794,-6.54082 l 0,-4.62659 -7.14746,0.2452 c -7.76473,0.26642 -10.12211,0.89796 -12.78187,3.42444 -2.93306,2.78608 -3.6429,5.73695 -2.20683,9.17401 1.7571,4.20532 9.17294,5.06623 15.74983,1.82842 z m 45.76023,9.87457 c -7.76232,-1.93485 -13.87756,-8.67706 -16.23088,-17.89487 -0.94022,-3.68277 -1.0618,-14.01431 -0.21253,-18.05874 0.87942,-4.18808 3.65445,-9.72282 6.39016,-12.74522 7.72762,-8.5372 24.20751,-9.18725 34.61301,-1.36532 l 3.12251,2.34724 0.007,5.0241 c 0.004,2.76335 0.15074,5.56043 0.32632,6.21588 0.31628,1.18079 0.27965,1.19031 -4.00474,1.03964 l -4.32391,-0.15208 -0.96007,-3.89858 c -1.07966,-4.38433 -2.21459,-5.69279 -6.08196,-7.01208 -2.6779,-0.91341 -7.24018,-1.01664 -10.08061,-0.22787 -6.75081,1.87462 -10.65231,12.04696 -9.20474,23.99948 1.27742,10.54741 5.35909,15.1237 13.53003,15.16962 3.02591,0.0169 4.37198,-0.22954 6.01333,-1.1013 2.89817,-1.53925 5.72142,-4.79563 6.15323,-7.09736 l 0.35612,-1.89825 4.7138,0 4.7138,0 -0.36695,2.44698 c -0.20183,1.34587 -0.83084,3.43387 -1.39782,4.63999 -1.45177,3.08866 -6.04026,7.22566 -10.17463,9.17366 -3.20741,1.51117 -4.01089,1.66505 -9.23116,1.76836 -3.14489,0.0622 -6.59611,-0.1058 -7.66941,-0.37328 z M 497.00762,633.078 c -4.98673,-1.47886 -8.5593,-3.68749 -12.74534,-7.87966 -8.19641,-8.20844 -11.88512,-20.01563 -10.46361,-33.49302 1.06572,-10.10397 4.35829,-17.55134 10.47349,-23.68956 6.07331,-6.09622 12.34203,-8.55166 21.83223,-8.55166 8.65674,0 14.59734,2.04841 20.95137,7.22437 l 2.96013,2.4113 0,6.98896 0,6.98894 -3.5991,0 -3.59914,0 -0.91841,-5.24727 c -1.02726,-5.86931 -1.50397,-6.4998 -6.72673,-8.8965 -2.17339,-0.99741 -3.45359,-1.18045 -8.2884,-1.18519 -5.39905,-0.005 -5.92091,0.0904 -9.35667,1.71538 -8.20974,3.88292 -12.82434,12.21572 -13.60613,24.56926 -0.79751,12.60229 3.47387,23.88667 10.90282,28.80365 6.60239,4.36992 16.75006,4.30258 23.78173,-0.15778 l 2.36509,-1.50017 0.92335,-5.27562 0.92335,-5.27552 3.59914,0 3.5991,0 0,6.67095 0,6.67097 -1.94415,1.94417 c -2.46374,2.46369 -6.98913,5.22186 -10.88467,6.63418 -4.30648,1.56111 -15.69345,1.86014 -20.17945,0.52982 z m 59.4338,-0.0293 c -4.01098,-1.31903 -6.14961,-2.72966 -9.20265,-6.07016 -4.80277,-5.255 -6.94753,-11.55304 -6.98423,-20.50921 -0.0274,-6.68473 0.74334,-10.54545 3.09041,-15.48037 3.44487,-7.24318 9.31565,-11.54549 17.35314,-12.71696 16.9956,-2.47712 29.04473,10.48538 27.89255,30.00718 -0.68793,11.65698 -5.48338,19.91428 -13.86135,23.86809 -3.08524,1.45612 -3.92242,1.61114 -9.36596,1.73427 -4.70355,0.10642 -6.60544,-0.0711 -8.92191,-0.83284 z m 14.47763,-8.67545 c 4.40482,-2.58149 6.93014,-8.17567 7.31843,-16.21239 0.66141,-13.69025 -4.54865,-21.9496 -13.8535,-21.96142 -5.3717,-0.009 -9.03572,2.37895 -11.46243,7.46365 -2.90675,6.09051 -3.34294,14.96859 -1.09286,22.24266 1.39914,4.52308 4.76676,8.4117 8.25264,9.52944 3.37318,1.08157 7.94437,0.63358 10.83772,-1.06194 z m 42.26728,8.81759 c -4.06377,-1.45257 -6.9493,-4.00579 -9.05056,-8.00813 -2.34987,-4.4759 -2.5263,-5.8566 -2.85202,-22.31985 l -0.31308,-15.82205 -1.55945,-0.36821 c -0.85768,-0.20247 -2.20272,-0.51384 -2.98893,-0.69195 -1.37907,-0.31234 -1.4295,-0.4425 -1.4295,-3.69261 l 0,-3.3689 8.31705,0 8.31704,0 0,18.42781 c 0,20.2641 0.26141,22.75471 2.67694,25.50578 2.02218,2.30324 4.4121,3.03295 8.96012,2.73588 4.4125,-0.28827 7.14693,-1.54654 9.84077,-4.52833 l 1.91385,-2.11838 0,-16.04581 0,-16.04582 -2.60541,-0.34557 c -4.15857,-0.55167 -4.15218,-0.54511 -4.15218,-4.26238 l 0,-3.32318 8.57695,0 8.57695,0 0,23.11142 0,23.11138 3.1189,0.64414 3.11888,0.64425 0,3.27476 0,3.27484 -7.79723,0 -7.79722,0 0,-2.55651 c 0,-4.15407 -0.32415,-4.39009 -2.61526,-1.90456 -1.11271,1.20711 -3.26021,2.87287 -4.77214,3.70144 -2.43218,1.33299 -3.34808,1.52389 -7.94715,1.65662 -3.77709,0.10899 -5.83763,-0.0782 -7.53732,-0.68608 z m 100.06445,-0.009 c -1.7154,-0.40793 -4.63935,-1.49981 -6.4977,-2.42636 l -3.3788,-1.68469 -0.1455,-6.62442 -0.14549,-6.62441 3.84029,0 3.84028,0 0.98355,3.76861 c 0.93396,3.57867 1.0966,3.82571 3.22624,4.90045 2.96518,1.49644 7.96476,2.00201 11.84066,1.19734 4.21082,-0.87414 6.96916,-3.5403 6.96916,-6.73617 0,-4.69 -2.81652,-6.75393 -12.73547,-9.33212 -13.65606,-3.54953 -18.42189,-7.58998 -18.43697,-15.63043 -0.0188,-10.12061 9.64377,-16.83993 22.90176,-15.92556 5.34907,0.36891 9.92442,1.71056 13.75904,4.0346 2.56732,1.55594 2.829,1.8843 2.83181,3.55389 0,1.01165 0.15334,3.76921 0.33694,6.12789 l 0.33384,4.28848 -3.9556,0 -3.95563,0 -0.54337,-2.20917 c -0.29885,-1.2151 -0.84293,-2.79408 -1.2092,-3.50877 -1.89628,-3.70108 -11.24117,-5.47581 -15.93082,-3.02566 -3.12311,1.63174 -4.36292,3.44711 -4.31946,6.32459 0.067,4.43212 2.14159,5.87677 12.04307,8.38621 10.02839,2.54159 15.08546,5.27907 17.57475,9.51388 1.25443,2.13394 1.44057,2.99281 1.43272,6.61108 -0.007,3.24687 -0.25336,4.61433 -1.12374,6.2378 -2.31208,4.31272 -6.48027,7.41363 -11.84192,8.80977 -3.88514,1.01167 -13.38867,0.99728 -17.69444,-0.0267 z m 55.81691,-0.36653 c -4.50622,-1.53598 -8.652,-4.72572 -11.30384,-8.69678 -3.08698,-4.62283 -4.28463,-8.87702 -4.60846,-16.36988 -0.44466,-10.28659 1.8286,-16.99379 7.82373,-23.08393 5.91356,-6.0073 13.11099,-7.99416 21.65997,-5.97929 4.17896,0.98494 6.9725,2.58978 9.74655,5.59925 4.0902,4.43743 5.56487,8.81349 6.14514,18.23615 l 0.37095,6.02371 -17.81137,0 -17.81136,0 0.35232,2.65574 c 0.85058,6.41191 3.85953,11.51811 7.98458,13.5497 4.72921,2.32929 14.0087,1.26049 18.72613,-2.15685 2.59953,-1.88306 2.88627,-1.91494 3.62483,-0.40349 0.31433,0.64326 1.17036,2.14112 1.90232,3.32859 l 1.33078,2.15898 -2.9377,1.94997 c -4.60951,3.05959 -9.53439,4.39088 -16.18434,4.3748 -4.39103,-0.0107 -6.2959,-0.26135 -9.01023,-1.18667 z m 19.07395,-35.27418 c -0.45421,-3.42392 -1.53969,-6.0134 -3.31387,-7.90544 -4.23494,-4.51632 -12.10374,-4.51632 -16.30936,0 -1.75265,1.88209 -3.86814,6.09453 -4.3402,8.64251 l -0.36117,1.94923 12.34048,0 12.34051,0 z m -770.558476,32.18571 0.15476,-3.24882 4.02857,-0.70386 4.028568,-0.70366 0,-28.27595 0,-28.27599 -7.773671,0 -7.773678,0 -0.2815218,1.6894 c -0.1548337,0.92917 -0.3408635,2.74202 -0.413408,4.02857 l -0.1319026,2.33916 -4.5483839,0.15019 -4.5483827,0.15021 0,-8.3373 0,-8.33727 30.409197,0 30.409188,0 0,8.31704 0,8.31705 -4.382703,0 -4.382706,0 -0.362751,-4.15852 -0.362753,-4.15853 -7.730116,0 -7.730104,0 0,28.2736 0,28.27354 1.169588,0.28722 c 0.643269,0.15794 2.397646,0.44737 3.898618,0.64317 l 2.729023,0.35586 0,3.3119 0,3.31181 -13.280088,0 -13.280096,0 z m 208.445946,0.0223 0.15474,-3.22731 4.02857,-0.71905 4.02857,-0.71902 0,-30.84626 c 0,-28.93301 -0.0564,-30.86225 -0.90967,-31.10329 -0.50033,-0.14132 -1.96231,-0.40809 -3.24884,-0.5928 -4.33877,-0.62296 -4.2231,-0.50675 -4.05226,-4.07114 l 0.15363,-3.20628 9.22673,-0.14195 9.22673,-0.14195 0,15.15284 0,15.15284 2.37807,-2.19202 c 1.30794,-1.20563 3.70559,-2.80893 5.3281,-3.56288 2.48888,-1.15652 3.68138,-1.37271 7.62837,-1.38291 6.28318,-0.0164 9.44125,1.10153 13.01163,4.60545 1.8631,1.8284 3.09161,3.63481 3.93009,5.77879 1.17331,3.00008 1.22675,3.75553 1.40362,19.83555 l 0.18387,16.71662 3.99069,0.69719 3.99068,0.69717 0.15477,3.24883 0.15475,3.24882 -13.2801,0 -13.28008,0 0,-3.3118 0,-3.3119 2.72901,-0.35587 c 1.50098,-0.1958 3.25536,-0.48522 3.89863,-0.64318 l 1.16958,-0.28721 -0.003,-14.88828 c -0.002,-8.78498 -0.22643,-15.69332 -0.54817,-16.8519 -1.28908,-4.64195 -6.46238,-7.65359 -11.84479,-6.89555 -3.33363,0.46951 -7.49289,2.56648 -9.40081,4.73948 l -1.59502,1.81662 0,16.03987 0,16.03976 1.16959,0.28721 c 0.64327,0.15796 2.39765,0.44738 3.89861,0.64318 l 2.72903,0.35587 0,3.3119 0,3.3118 -13.28009,0 -13.2801,0 0.15476,-3.22724 z m 67.05616,-0.0223 0.15477,-3.24882 4.03491,-0.70491 4.03491,-0.70483 -0.13629,-19.0339 -0.13631,-19.0339 -2.33917,-0.38493 c -1.28655,-0.2117 -3.0994,-0.52111 -4.02857,-0.6876 l -1.68939,-0.30257 0,-3.35528 0,-3.35523 9.35667,0 9.35668,0 0,23.07543 0,23.0754 1.16957,0.28722 c 0.64329,0.15794 2.39766,0.44737 3.89862,0.64317 l 2.72904,0.35586 0,3.3119 0,3.31181 -13.28011,0 -13.28007,0 z m 32.1234,-0.12998 c 0,-2.8081 0.14645,-3.37878 0.8671,-3.37878 0.47689,0 2.35111,-0.25841 4.16487,-0.57433 l 3.29778,-0.57423 -0.13631,-19.03452 -0.1363,-19.03452 -2.33916,-0.38493 c -1.28656,-0.2117 -3.09941,-0.52111 -4.02858,-0.6876 l -1.6894,-0.30257 0,-3.35528 0,-3.35523 8.52134,0 c 9.60312,0 9.15238,-0.2069 9.15238,4.20105 0,1.40611 0.17543,2.55478 0.38987,2.55264 0.21441,0 1.4172,-1.05001 2.67287,-2.32853 5.65648,-5.75954 15.04699,-7.09407 22.55805,-3.20583 3.90198,2.01992 6.17206,4.84365 7.70869,9.58874 1.031,3.18379 1.15032,4.87265 1.37255,19.42958 0.27686,18.13417 -0.34384,16.12124 5.1938,16.84357 l 2.72903,0.35586 0,3.3119 0,3.31181 -13.2801,0 -13.28009,0 0.15475,-3.24882 0.15477,-3.24882 4.06288,-0.7098 4.06289,-0.70972 -0.16427,-15.4045 c -0.16257,-15.24355 -0.17787,-15.43152 -1.46383,-17.97667 -1.6111,-3.18868 -3.08682,-4.27701 -6.80207,-5.01638 -5.57204,-1.10894 -11.30163,1.17812 -14.37446,5.73791 -1.15538,1.71452 -1.17552,2.00929 -1.17552,17.20859 l 0,15.46429 3.29143,0.57317 c 1.81029,0.3152 3.68162,0.57317 4.15852,0.57317 0.72066,0 0.8671,0.57068 0.8671,3.37878 l 0,3.3788 -13.25529,0 -13.25529,0 z m 333.7214,0 c 0,-2.8081 0.14642,-3.37878 0.8671,-3.37878 0.47688,0 2.35108,-0.25841 4.16487,-0.57433 l 3.29776,-0.57423 -0.1363,-19.03452 -0.13629,-19.03452 -2.33917,-0.38493 c -1.28655,-0.2117 -3.09939,-0.52111 -4.02856,-0.6876 l -1.68941,-0.30257 0,-3.36784 0,-3.36781 8.70027,0.14252 c 7.26826,0.11907 8.71733,0.27087 8.80383,0.92224 0.0569,0.42886 0.2454,1.8621 0.41877,3.18499 l 0.31521,2.40532 3.01753,-3.01758 c 3.56609,-3.5661 7.27346,-4.98868 11.65004,-4.47035 1.42056,0.16825 2.66873,0.39184 2.77374,0.49689 0.10506,0.10502 -0.1039,2.25514 -0.46435,4.77804 l -0.65533,4.58706 -3.96426,-0.11575 c -4.45169,-0.12997 -7.06252,0.68838 -9.45939,2.96517 -2.91325,2.76724 -2.94252,2.95868 -2.94252,19.25635 l 0,15.04711 3.29141,0.57317 c 1.8103,0.3152 3.68164,0.57317 4.15854,0.57317 0.72066,0 0.86709,0.57068 0.86709,3.37878 l 0,3.3788 -13.25529,0 -13.25529,0 z m -357.6329,-69.39534 0,-5.19815 5.19815,0 5.19816,0 0,5.19815 0,5.19815 -5.19816,0 -5.19815,0 z"
       id="path4494"
       inkscape:connector-curvature="0"
       sodipodi:nodetypes="ssssssscssssssscccccsssssscccsssssssssssssscccsssssssssssscscssscsssssscccssscccccccccsscsssccssscsssssssssccsscssssssscccssssssssssscccccssssssscccccccssssscsssssssssssssssscssscccsssscccsscccccccccccscssscscccccssssscsscscccscscscccsccssssssscccssccccsssscsccccsccccccccsscccccccccccccccccssccccccccccsssscccccsssssscccccccccssccssscccsscccccccccccccsscccccccssccccccssscccsscccsscssssscccccccccssssscssscccsssscccsscccscscsscscssscssscccsccccccccc" />
    <path
       style="fill:#128fcb;fill-opacity:1"
       d="m 175.96877,555.3121 c -3.52494,-0.53761 -6.69718,-2.29763 -8.57489,-4.75751 -2.34587,-3.07317 -3.08478,-5.3833 -3.2791,-10.2519 -0.16861,-4.2246 0.23832,-6.61089 1.60908,-9.43564 1.03748,-2.13792 4.1039,-5.42148 5.93249,-6.35255 4.9572,-2.52409 11.70171,-1.53331 15.07079,2.21391 2.3169,2.57695 3.17095,5.16028 3.373,10.20256 l 0.15164,3.78458 -10.12306,0 -10.12307,0 0.14842,1.58264 c 0.33528,3.57515 2.50275,6.96137 5.0965,7.96219 2.82409,1.0897 7.86691,0.32769 10.51207,-1.58844 0.62196,-0.45058 1.23383,-0.75557 1.35969,-0.67779 0.12586,0.0777 0.68279,0.9035 1.23763,1.83489 1.20624,2.02494 1.15461,2.13286 -1.75126,3.65985 -3.01821,1.58601 -7.3398,2.32655 -10.63993,1.82321 z m 8.30179,-20.58307 c -0.63391,-4.44007 -2.52926,-6.54315 -6.19662,-6.87568 -2.17133,-0.19689 -4.1146,0.66461 -5.52556,2.44961 -1.10266,1.39497 -2.19104,3.90634 -2.19104,5.05569 l 0,0.67778 7.04992,0 7.04995,0 -0.18665,-1.3074 z m -86.24569,18.166 0.08141,-1.85791 2.27075,-0.38637 2.27074,-0.38636 0,-16.34141 0,-16.3414 -4.472681,0.0757 -4.472689,0.0756 -0.170895,2.1019 c -0.09396,1.15606 -0.256119,2.23981 -0.360292,2.40836 -0.114918,0.18596 -1.102957,0.30647 -2.512719,0.30647 l -2.323309,0 0,-4.81673 0,-4.81675 17.340255,0 17.34026,0 0,4.81675 0,4.81673 -2.32332,0 c -1.27783,0 -2.39594,-0.11751 -2.4847,-0.26114 -0.0887,-0.14363 -0.23829,-1.25835 -0.3323,-2.47717 l -0.17087,-2.21605 -4.50071,0 -4.50069,0 0,16.3346 0,16.33459 2.27075,0.38637 2.27074,0.38637 0.0814,1.85789 0.0814,1.85788 -7.73194,0 -7.731911,0 0.08141,-1.85788 z m 27.74323,-0.0245 0,-1.88233 2.33957,-0.36396 2.33955,-0.36395 0,-17.80407 0,-17.80406 -2.27075,-0.38639 -2.27074,-0.38637 -0.0808,-1.99549 -0.0809,-1.99551 5.24167,0 5.24165,0 0,8.76057 0,8.76056 1.27754,-1.2241 c 2.75468,-2.63944 6.9617,-3.68773 10.82397,-2.69706 3.36398,0.86286 5.42808,2.76195 6.70745,6.17124 0.54798,1.46027 0.59136,2.17017 0.67826,11.09903 l 0.0928,9.53897 2.32062,0.34526 2.32065,0.34525 0,1.88238 0,1.88237 -7.56917,0 -7.56915,0 0,-1.88237 0,-1.88238 2.35955,-0.35105 2.35959,-0.35104 -0.0919,-8.84507 c -0.0808,-7.77219 -0.15157,-8.97818 -0.58364,-9.9423 -1.10044,-2.45551 -2.82721,-3.47486 -5.88645,-3.47486 -2.55458,0 -4.41294,0.80451 -6.10932,2.64486 l -1.13081,1.2268 0,9.19826 0,9.19825 2.33955,0.34808 2.33955,0.34807 0,1.88238 0,1.88237 -7.56915,0 -7.56916,0 0,-1.88234 z"
       id="path4507"
       inkscape:connector-curvature="0" />
  </g>
  <g
     inkscape:groupmode="layer"
     id="layer4"
     inkscape:label="background"
     style="display:inline"
     sodipodi:insensitive="true"
     transform="translate(-0.324114,-9.5479481)">
    <path
       transform="translate(31.428432,-166.64796)"
       style="fill:#000000;fill-opacity:1"
       d="m 294.07157,691.19757 c -33.52249,-8.76073 -69.67795,-27.78994 -97.69092,-51.41633 -51.51106,-43.44491 -83.54838,-101.96269 -92.27704,-168.54869 -2.04802,-15.62316 -2.04286,-50.58544 0.01,-66.24387 3.78183,-28.84947 13.20544,-60.11829 25.36652,-84.1696 15.54768,-30.74948 40.34467,-61.94704 67.09144,-84.40923 36.33895,-30.51779 83.34591,-51.23556 132.5,-58.39781 14.97181,-2.18155 53.31233,-2.46139 67.5,-0.49267 31.43786,4.3624 56.19307,11.80919 83.5,25.11823 26.88603,13.1039 47.4479,27.92182 70.05454,50.48486 42.30688,42.22528 67.56094,93.87838 74.99766,153.39564 2.09615,16.77582 1.57771,56.08248 -0.94477,71.62986 -5.92825,36.53889 -19.09253,71.30688 -38.43117,101.5 -19.9579,31.15997 -51.44475,62.2383 -82.97897,81.90238 -24.0191,14.97781 -61.59075,30.1357 -78.75555,31.7731 -26.63404,2.54071 -39.10338,-24.42043 -37.08063,-80.17548 1.53418,-42.28811 10.37303,-69.08901 28.1408,-85.32775 21.34277,-18.46064 75.54582,-29.90758 113.79497,-12.25255 -3.8873,-5.20752 -17.25002,-11.78139 -25.1011,-13.37564 6.12204,-4.03269 12.92632,-8.90881 17.56981,-15.42914 3.60658,-5.06434 4.48654,-9.14482 4.48654,-9.14482 0,0 -2.64915,4.65079 -9.44513,10.05102 -8.76246,6.96283 -15.3565,9.94146 -42.4945,11.90249 -18.8743,1.36388 -32.12682,1.92413 -46.62242,7.49794 -14.4956,5.57381 -26.56321,10.65629 -45.22254,29.53347 l -0.0229,-7.96188 c 2.69913,-47.39324 31.36732,-104.92573 73.40448,-114.60882 -6.89636,0.16269 -14.90494,-1.45343 -29.92211,8.13706 4.33563,-20.82611 0.23389,-28.52049 -6.60719,-37.95888 2.11936,5.51822 5.41798,15.9842 2.69802,25.33581 -2.95133,10.14708 -6.21618,19.42777 -22.4587,38.14319 -23.49413,25.53918 -34.31511,60.38593 -34.84219,92.05857 -2.46909,-31.56896 -6.37143,-45.75506 -14.78129,-62.16514 -23.29469,-43.19824 -52.81032,-55.89821 -39.64323,-93.80993 -3.14428,2.54301 -11.25718,16.87608 -6.60492,38.21788 -8.11795,-5.72525 -13.39648,-8.03018 -29.52659,-8.00664 25.89657,7.45159 34.27244,20.54279 45.45289,34.34864 11.87849,16.61017 20.04492,34.93955 24.22469,54.37179 2.0829,9.68364 3.55928,32.25389 2.64008,33.1731 -27.95459,-31.86036 -66.73673,-35.19145 -89.56875,-36.36875 -25.29246,-2.20374 -35.02952,2.12039 -53.88766,-22.48754 2.67088,10.22884 13.30343,20.19953 23.02615,24.9725 0,0 -16.64977,3.26581 -25.93219,14.07663 19.22378,-8.28921 31.16728,-9.26854 44.47227,-9.32655 16.3346,0.75489 26.33676,1.8795 42.10661,6.97907 27.77256,8.98094 40.90478,22.69685 49.67395,53.11153 4.41298,15.30583 6.02206,30.1383 6.00059,55.31334 -0.0274,32.14787 -2.6977,46.46825 -11.02446,59.12294 -7.80057,11.85502 -18.4686,14.72916 -36.84508,9.92667 z"
       id="path4151"
       inkscape:connector-curvature="0"
       sodipodi:nodetypes="csscsssssssssssscccscsszcccccscccccccsccccccsssssc" />
  </g>
  <g
     inkscape:groupmode="layer"
     id="layer5"
     inkscape:label="leaves"
     sodipodi:insensitive="true"
     style="display:inline"
     transform="translate(-0.324114,-9.5479481)">
    <g
       inkscape:groupmode="layer"
       id="layer6"
       inkscape:label="green"
       sodipodi:insensitive="true">
      <path
         style="fill:#778948;fill-opacity:1;fill-rule:evenodd;stroke:none;stroke-width:1px;stroke-linecap:butt;stroke-linejoin:miter;stroke-opacity:1"
         d="m 313.39285,86.607142 c -6.78571,9.732143 -0.70621,31.982348 15.44644,33.660718 7.92633,-11.863 -1.60715,-31.785718 -15.44644,-33.660718 z"
         id="path4157"
         inkscape:connector-curvature="0"
         sodipodi:nodetypes="ccc" />
      <path
         sodipodi:nodetypes="ccc"
         inkscape:connector-curvature="0"
         id="path4159"
         d="m 360.3042,93.981547 c -10.38175,5.742789 -14.73634,28.393833 -0.97886,37.022673 12.34509,-7.15236 12.57332,-29.23742 0.97886,-37.022673 z"
         style="fill:#778948;fill-opacity:1;fill-rule:evenodd;stroke:none;stroke-width:1px;stroke-linecap:butt;stroke-linejoin:miter;stroke-opacity:1" />
      <path
         style="fill:#778948;fill-opacity:1;fill-rule:evenodd;stroke:none;stroke-width:1px;stroke-linecap:butt;stroke-linejoin:miter;stroke-opacity:1"
         d="m 420.40918,77.386345 c -11.84018,0.755379 -25.45696,19.372995 -16.7065,33.053445 14.21759,-1.19073 23.8619,-21.060038 16.7065,-33.053445 z"
         id="path4161"
         inkscape:connector-curvature="0"
         sodipodi:nodetypes="ccc" />
      <path
         sodipodi:nodetypes="ccc"
         inkscape:connector-curvature="0"
         id="path4163"
         d="m 445.08081,70.319824 c -7.27578,9.37141 -2.34513,31.904076 13.70022,34.408436 8.52416,-11.440982 0.0247,-31.826311 -13.70022,-34.408436 z"
         style="fill:#778948;fill-opacity:1;fill-rule:evenodd;stroke:none;stroke-width:1px;stroke-linecap:butt;stroke-linejoin:miter;stroke-opacity:1" />
      <path
         style="fill:#778948;fill-opacity:1;fill-rule:evenodd;stroke:none;stroke-width:1px;stroke-linecap:butt;stroke-linejoin:miter;stroke-opacity:1"
         d="m 302.65998,147.84764 c -6.78571,9.73214 -0.70621,31.98235 15.44644,33.66072 7.92633,-11.863 -1.60715,-31.78572 -15.44644,-33.66072 z"
         id="path4165"
         inkscape:connector-curvature="0"
         sodipodi:nodetypes="ccc" />
      <path
         sodipodi:nodetypes="ccc"
         inkscape:connector-curvature="0"
         id="path4167"
         d="m 224.75196,184.46567 c -6.78571,9.73214 -0.70621,31.98235 15.44644,33.66072 7.92633,-11.863 -1.60715,-31.78572 -15.44644,-33.66072 z"
         style="fill:#778948;fill-opacity:1;fill-rule:evenodd;stroke:none;stroke-width:1px;stroke-linecap:butt;stroke-linejoin:miter;stroke-opacity:1" />
      <path
         style="fill:#778948;fill-opacity:1;fill-rule:evenodd;stroke:none;stroke-width:1px;stroke-linecap:butt;stroke-linejoin:miter;stroke-opacity:1"
         d="m 348.69391,236.33615 c -4.60786,10.93289 5.97638,31.42694 22.12404,29.70124 5.27922,-13.25471 -8.19793,-30.75239 -22.12404,-29.70124 z"
         id="path4169"
         inkscape:connector-curvature="0"
         sodipodi:nodetypes="ccc" />
      <path
         sodipodi:nodetypes="ccc"
         inkscape:connector-curvature="0"
         id="path4171"
         d="m 271.79391,198.94177 c -1.92538,11.70698 13.15502,29.16016 28.4523,23.70871 2.03557,-14.1214 -15.15742,-27.98513 -28.4523,-23.70871 z"
         style="fill:#778948;fill-opacity:1;fill-rule:evenodd;stroke:none;stroke-width:1px;stroke-linecap:butt;stroke-linejoin:miter;stroke-opacity:1" />
      <path
         style="fill:#778948;fill-opacity:1;fill-rule:evenodd;stroke:none;stroke-width:1px;stroke-linecap:butt;stroke-linejoin:miter;stroke-opacity:1"
         d="m 402.39197,143.94779 c -2.0844,11.67971 12.75729,29.33634 28.12728,24.09341 2.2274,-14.09241 -14.77548,-28.18865 -28.12728,-24.09341 z"
         id="path4173"
         inkscape:connector-curvature="0"
         sodipodi:nodetypes="ccc" />
      <path
         sodipodi:nodetypes="ccc"
         inkscape:connector-curvature="0"
         id="path4175"
         d="m 490.84242,147.64332 c -11.83282,0.86305 -25.27968,19.60375 -16.40515,33.20403 14.20617,-1.32 23.66935,-21.27621 16.40515,-33.20403 z"
         style="fill:#778948;fill-opacity:1;fill-rule:evenodd;stroke:none;stroke-width:1px;stroke-linecap:butt;stroke-linejoin:miter;stroke-opacity:1" />
      <path
         style="fill:#778948;fill-opacity:1;fill-rule:evenodd;stroke:none;stroke-width:1px;stroke-linecap:butt;stroke-linejoin:miter;stroke-opacity:1"
         d="m 497.88786,92.479403 c -10.46012,5.598779 -15.12729,28.187487 -1.49037,37.005607 12.44275,-6.98108 12.97614,-29.06088 1.49037,-37.005607 z"
         id="path4177"
         inkscape:connector-curvature="0"
         sodipodi:nodetypes="ccc" />
      <path
         sodipodi:nodetypes="ccc"
         inkscape:connector-curvature="0"
         id="path4179"
         d="m 440.05158,228.37493 c -11.28737,3.65454 -19.8874,25.05715 -8.03091,36.1544 13.48375,-4.66324 17.92527,-26.29828 8.03091,-36.1544 z"
         style="fill:#778948;fill-opacity:1;fill-rule:evenodd;stroke:none;stroke-width:1px;stroke-linecap:butt;stroke-linejoin:miter;stroke-opacity:1" />
      <path
         style="fill:#778948;fill-opacity:1;fill-rule:evenodd;stroke:none;stroke-width:1px;stroke-linecap:butt;stroke-linejoin:miter;stroke-opacity:1"
         d="m 260.1697,266.53906 c 9.09467,7.61888 31.79494,3.52864 34.89361,-12.41261 -11.11645,-8.94327 -31.80343,-1.20695 -34.89361,12.41261 z"
         id="path4181"
         inkscape:connector-curvature="0"
         sodipodi:nodetypes="ccc" />
      <path
         sodipodi:nodetypes="ccc"
         inkscape:connector-curvature="0"
         id="path4183"
         d="m 171.50594,227.67265 c 6.79036,9.72889 29.77125,11.70648 36.924,-2.87307 -8.39629,-11.53515 -30.38554,-9.46752 -36.924,2.87307 z"
         style="fill:#778948;fill-opacity:1;fill-rule:evenodd;stroke:none;stroke-width:1px;stroke-linecap:butt;stroke-linejoin:miter;stroke-opacity:1" />
      <path
         style="fill:#778948;fill-opacity:1;fill-rule:evenodd;stroke:none;stroke-width:1px;stroke-linecap:butt;stroke-linejoin:miter;stroke-opacity:1"
         d="m 217.04956,268.4346 c -6.78571,9.73214 -0.70621,31.98235 15.44644,33.66072 7.92633,-11.863 -1.60715,-31.78572 -15.44644,-33.66072 z"
         id="path4185"
         inkscape:connector-curvature="0"
         sodipodi:nodetypes="ccc" />
      <path
         sodipodi:nodetypes="ccc"
         inkscape:connector-curvature="0"
         id="path4187"
         d="m 203.35275,334.9244 c 6.94843,9.61664 29.95856,11.21847 36.87213,-3.47601 -8.58365,-11.39642 -30.53618,-8.96976 -36.87213,3.47601 z"
         style="fill:#778948;fill-opacity:1;fill-rule:evenodd;stroke:none;stroke-width:1px;stroke-linecap:butt;stroke-linejoin:miter;stroke-opacity:1" />
      <path
         style="fill:#778948;fill-opacity:1;fill-rule:evenodd;stroke:none;stroke-width:1px;stroke-linecap:butt;stroke-linejoin:miter;stroke-opacity:1"
         d="m 315.53944,299.37053 c -6.78571,9.73214 -0.70621,31.98235 15.44644,33.66072 7.92633,-11.863 -1.60715,-31.78572 -15.44644,-33.66072 z"
         id="path4189"
         inkscape:connector-curvature="0"
         sodipodi:nodetypes="ccc" />
      <path
         sodipodi:nodetypes="ccc"
         inkscape:connector-curvature="0"
         id="path4191"
         d="m 315.53944,299.37053 c -6.78571,9.73214 -0.70621,31.98235 15.44644,33.66072 7.92633,-11.863 -1.60715,-31.78572 -15.44644,-33.66072 z"
         style="fill:#778948;fill-opacity:1;fill-rule:evenodd;stroke:none;stroke-width:1px;stroke-linecap:butt;stroke-linejoin:miter;stroke-opacity:1" />
      <path
         style="fill:#778948;fill-opacity:1;fill-rule:evenodd;stroke:none;stroke-width:1px;stroke-linecap:butt;stroke-linejoin:miter;stroke-opacity:1"
         d="m 276.14163,351.4842 c 3.07981,11.45754 24.02077,21.12752 35.70266,9.84664 -3.97629,-13.70207 -25.3594,-19.23059 -35.70266,-9.84664 z"
         id="path4193"
         inkscape:connector-curvature="0"
         sodipodi:nodetypes="ccc" />
      <path
         sodipodi:nodetypes="ccc"
         inkscape:connector-curvature="0"
         id="path4195"
         d="m 225.90643,375.7605 c -11.00957,4.42151 -18.11861,26.36448 -5.52762,36.62079 13.13146,-5.57874 16.07585,-27.46784 5.52762,-36.62079 z"
         style="fill:#778948;fill-opacity:1;fill-rule:evenodd;stroke:none;stroke-width:1px;stroke-linecap:butt;stroke-linejoin:miter;stroke-opacity:1" />
      <path
         style="fill:#778948;fill-opacity:1;fill-rule:evenodd;stroke:none;stroke-width:1px;stroke-linecap:butt;stroke-linejoin:miter;stroke-opacity:1"
         d="m 276.9576,383.41909 c -5.39921,10.56451 3.64959,31.78128 19.88043,31.24748 6.23946,-12.83069 -5.91472,-31.27189 -19.88043,-31.24748 z"
         id="path4197"
         inkscape:connector-curvature="0"
         sodipodi:nodetypes="ccc" />
      <path
         sodipodi:nodetypes="ccc"
         inkscape:connector-curvature="0"
         id="path4199"
         d="m 434.07664,303.80302 c 8.17886,8.59458 31.19534,7.08664 36.06945,-8.40426 -10.03863,-10.13821 -31.46522,-4.78068 -36.06945,8.40426 z"
         style="fill:#778948;fill-opacity:1;fill-rule:evenodd;stroke:none;stroke-width:1px;stroke-linecap:butt;stroke-linejoin:miter;stroke-opacity:1" />
      <path
         style="fill:#778948;fill-opacity:1;fill-rule:evenodd;stroke:none;stroke-width:1px;stroke-linecap:butt;stroke-linejoin:miter;stroke-opacity:1"
         d="m 537.15083,303.45733 c -11.03977,-4.34555 -31.27532,6.7249 -29.16463,22.82676 13.37695,4.96131 30.54791,-8.9297 29.16463,-22.82676 z"
         id="path4201"
         inkscape:connector-curvature="0"
         sodipodi:nodetypes="ccc" />
      <path
         sodipodi:nodetypes="ccc"
         inkscape:connector-curvature="0"
         id="path4203"
         d="m 497.56356,254.20118 c 2.38615,11.62182 22.70855,22.53201 35.04686,11.97307 -3.14621,-13.91614 -24.15869,-20.7189 -35.04686,-11.97307 z"
         style="fill:#778948;fill-opacity:1;fill-rule:evenodd;stroke:none;stroke-width:1px;stroke-linecap:butt;stroke-linejoin:miter;stroke-opacity:1" />
      <path
         style="fill:#778948;fill-opacity:1;fill-rule:evenodd;stroke:none;stroke-width:1px;stroke-linecap:butt;stroke-linejoin:miter;stroke-opacity:1"
         d="m 516.93596,382.90072 c -11.84819,-0.61709 -27.52399,16.30335 -20.41204,30.90284 14.25996,0.45923 26.13445,-18.16331 20.41204,-30.90284 z"
         id="path4205"
         inkscape:connector-curvature="0"
         sodipodi:nodetypes="ccc" />
      <path
         sodipodi:nodetypes="ccc"
         inkscape:connector-curvature="0"
         id="path4207"
         d="m 552.17132,351.89445 c -10.39525,5.71831 -14.80319,28.35903 -1.06608,37.02026 12.3619,-7.12325 12.64216,-29.20771 1.06608,-37.02026 z"
         style="fill:#778948;fill-opacity:1;fill-rule:evenodd;stroke:none;stroke-width:1px;stroke-linecap:butt;stroke-linejoin:miter;stroke-opacity:1" />
      <path
         style="fill:#778948;fill-opacity:1;fill-rule:evenodd;stroke:none;stroke-width:1px;stroke-linecap:butt;stroke-linejoin:miter;stroke-opacity:1"
         d="m 588.06118,381.28396 c -6.36924,10.00966 0.64322,31.98368 16.85229,32.97935 7.41897,-12.18673 -2.94624,-31.68967 -16.85229,-32.97935 z"
         id="path4209"
         inkscape:connector-curvature="0"
         sodipodi:nodetypes="ccc" />
      <path
         sodipodi:nodetypes="ccc"
         inkscape:connector-curvature="0"
         id="path4211"
         d="m 562.51724,313.36021 c 8.76934,7.99119 31.62031,4.85033 35.38049,-10.94797 -10.73416,-9.39869 -31.72553,-2.53101 -35.38049,10.94797 z"
         style="fill:#778948;fill-opacity:1;fill-rule:evenodd;stroke:none;stroke-width:1px;stroke-linecap:butt;stroke-linejoin:miter;stroke-opacity:1" />
      <path
         style="fill:#778948;fill-opacity:1;fill-rule:evenodd;stroke:none;stroke-width:1px;stroke-linecap:butt;stroke-linejoin:miter;stroke-opacity:1"
         d="m 581.62597,213.91776 c -11.27886,-3.6807 -30.81955,8.57466 -27.75413,24.52233 13.64855,4.15623 29.9622,-10.73225 27.75413,-24.52233 z"
         id="path4213"
         inkscape:connector-curvature="0"
         sodipodi:nodetypes="ccc" />
      <path
         sodipodi:nodetypes="ccc"
         inkscape:connector-curvature="0"
         id="path4215"
         d="m 555.75806,175.19586 c -10.30008,-5.888 -31.91732,2.15733 -32.14416,18.39536 12.52443,6.83345 31.51455,-4.44383 32.14416,-18.39536 z"
         style="fill:#778948;fill-opacity:1;fill-rule:evenodd;stroke:none;stroke-width:1px;stroke-linecap:butt;stroke-linejoin:miter;stroke-opacity:1" />
      <path
         style="fill:#778948;fill-opacity:1;fill-rule:evenodd;stroke:none;stroke-width:1px;stroke-linecap:butt;stroke-linejoin:miter;stroke-opacity:1"
         d="m 399.46959,174.85279 c -10.0652,-6.28108 -31.97677,0.92409 -32.83004,17.14127 12.25141,7.31166 31.66256,-3.22444 32.83004,-17.14127 z"
         id="path4217"
         inkscape:connector-curvature="0"
         sodipodi:nodetypes="ccc" />
    </g>
    <g
       inkscape:groupmode="layer"
       id="layer7"
       inkscape:label="orange"
       sodipodi:insensitive="true">
      <path
         style="fill:#f79803;fill-opacity:1;fill-rule:evenodd;stroke:none;stroke-width:1px;stroke-linecap:butt;stroke-linejoin:miter;stroke-opacity:1"
         d="m 392.73052,106.0481 c -8.25225,8.52413 -5.80255,31.4595 9.87505,35.69482 9.7184,-10.44559 3.48747,-31.63468 -9.87505,-35.69482 z"
         id="path4220"
         inkscape:connector-curvature="0"
         sodipodi:nodetypes="ccc" />
      <path
         sodipodi:nodetypes="ccc"
         inkscape:connector-curvature="0"
         id="path4223"
         d="m 392.73052,106.0481 c -8.25225,8.52413 -5.80255,31.4595 9.87505,35.69482 9.7184,-10.44559 3.48747,-31.63468 -9.87505,-35.69482 z"
         style="fill:#f79803;fill-opacity:1;fill-rule:evenodd;stroke:none;stroke-width:1px;stroke-linecap:butt;stroke-linejoin:miter;stroke-opacity:1" />
      <path
         style="fill:#f79803;fill-opacity:1;fill-rule:evenodd;stroke:none;stroke-width:1px;stroke-linecap:butt;stroke-linejoin:miter;stroke-opacity:1"
         d="m 482.43568,82.557251 c -11.79748,1.25691 -24.61234,20.435329 -15.28949,33.732309 14.15429,-1.7927 22.94716,-22.053195 15.28949,-33.732309 z"
         id="path4253"
         inkscape:connector-curvature="0"
         sodipodi:nodetypes="ccc" />
      <path
         sodipodi:nodetypes="ccc"
         inkscape:connector-curvature="0"
         id="path4255"
         d="m 585.59744,155.75807 c -8.67616,-8.09225 -31.562,-5.21631 -35.50493,10.53737 10.62457,9.5224 31.69408,2.89836 35.50493,-10.53737 z"
         style="fill:#f79803;fill-opacity:1;fill-rule:evenodd;stroke:none;stroke-width:1px;stroke-linecap:butt;stroke-linejoin:miter;stroke-opacity:1" />
      <path
         style="fill:#f79803;fill-opacity:1;fill-rule:evenodd;stroke:none;stroke-width:1px;stroke-linecap:butt;stroke-linejoin:miter;stroke-opacity:1"
         d="m 460.55432,154.81642 c -10.60789,5.3135 -15.88499,27.76755 -2.49184,36.95169 12.62722,-6.64161 13.75828,-28.69887 2.49184,-36.95169 z"
         id="path4257"
         inkscape:connector-curvature="0"
         sodipodi:nodetypes="ccc" />
      <path
         sodipodi:nodetypes="ccc"
         inkscape:connector-curvature="0"
         id="path4259"
         d="m 521.31333,198.50896 c -11.23904,-3.80056 -30.90909,8.24608 -28.01361,24.22549 13.60355,4.30129 30.07476,-10.41269 28.01361,-24.22549 z"
         style="fill:#f79803;fill-opacity:1;fill-rule:evenodd;stroke:none;stroke-width:1px;stroke-linecap:butt;stroke-linejoin:miter;stroke-opacity:1" />
      <path
         style="fill:#f79803;fill-opacity:1;fill-rule:evenodd;stroke:none;stroke-width:1px;stroke-linecap:butt;stroke-linejoin:miter;stroke-opacity:1"
         d="m 584.89957,225.81491 c 5.86677,10.3122 28.56836,14.39509 37.03175,0.53521 -7.29976,-12.25851 -29.38597,-12.22212 -37.03175,-0.53521 z"
         id="path4261"
         inkscape:connector-curvature="0"
         sodipodi:nodetypes="ccc" />
      <path
         sodipodi:nodetypes="ccc"
         inkscape:connector-curvature="0"
         id="path4263"
         d="m 410.96866,199.85792 c -0.24654,11.86169 17.15549,27.00109 31.52561,19.43638 0.0134,-14.26736 -18.97112,-25.5541 -31.52561,-19.43638 z"
         style="fill:#f79803;fill-opacity:1;fill-rule:evenodd;stroke:none;stroke-width:1px;stroke-linecap:butt;stroke-linejoin:miter;stroke-opacity:1" />
      <path
         style="fill:#f79803;fill-opacity:1;fill-rule:evenodd;stroke:none;stroke-width:1px;stroke-linecap:butt;stroke-linejoin:miter;stroke-opacity:1"
         d="m 331.77572,155.08764 c -9.10201,7.61011 -9.07511,30.67591 6.07085,36.53466 10.76189,-9.36693 6.79125,-31.09332 -6.07085,-36.53466 z"
         id="path4265"
         inkscape:connector-curvature="0"
         sodipodi:nodetypes="ccc" />
      <path
         sodipodi:nodetypes="ccc"
         inkscape:connector-curvature="0"
         id="path4267"
         d="m 285.0561,124.97729 c -8.94135,7.79825 -8.43348,30.85848 6.83135,36.40013 10.56423,-9.5893 6.14141,-31.22817 -6.83135,-36.40013 z"
         style="fill:#f79803;fill-opacity:1;fill-rule:evenodd;stroke:none;stroke-width:1px;stroke-linecap:butt;stroke-linejoin:miter;stroke-opacity:1" />
      <path
         style="fill:#f79803;fill-opacity:1;fill-rule:evenodd;stroke:none;stroke-width:1px;stroke-linecap:butt;stroke-linejoin:miter;stroke-opacity:1"
         d="m 208.40864,154.12598 c 1.92864,11.70644 21.80763,23.40506 34.55045,13.338 -2.59815,-14.02879 -23.32775,-21.6502 -34.55045,-13.338 z"
         id="path4269"
         inkscape:connector-curvature="0"
         sodipodi:nodetypes="ccc" />
      <path
         sodipodi:nodetypes="ccc"
         inkscape:connector-curvature="0"
         id="path4271"
         d="m 270.63705,234.23634 c 4.59714,10.9374 26.65107,17.69435 36.70456,4.94083 -5.78818,-13.04049 -27.7216,-15.6342 -36.70456,-4.94083 z"
         style="fill:#f79803;fill-opacity:1;fill-rule:evenodd;stroke:none;stroke-width:1px;stroke-linecap:butt;stroke-linejoin:miter;stroke-opacity:1" />
      <path
         style="fill:#f79803;fill-opacity:1;fill-rule:evenodd;stroke:none;stroke-width:1px;stroke-linecap:butt;stroke-linejoin:miter;stroke-opacity:1"
         d="m 241.19931,242.49539 c -10.43515,5.64517 -15.00199,28.25438 -1.32604,37.01187 12.41163,-7.03627 12.84698,-29.11822 1.32604,-37.01187 z"
         id="path4273"
         inkscape:connector-curvature="0"
         sodipodi:nodetypes="ccc" />
      <path
         sodipodi:nodetypes="ccc"
         inkscape:connector-curvature="0"
         id="path4275"
         d="m 299.35413,292.42526 c -9.99859,6.38659 -12.91486,29.26732 1.35981,37.01064 11.86905,-7.91727 10.70291,-29.97271 -1.35981,-37.01064 z"
         style="fill:#f79803;fill-opacity:1;fill-rule:evenodd;stroke:none;stroke-width:1px;stroke-linecap:butt;stroke-linejoin:miter;stroke-opacity:1" />
      <path
         style="fill:#f79803;fill-opacity:1;fill-rule:evenodd;stroke:none;stroke-width:1px;stroke-linecap:butt;stroke-linejoin:miter;stroke-opacity:1"
         d="m 168.26007,316.75471 c 3.9436,11.18966 25.56029,19.23645 36.34897,7.09851 -5.00845,-13.35938 -26.75055,-17.24306 -36.34897,-7.09851 z"
         id="path4277"
         inkscape:connector-curvature="0"
         sodipodi:nodetypes="ccc" />
      <path
         sodipodi:nodetypes="ccc"
         inkscape:connector-curvature="0"
         id="path4279"
         d="m 242.26795,393.58504 c -10.09352,6.2355 -13.35359,29.06977 0.803,37.02691 11.98679,-7.73786 11.1525,-29.80834 -0.803,-37.02691 z"
         style="fill:#f79803;fill-opacity:1;fill-rule:evenodd;stroke:none;stroke-width:1px;stroke-linecap:butt;stroke-linejoin:miter;stroke-opacity:1" />
      <path
         style="fill:#f79803;fill-opacity:1;fill-rule:evenodd;stroke:none;stroke-width:1px;stroke-linecap:butt;stroke-linejoin:miter;stroke-opacity:1"
         d="m 409.57805,252.87824 c -8.78032,7.97912 -7.8019,31.02418 7.57286,36.25312 10.36631,-9.80292 5.50276,-31.34701 -7.57286,-36.25312 z"
         id="path4281"
         inkscape:connector-curvature="0"
         sodipodi:nodetypes="ccc" />
      <path
         sodipodi:nodetypes="ccc"
         inkscape:connector-curvature="0"
         id="path4283"
         d="m 478.79091,300.60438 c -11.86057,0.29519 -26.1898,18.37018 -17.977,32.37999 14.2531,-0.63792 24.66145,-20.11786 17.977,-32.37999 z"
         style="fill:#f79803;fill-opacity:1;fill-rule:evenodd;stroke:none;stroke-width:1px;stroke-linecap:butt;stroke-linejoin:miter;stroke-opacity:1" />
      <path
         style="fill:#f79803;fill-opacity:1;fill-rule:evenodd;stroke:none;stroke-width:1px;stroke-linecap:butt;stroke-linejoin:miter;stroke-opacity:1"
         d="m 577.25388,268.97445 c -11.85509,0.4661 -25.92233,18.74573 -17.50846,32.63572 14.24242,-0.84327 24.36894,-20.4712 17.50846,-32.63572 z"
         id="path4285"
         inkscape:connector-curvature="0"
         sodipodi:nodetypes="ccc" />
      <path
         sodipodi:nodetypes="ccc"
         inkscape:connector-curvature="0"
         id="path4287"
         d="m 537.01673,348.24386 c -11.84739,-0.63222 -27.5448,16.26818 -20.4515,30.87674 14.25937,0.47744 26.15764,-18.12991 20.4515,-30.87674 z"
         style="fill:#f79803;fill-opacity:1;fill-rule:evenodd;stroke:none;stroke-width:1px;stroke-linecap:butt;stroke-linejoin:miter;stroke-opacity:1" />
      <path
         style="fill:#f79803;fill-opacity:1;fill-rule:evenodd;stroke:none;stroke-width:1px;stroke-linecap:butt;stroke-linejoin:miter;stroke-opacity:1"
         d="m 618.32216,354.2746 c -4.39523,-11.02009 -26.32116,-18.18148 -36.6075,-5.615 5.54739,13.14473 27.4294,16.14136 36.6075,5.615 z"
         id="path4289"
         inkscape:connector-curvature="0"
         sodipodi:nodetypes="ccc" />
    </g>
    <g
       inkscape:groupmode="layer"
       id="layer8"
       inkscape:label="blue"
       sodipodi:insensitive="true">
      <path
         style="fill:#128fcb;fill-opacity:1;fill-rule:evenodd;stroke:none;stroke-width:1px;stroke-linecap:butt;stroke-linejoin:miter;stroke-opacity:1"
         d="m 404.70693,52.084115 c -11.56511,2.647393 -22.01465,23.210453 -11.1804,35.307727 13.84173,-3.458956 20.16933,-24.619379 11.1804,-35.307727 z"
         id="path4293"
         inkscape:connector-curvature="0"
         sodipodi:nodetypes="ccc" />
      <path
         sodipodi:nodetypes="ccc"
         inkscape:connector-curvature="0"
         id="path4297"
         d="m 251.57053,114.71457 c -5.12328,10.70105 4.47296,31.6759 20.68448,30.72115 5.90446,-12.98827 -6.7241,-31.10791 -20.68448,-30.72115 z"
         style="fill:#128fcb;fill-opacity:1;fill-rule:evenodd;stroke:none;stroke-width:1px;stroke-linecap:butt;stroke-linejoin:miter;stroke-opacity:1" />
      <path
         style="fill:#128fcb;fill-opacity:1;fill-rule:evenodd;stroke:none;stroke-width:1px;stroke-linecap:butt;stroke-linejoin:miter;stroke-opacity:1"
         d="m 308.8955,119.41542 c -6.07262,10.19234 1.58194,31.95102 17.81324,32.47038 7.058,-12.39929 -3.87532,-31.58952 -17.81324,-32.47038 z"
         id="path4299"
         inkscape:connector-curvature="0"
         sodipodi:nodetypes="ccc" />
      <path
         sodipodi:nodetypes="ccc"
         inkscape:connector-curvature="0"
         id="path4301"
         d="m 380.20602,111.32906 c -11.42676,3.19214 -20.89072,24.22701 -9.49571,35.79761 13.66239,-4.11062 18.98074,-25.54696 9.49571,-35.79761 z"
         style="fill:#128fcb;fill-opacity:1;fill-rule:evenodd;stroke:none;stroke-width:1px;stroke-linecap:butt;stroke-linejoin:miter;stroke-opacity:1" />
      <path
         style="fill:#128fcb;fill-opacity:1;fill-rule:evenodd;stroke:none;stroke-width:1px;stroke-linecap:butt;stroke-linejoin:miter;stroke-opacity:1"
         d="m 456.97582,110.95863 c -10.69432,5.1373 -16.34214,27.50099 -3.10275,36.90542 12.73536,-6.43184 14.23113,-28.46737 3.10275,-36.90542 z"
         id="path4303"
         inkscape:connector-curvature="0"
         sodipodi:nodetypes="ccc" />
      <path
         sodipodi:nodetypes="ccc"
         inkscape:connector-curvature="0"
         id="path4305"
         d="m 506.80974,124.86461 c -10.95576,4.5532 -17.80119,26.57983 -5.08813,36.68444 13.06363,-5.7358 15.74535,-27.65863 5.08813,-36.68444 z"
         style="fill:#128fcb;fill-opacity:1;fill-rule:evenodd;stroke:none;stroke-width:1px;stroke-linecap:butt;stroke-linejoin:miter;stroke-opacity:1" />
      <path
         style="fill:#128fcb;fill-opacity:1;fill-rule:evenodd;stroke:none;stroke-width:1px;stroke-linecap:butt;stroke-linejoin:miter;stroke-opacity:1"
         d="m 548.65825,140.65967 c -11.86426,-0.003 -26.64363,17.70558 -18.78582,31.91756 14.26464,-0.2792 25.1597,-19.49116 18.78582,-31.91756 z"
         id="path4307"
         inkscape:connector-curvature="0"
         sodipodi:nodetypes="ccc" />
      <path
         sodipodi:nodetypes="ccc"
         inkscape:connector-curvature="0"
         id="path4309"
         d="m 479.91327,188.6649 c -11.62632,-2.36416 -29.63414,12.0494 -24.76168,27.54082 14.0349,2.56504 28.53523,-14.09456 24.76168,-27.54082 z"
         style="fill:#128fcb;fill-opacity:1;fill-rule:evenodd;stroke:none;stroke-width:1px;stroke-linecap:butt;stroke-linejoin:miter;stroke-opacity:1" />
      <path
         style="fill:#128fcb;fill-opacity:1;fill-rule:evenodd;stroke:none;stroke-width:1px;stroke-linecap:butt;stroke-linejoin:miter;stroke-opacity:1"
         d="m 400.54556,166.64916 c -3.14781,11.43905 10.01029,30.38362 25.79669,26.57382 3.5117,-13.82844 -12.12532,-29.42605 -25.79669,-26.57382 z"
         id="path4311"
         inkscape:connector-curvature="0"
         sodipodi:nodetypes="ccc" />
      <path
         sodipodi:nodetypes="ccc"
         inkscape:connector-curvature="0"
         id="path4313"
         d="m 361.83178,175.93283 c -11.82489,0.96571 -25.10863,19.82239 -16.11641,33.34515 14.19419,-1.44324 23.48385,-21.48081 16.11641,-33.34515 z"
         style="fill:#128fcb;fill-opacity:1;fill-rule:evenodd;stroke:none;stroke-width:1px;stroke-linecap:butt;stroke-linejoin:miter;stroke-opacity:1" />
      <path
         style="fill:#128fcb;fill-opacity:1;fill-rule:evenodd;stroke:none;stroke-width:1px;stroke-linecap:butt;stroke-linejoin:miter;stroke-opacity:1"
         d="m 293.68219,171.61044 c -7.93525,8.81999 -4.64911,31.65053 11.17278,35.31014 9.33022,-10.79374 2.32918,-31.74099 -11.17278,-35.31014 z"
         id="path4315"
         inkscape:connector-curvature="0"
         sodipodi:nodetypes="ccc" />
      <path
         sodipodi:nodetypes="ccc"
         inkscape:connector-curvature="0"
         id="path4317"
         d="m 235.11759,176.38484 c 1.51307,11.76737 20.96553,24.1623 34.0567,14.55261 -2.09997,-14.11198 -22.54681,-22.46236 -34.0567,-14.55261 z"
         style="fill:#128fcb;fill-opacity:1;fill-rule:evenodd;stroke:none;stroke-width:1px;stroke-linecap:butt;stroke-linejoin:miter;stroke-opacity:1" />
      <path
         style="fill:#128fcb;fill-opacity:1;fill-rule:evenodd;stroke:none;stroke-width:1px;stroke-linecap:butt;stroke-linejoin:miter;stroke-opacity:1"
         d="m 208.49642,233.98705 c -6.14732,10.14746 1.34721,31.96178 17.57426,32.60035 7.14888,-12.34712 -3.64318,-31.61713 -17.57426,-32.60035 z"
         id="path4319"
         inkscape:connector-curvature="0"
         sodipodi:nodetypes="ccc" />
      <path
         sodipodi:nodetypes="ccc"
         inkscape:connector-curvature="0"
         id="path4321"
         d="m 243.46843,223.29303 c -3.92671,11.1956 7.89798,30.99987 23.90893,28.28427 4.45399,-13.55433 -10.07383,-30.18996 -23.90893,-28.28427 z"
         style="fill:#128fcb;fill-opacity:1;fill-rule:evenodd;stroke:none;stroke-width:1px;stroke-linecap:butt;stroke-linejoin:miter;stroke-opacity:1" />
      <path
         style="fill:#128fcb;fill-opacity:1;fill-rule:evenodd;stroke:none;stroke-width:1px;stroke-linecap:butt;stroke-linejoin:miter;stroke-opacity:1"
         d="m 315.45311,256.51755 c -11.43878,-3.14878 -30.38446,10.00774 -26.57598,25.79445 13.82814,3.51287 29.42707,-12.12284 26.57598,-25.79445 z"
         id="path4323"
         inkscape:connector-curvature="0"
         sodipodi:nodetypes="ccc" />
      <path
         sodipodi:nodetypes="ccc"
         inkscape:connector-curvature="0"
         id="path4325"
         d="m 403.0913,243.6172 c -3.27711,-11.40267 -24.38185,-20.70979 -35.8673,-9.22897 4.2122,13.63141 25.68754,18.79005 35.8673,9.22897 z"
         style="fill:#128fcb;fill-opacity:1;fill-rule:evenodd;stroke:none;stroke-width:1px;stroke-linecap:butt;stroke-linejoin:miter;stroke-opacity:1" />
      <path
         style="fill:#128fcb;fill-opacity:1;fill-rule:evenodd;stroke:none;stroke-width:1px;stroke-linecap:butt;stroke-linejoin:miter;stroke-opacity:1"
         d="m 488.04899,288.8532 c -1.53844,-11.76409 -21.01758,-24.11705 -34.088,-14.47914 2.1304,14.10742 22.59519,22.41368 34.088,14.47914 z"
         id="path4327"
         inkscape:connector-curvature="0"
         sodipodi:nodetypes="ccc" />
      <path
         sodipodi:nodetypes="ccc"
         inkscape:connector-curvature="0"
         id="path4329"
         d="m 526.03129,273.13706 c -11.86054,-0.29679 -27.07354,17.04095 -19.56978,31.44298 14.26718,0.0738 25.63425,-18.86268 19.56978,-31.44298 z"
         style="fill:#128fcb;fill-opacity:1;fill-rule:evenodd;stroke:none;stroke-width:1px;stroke-linecap:butt;stroke-linejoin:miter;stroke-opacity:1" />
      <path
         style="fill:#128fcb;fill-opacity:1;fill-rule:evenodd;stroke:none;stroke-width:1px;stroke-linecap:butt;stroke-linejoin:miter;stroke-opacity:1"
         d="m 545.52166,198.79868 c -11.60486,-2.46736 -29.74002,11.78565 -25.00537,27.31974 14.01156,2.68964 28.65932,-13.84049 25.00537,-27.31974 z"
         id="path4331"
         inkscape:connector-curvature="0"
         sodipodi:nodetypes="ccc" />
      <path
         sodipodi:nodetypes="ccc"
         inkscape:connector-curvature="0"
         id="path4333"
         d="m 585.33811,234.67729 c -11.86373,-0.11258 -26.80566,17.45931 -19.07915,31.74308 14.26661,-0.14772 25.33825,-19.25848 19.07915,-31.74308 z"
         style="fill:#128fcb;fill-opacity:1;fill-rule:evenodd;stroke:none;stroke-width:1px;stroke-linecap:butt;stroke-linejoin:miter;stroke-opacity:1" />
      <path
         style="fill:#128fcb;fill-opacity:1;fill-rule:evenodd;stroke:none;stroke-width:1px;stroke-linecap:butt;stroke-linejoin:miter;stroke-opacity:1"
         d="m 589.60023,334.19001 c -5.31874,-10.60526 -27.77539,-15.8713 -36.95292,-2.47362 6.64784,12.62395 28.70565,13.74413 36.95292,2.47362 z"
         id="path4335"
         inkscape:connector-curvature="0"
         sodipodi:nodetypes="ccc" />
      <path
         sodipodi:nodetypes="ccc"
         inkscape:connector-curvature="0"
         id="path4337"
         d="m 618.16498,285.74781 c -6.14754,-10.14732 -28.95263,-13.6057 -37.03249,0.4812 7.63341,12.05359 29.7103,11.41112 37.03249,-0.4812 z"
         style="fill:#128fcb;fill-opacity:1;fill-rule:evenodd;stroke:none;stroke-width:1px;stroke-linecap:butt;stroke-linejoin:miter;stroke-opacity:1" />
      <path
         style="fill:#128fcb;fill-opacity:1;fill-rule:evenodd;stroke:none;stroke-width:1px;stroke-linecap:butt;stroke-linejoin:miter;stroke-opacity:1"
         d="m 567.46157,375.13554 c -9.00817,7.72097 -8.69893,30.78472 6.51761,36.45762 10.64643,-9.49797 6.41013,-31.17412 -6.51761,-36.45762 z"
         id="path4339"
         inkscape:connector-curvature="0"
         sodipodi:nodetypes="ccc" />
      <path
         sodipodi:nodetypes="ccc"
         inkscape:connector-curvature="0"
         id="path4341"
         d="m 505.55065,374.671 c -10.00454,-6.37728 -31.9842,0.6175 -32.99289,16.82575 12.18077,7.42878 31.69203,-2.92074 32.99289,-16.82575 z"
         style="fill:#128fcb;fill-opacity:1;fill-rule:evenodd;stroke:none;stroke-width:1px;stroke-linecap:butt;stroke-linejoin:miter;stroke-opacity:1" />
      <path
         style="fill:#128fcb;fill-opacity:1;fill-rule:evenodd;stroke:none;stroke-width:1px;stroke-linecap:butt;stroke-linejoin:miter;stroke-opacity:1"
         d="m 364.25444,344.99412 c 5.30938,-10.60995 -3.91909,-31.74919 -20.14481,-31.07771 -6.13039,12.88318 6.17981,31.2206 20.14481,31.07771 z"
         id="path4343"
         inkscape:connector-curvature="0"
         sodipodi:nodetypes="ccc" />
      <path
         sodipodi:nodetypes="ccc"
         inkscape:connector-curvature="0"
         id="path4345"
         d="m 286.43458,325.76375 c 1.02352,-11.82002 -15.34872,-28.06754 -30.18378,-21.46105 -0.94857,14.23581 17.25528,26.74268 30.18378,21.46105 z"
         style="fill:#128fcb;fill-opacity:1;fill-rule:evenodd;stroke:none;stroke-width:1px;stroke-linecap:butt;stroke-linejoin:miter;stroke-opacity:1" />
      <path
         style="fill:#128fcb;fill-opacity:1;fill-rule:evenodd;stroke:none;stroke-width:1px;stroke-linecap:butt;stroke-linejoin:miter;stroke-opacity:1"
         d="m 230.35504,314.55981 c -2.30376,-11.63844 -22.54834,-22.69235 -34.96115,-12.22109 3.04753,13.93809 24.01129,20.88955 34.96115,12.22109 z"
         id="path4347"
         inkscape:connector-curvature="0"
         sodipodi:nodetypes="ccc" />
      <path
         sodipodi:nodetypes="ccc"
         inkscape:connector-curvature="0"
         id="path4349"
         d="m 211.7741,347.49816 c -8.05456,-8.71117 -31.09033,-7.53404 -36.18646,7.88525 9.89197,10.28138 31.39331,5.2322 36.18646,-7.88525 z"
         style="fill:#128fcb;fill-opacity:1;fill-rule:evenodd;stroke:none;stroke-width:1px;stroke-linecap:butt;stroke-linejoin:miter;stroke-opacity:1" />
      <path
         style="fill:#128fcb;fill-opacity:1;fill-rule:evenodd;stroke:none;stroke-width:1px;stroke-linecap:butt;stroke-linejoin:miter;stroke-opacity:1"
         d="m 206.01312,381.94381 c -11.86348,-0.13504 -26.83866,17.40852 -19.13922,31.70689 14.26686,-0.12071 25.37467,-19.21046 19.13922,-31.70689 z"
         id="path4351"
         inkscape:connector-curvature="0"
         sodipodi:nodetypes="ccc" />
      <path
         sodipodi:nodetypes="ccc"
         inkscape:connector-curvature="0"
         id="path4353"
         d="m 256.61635,377.22417 c -8.27745,8.49966 -5.89567,31.44219 9.76931,35.72391 9.7493,-10.41678 3.58113,-31.62422 -9.76931,-35.72391 z"
         style="fill:#128fcb;fill-opacity:1;fill-rule:evenodd;stroke:none;stroke-width:1px;stroke-linecap:butt;stroke-linejoin:miter;stroke-opacity:1" />
    </g>
    <g
       inkscape:groupmode="layer"
       id="layer9"
       inkscape:label="lime"
       sodipodi:insensitive="true">
      <path
         sodipodi:nodetypes="ccc"
         inkscape:connector-curvature="0"
         id="path4355"
         d="m 392.58882,102.72214 c 2.18161,-11.661953 -12.51248,-29.441605 -27.92561,-24.326885 -2.34473,14.073383 14.54016,28.310775 27.92561,24.326885 z"
         style="fill:#c5d30d;fill-opacity:1;fill-rule:evenodd;stroke:none;stroke-width:1px;stroke-linecap:butt;stroke-linejoin:miter;stroke-opacity:1" />
      <path
         style="fill:#c5d30d;fill-opacity:1;fill-rule:evenodd;stroke:none;stroke-width:1px;stroke-linecap:butt;stroke-linejoin:miter;stroke-opacity:1"
         d="m 438.76252,128.58105 c 9.57865,-7.00071 11.05513,-30.019238 -3.67679,-36.852658 -11.34951,8.645598 -8.80332,30.584598 3.67679,36.852658 z"
         id="path4359"
         inkscape:connector-curvature="0"
         sodipodi:nodetypes="ccc" />
      <path
         sodipodi:nodetypes="ccc"
         inkscape:connector-curvature="0"
         id="path4361"
         d="m 519.00931,144.56669 c 11.66734,2.15265 29.41046,-12.58551 24.2575,-27.9859 -14.07915,-2.3098 -28.27459,14.61037 -24.2575,27.9859 z"
         style="fill:#c5d30d;fill-opacity:1;fill-rule:evenodd;stroke:none;stroke-width:1px;stroke-linecap:butt;stroke-linejoin:miter;stroke-opacity:1" />
      <path
         style="fill:#c5d30d;fill-opacity:1;fill-rule:evenodd;stroke:none;stroke-width:1px;stroke-linecap:butt;stroke-linejoin:miter;stroke-opacity:1"
         d="m 551.89481,217.42115 c 11.85486,-0.47204 25.91294,-18.75872 17.49212,-32.64449 -14.242,0.85039 -24.35869,20.48341 -17.49212,32.64449 z"
         id="path4363"
         inkscape:connector-curvature="0"
         sodipodi:nodetypes="ccc" />
      <path
         sodipodi:nodetypes="ccc"
         inkscape:connector-curvature="0"
         id="path4365"
         d="m 488.29762,206.06159 c 11.60281,-2.47695 22.35378,-22.88403 11.6987,-35.1394 -13.89113,3.2549 -20.5294,24.31995 -11.6987,35.1394 z"
         style="fill:#c5d30d;fill-opacity:1;fill-rule:evenodd;stroke:none;stroke-width:1px;stroke-linecap:butt;stroke-linejoin:miter;stroke-opacity:1" />
      <path
         style="fill:#c5d30d;fill-opacity:1;fill-rule:evenodd;stroke:none;stroke-width:1px;stroke-linecap:butt;stroke-linejoin:miter;stroke-opacity:1"
         d="m 443.68917,173.86207 c 9.26578,-7.40983 9.74183,-30.47075 -5.27278,-36.65835 -10.96359,9.13004 -7.46761,30.93786 5.27278,36.65835 z"
         id="path4367"
         inkscape:connector-curvature="0"
         sodipodi:nodetypes="ccc" />
      <path
         sodipodi:nodetypes="ccc"
         inkscape:connector-curvature="0"
         id="path4369"
         d="m 374.45816,171.65553 c 11.80534,1.18077 28.26935,-14.97377 21.86089,-29.89545 -14.22191,-1.13798 -26.96999,16.8978 -21.86089,29.89545 z"
         style="fill:#c5d30d;fill-opacity:1;fill-rule:evenodd;stroke:none;stroke-width:1px;stroke-linecap:butt;stroke-linejoin:miter;stroke-opacity:1" />
      <path
         style="fill:#c5d30d;fill-opacity:1;fill-rule:evenodd;stroke:none;stroke-width:1px;stroke-linecap:butt;stroke-linejoin:miter;stroke-opacity:1"
         d="m 339.10009,149.25432 c 10.55451,-5.41876 15.60799,-27.92419 2.12414,-36.97465 -12.56053,6.76688 -13.47212,28.83432 -2.12414,36.97465 z"
         id="path4371"
         inkscape:connector-curvature="0"
         sodipodi:nodetypes="ccc" />
      <path
         sodipodi:nodetypes="ccc"
         inkscape:connector-curvature="0"
         id="path4373"
         d="m 280.46601,120.68877 c 5.01778,-10.75092 -4.7843,-31.630376 -20.98564,-30.516225 -5.77644,13.045705 7.02974,31.040275 20.98564,30.516225 z"
         style="fill:#c5d30d;fill-opacity:1;fill-rule:evenodd;stroke:none;stroke-width:1px;stroke-linecap:butt;stroke-linejoin:miter;stroke-opacity:1" />
      <path
         style="fill:#c5d30d;fill-opacity:1;fill-rule:evenodd;stroke:none;stroke-width:1px;stroke-linecap:butt;stroke-linejoin:miter;stroke-opacity:1"
         d="m 280.02004,191.84165 c 9.18539,-7.50926 9.4129,-30.57396 -5.66751,-36.5994 -10.86456,9.24766 -7.13378,31.01653 5.66751,36.5994 z"
         id="path4375"
         inkscape:connector-curvature="0"
         sodipodi:nodetypes="ccc" />
      <path
         style="fill:#c5d30d;fill-opacity:1;fill-rule:evenodd;stroke:none;stroke-width:1px;stroke-linecap:butt;stroke-linejoin:miter;stroke-opacity:1"
         d="m 337.32543,216.87129 c 4.2077,-11.09305 -7.11396,-31.18912 -23.18828,-28.87802 -4.7943,13.43772 9.30953,30.43433 23.18828,28.87802 z"
         id="path4377"
         inkscape:connector-curvature="0"
         sodipodi:nodetypes="ccc" />
      <path
         sodipodi:nodetypes="ccc"
         inkscape:connector-curvature="0"
         id="path4379"
         d="m 239.71382,238.59714 c 2.18161,-11.66195 -12.51248,-29.4416 -27.92561,-24.32688 -2.34473,14.07338 14.54016,28.31077 27.92561,24.32688 z"
         style="fill:#c5d30d;fill-opacity:1;fill-rule:evenodd;stroke:none;stroke-width:1px;stroke-linecap:butt;stroke-linejoin:miter;stroke-opacity:1" />
      <path
         style="fill:#c5d30d;fill-opacity:1;fill-rule:evenodd;stroke:none;stroke-width:1px;stroke-linecap:butt;stroke-linejoin:miter;stroke-opacity:1"
         d="m 211.70266,286.54643 c -5.65879,-10.42778 -28.27394,-14.9651 -37.01357,-1.27774 7.05245,12.40245 29.13497,12.80897 37.01357,1.27774 z"
         id="path4381"
         inkscape:connector-curvature="0"
         sodipodi:nodetypes="ccc" />
      <path
         sodipodi:nodetypes="ccc"
         inkscape:connector-curvature="0"
         id="path4383"
         d="m 243.90386,307.66773 c 11.78543,-1.36534 24.42339,-20.66079 14.97867,-33.87147 -14.13722,1.92277 -22.74342,22.26327 -14.97867,33.87147 z"
         style="fill:#c5d30d;fill-opacity:1;fill-rule:evenodd;stroke:none;stroke-width:1px;stroke-linecap:butt;stroke-linejoin:miter;stroke-opacity:1" />
      <path
         style="fill:#c5d30d;fill-opacity:1;fill-rule:evenodd;stroke:none;stroke-width:1px;stroke-linecap:butt;stroke-linejoin:miter;stroke-opacity:1"
         d="m 358.91864,304.85794 c -2.58586,-11.57902 -23.09307,-22.13775 -35.24778,-11.36798 3.3853,13.85993 24.51179,20.29996 35.24778,11.36798 z"
         id="path4385"
         inkscape:connector-curvature="0"
         sodipodi:nodetypes="ccc" />
      <path
         sodipodi:nodetypes="ccc"
         inkscape:connector-curvature="0"
         id="path4387"
         d="m 401.31508,229.04419 c 7.33504,-9.3251 2.54732,-31.88857 -13.48183,-34.49459 -8.59653,11.38672 -0.22648,31.82553 13.48183,34.49459 z"
         style="fill:#c5d30d;fill-opacity:1;fill-rule:evenodd;stroke:none;stroke-width:1px;stroke-linecap:butt;stroke-linejoin:miter;stroke-opacity:1" />
      <path
         style="fill:#c5d30d;fill-opacity:1;fill-rule:evenodd;stroke:none;stroke-width:1px;stroke-linecap:butt;stroke-linejoin:miter;stroke-opacity:1"
         d="m 522.29518,233.92706 c -7.38724,-9.28381 -30.44692,-9.81606 -36.67109,5.18343 9.10329,10.9858 30.91956,7.54298 36.67109,-5.18343 z"
         id="path4389"
         inkscape:connector-curvature="0"
         sodipodi:nodetypes="ccc" />
      <path
         sodipodi:nodetypes="ccc"
         inkscape:connector-curvature="0"
         id="path4391"
         d="m 552.82957,279.90935 c 10.0467,-6.31065 13.13627,-29.16862 -1.0793,-37.01988 -11.92872,7.82709 -10.92973,29.89074 1.0793,37.01988 z"
         style="fill:#c5d30d;fill-opacity:1;fill-rule:evenodd;stroke:none;stroke-width:1px;stroke-linecap:butt;stroke-linejoin:miter;stroke-opacity:1" />
      <path
         style="fill:#c5d30d;fill-opacity:1;fill-rule:evenodd;stroke:none;stroke-width:1px;stroke-linecap:butt;stroke-linejoin:miter;stroke-opacity:1"
         d="m 624.5205,316.25579 c -7.84384,-8.90139 -30.90117,-8.27574 -36.36476,7.01721 9.64313,10.51512 31.25914,5.9818 36.36476,-7.01721 z"
         id="path4393"
         inkscape:connector-curvature="0"
         sodipodi:nodetypes="ccc" />
      <path
         sodipodi:nodetypes="ccc"
         inkscape:connector-curvature="0"
         id="path4395"
         d="m 591.76382,376.13975 c 2.01072,-11.69262 -12.94197,-29.25534 -28.2786,-23.91562 -2.13853,14.10618 14.95289,28.09496 28.2786,23.91562 z"
         style="fill:#c5d30d;fill-opacity:1;fill-rule:evenodd;stroke:none;stroke-width:1px;stroke-linecap:butt;stroke-linejoin:miter;stroke-opacity:1" />
      <path
         style="fill:#c5d30d;fill-opacity:1;fill-rule:evenodd;stroke:none;stroke-width:1px;stroke-linecap:butt;stroke-linejoin:miter;stroke-opacity:1"
         d="m 526.59406,412.56469 c 11.47969,-2.99621 21.30207,-23.86612 10.10666,-35.62994 -13.7307,3.87629 -19.41497,25.21855 -10.10666,35.62994 z"
         id="path4397"
         inkscape:connector-curvature="0"
         sodipodi:nodetypes="ccc" />
      <path
         sodipodi:nodetypes="ccc"
         inkscape:connector-curvature="0"
         id="path4399"
         d="m 320.34054,391.84176 c -0.62482,-11.8478 -19.09121,-25.66896 -32.86727,-17.06983 1.03393,14.22985 20.79573,24.0926 32.86727,17.06983 z"
         style="fill:#c5d30d;fill-opacity:1;fill-rule:evenodd;stroke:none;stroke-width:1px;stroke-linecap:butt;stroke-linejoin:miter;stroke-opacity:1" />
      <path
         style="fill:#c5d30d;fill-opacity:1;fill-rule:evenodd;stroke:none;stroke-width:1px;stroke-linecap:butt;stroke-linejoin:miter;stroke-opacity:1"
         d="m 241.64545,389.16288 c 10.10992,-6.20887 13.43016,-29.03448 -0.70541,-37.0289 -12.00715,7.70624 -11.23103,29.77886 0.70541,37.0289 z"
         id="path4401"
         inkscape:connector-curvature="0"
         sodipodi:nodetypes="ccc" />
      <path
         sodipodi:nodetypes="ccc"
         inkscape:connector-curvature="0"
         id="path4403"
         d="m 197.30982,366.08257 c -10.99365,-4.46096 -31.34405,6.39693 -29.40214,22.52001 13.32426,5.10117 30.6398,-8.60923 29.40214,-22.52001 z"
         style="fill:#c5d30d;fill-opacity:1;fill-rule:evenodd;stroke:none;stroke-width:1px;stroke-linecap:butt;stroke-linejoin:miter;stroke-opacity:1" />
      <path
         style="fill:#c5d30d;fill-opacity:1;fill-rule:evenodd;stroke:none;stroke-width:1px;stroke-linecap:butt;stroke-linejoin:miter;stroke-opacity:1"
         d="m 428.1986,342.96152 c 11.78297,1.38643 28.52615,-14.47857 22.37886,-29.50972 -14.19991,-1.38579 -27.26053,16.42496 -22.37886,29.50972 z"
         id="path4405"
         inkscape:connector-curvature="0"
         sodipodi:nodetypes="ccc" />
      <path
         sodipodi:nodetypes="ccc"
         inkscape:connector-curvature="0"
         id="path4407"
         d="m 371.93107,282.1651 c 11.56646,2.64151 29.9138,-11.33731 25.41318,-26.94081 -13.96954,-2.89995 -28.86412,13.40815 -25.41318,26.94081 z"
         style="fill:#c5d30d;fill-opacity:1;fill-rule:evenodd;stroke:none;stroke-width:1px;stroke-linecap:butt;stroke-linejoin:miter;stroke-opacity:1" />
      <path
         style="fill:#c5d30d;fill-opacity:1;fill-rule:evenodd;stroke:none;stroke-width:1px;stroke-linecap:butt;stroke-linejoin:miter;stroke-opacity:1"
         d="m 493.14894,328.6635 c 10.2721,-5.9367 14.20066,-28.66551 0.2836,-37.03453 -12.20865,7.38287 -12.02219,29.46834 -0.2836,37.03453 z"
         id="path4409"
         inkscape:connector-curvature="0"
         sodipodi:nodetypes="ccc" />
    </g>
    <g
       inkscape:groupmode="layer"
       id="layer10"
       inkscape:label="yellow"
       sodipodi:insensitive="true">
      <path
         style="fill:#fce30c;fill-opacity:1;fill-rule:evenodd;stroke:none;stroke-width:1px;stroke-linecap:butt;stroke-linejoin:miter;stroke-opacity:1"
         d="m 342.53317,105.41163 c 10.08471,-6.249731 13.31257,-29.088585 -0.85523,-37.025742 -11.97588,7.754758 -11.11044,29.824055 0.85523,37.025742 z"
         id="path4411"
         inkscape:connector-curvature="0"
         sodipodi:nodetypes="ccc" />
      <path
         sodipodi:nodetypes="ccc"
         inkscape:connector-curvature="0"
         id="path4415"
         d="m 512.90569,120.85113 c 11.84306,0.70887 27.64952,-16.08959 20.65089,-30.743746 -14.25599,-0.569725 -26.27442,17.960266 -20.65089,30.743746 z"
         style="fill:#fce30c;fill-opacity:1;fill-rule:evenodd;stroke:none;stroke-width:1px;stroke-linecap:butt;stroke-linejoin:miter;stroke-opacity:1" />
      <path
         style="fill:#fce30c;fill-opacity:1;fill-rule:evenodd;stroke:none;stroke-width:1px;stroke-linecap:butt;stroke-linejoin:miter;stroke-opacity:1"
         d="m 467.27124,152.51619 c 11.82954,-0.90671 25.2072,-19.69689 16.28255,-33.26434 -14.20122,1.37238 -23.59072,21.3634 -16.28255,33.26434 z"
         id="path4417"
         inkscape:connector-curvature="0"
         sodipodi:nodetypes="ccc" />
      <path
         sodipodi:nodetypes="ccc"
         inkscape:connector-curvature="0"
         id="path4419"
         d="m 512.67314,191.58329 c 11.03992,-4.34519 18.30069,-26.23843 5.78099,-36.58165 -13.16978,5.4877 -16.26562,27.35592 -5.78099,36.58165 z"
         style="fill:#fce30c;fill-opacity:1;fill-rule:evenodd;stroke:none;stroke-width:1px;stroke-linecap:butt;stroke-linejoin:miter;stroke-opacity:1" />
      <path
         style="fill:#fce30c;fill-opacity:1;fill-rule:evenodd;stroke:none;stroke-width:1px;stroke-linecap:butt;stroke-linejoin:miter;stroke-opacity:1"
         d="m 574.59095,207.71769 c 10.67368,5.18007 31.69923,-4.30459 30.83063,-20.52096 -12.95671,-5.97341 -31.14322,6.55873 -30.83063,20.52096 z"
         id="path4421"
         inkscape:connector-curvature="0"
         sodipodi:nodetypes="ccc" />
      <path
         sodipodi:nodetypes="ccc"
         inkscape:connector-curvature="0"
         id="path4423"
         d="m 427.75479,144.61489 c 7.61096,-9.10131 3.50095,-31.79802 -12.44299,-34.88279 -8.93361,11.12423 -1.17925,31.8045 12.44299,34.88279 z"
         style="fill:#fce30c;fill-opacity:1;fill-rule:evenodd;stroke:none;stroke-width:1px;stroke-linecap:butt;stroke-linejoin:miter;stroke-opacity:1" />
      <path
         style="fill:#fce30c;fill-opacity:1;fill-rule:evenodd;stroke:none;stroke-width:1px;stroke-linecap:butt;stroke-linejoin:miter;stroke-opacity:1"
         d="m 351.50057,175.98651 c 10.86448,-4.76694 17.27713,-26.92344 4.36857,-36.77707 -12.94878,5.99058 -15.20055,27.96176 -4.36857,36.77707 z"
         id="path4425"
         inkscape:connector-curvature="0"
         sodipodi:nodetypes="ccc" />
      <path
         sodipodi:nodetypes="ccc"
         inkscape:connector-curvature="0"
         id="path4427"
         d="m 263.18593,172.50302 c 5.71853,-10.39514 -2.67977,-31.87772 -18.91933,-31.83859 -6.62744,12.63468 4.95937,31.43758 18.91933,31.83859 z"
         style="fill:#fce30c;fill-opacity:1;fill-rule:evenodd;stroke:none;stroke-width:1px;stroke-linecap:butt;stroke-linejoin:miter;stroke-opacity:1" />
      <path
         style="fill:#fce30c;fill-opacity:1;fill-rule:evenodd;stroke:none;stroke-width:1px;stroke-linecap:butt;stroke-linejoin:miter;stroke-opacity:1"
         d="m 219.53077,206.80627 c -0.14625,-11.86335 -18.0399,-26.41841 -32.15173,-18.38216 0.45889,14.25999 19.80665,24.91212 32.15173,18.38216 z"
         id="path4429"
         inkscape:connector-curvature="0"
         sodipodi:nodetypes="ccc" />
      <path
         sodipodi:nodetypes="ccc"
         inkscape:connector-curvature="0"
         id="path4431"
         d="m 176.48375,255.16884 c 1.6796,11.74476 21.30568,23.86291 34.25942,14.06874 -2.29963,-14.08082 -22.86274,-22.14073 -34.25942,-14.06874 z"
         style="fill:#fce30c;fill-opacity:1;fill-rule:evenodd;stroke:none;stroke-width:1px;stroke-linecap:butt;stroke-linejoin:miter;stroke-opacity:1" />
      <path
         style="fill:#fce30c;fill-opacity:1;fill-rule:evenodd;stroke:none;stroke-width:1px;stroke-linecap:butt;stroke-linejoin:miter;stroke-opacity:1"
         d="m 328.0491,243.88797 c 5.49385,-10.51561 -3.36408,-31.81279 -19.59906,-31.42474 -6.35444,12.77416 5.6337,31.32377 19.59906,31.42474 z"
         id="path4433"
         inkscape:connector-curvature="0"
         sodipodi:nodetypes="ccc" />
      <path
         sodipodi:nodetypes="ccc"
         inkscape:connector-curvature="0"
         id="path4435"
         d="m 272.83044,225.89823 c 3.28916,-11.39921 -9.63343,-30.50521 -25.46578,-26.89111 -3.68263,13.78391 11.76016,29.5739 25.46578,26.89111 z"
         style="fill:#fce30c;fill-opacity:1;fill-rule:evenodd;stroke:none;stroke-width:1px;stroke-linecap:butt;stroke-linejoin:miter;stroke-opacity:1" />
      <path
         style="fill:#fce30c;fill-opacity:1;fill-rule:evenodd;stroke:none;stroke-width:1px;stroke-linecap:butt;stroke-linejoin:miter;stroke-opacity:1"
         d="m 349.89422,225.47094 c 10.68216,5.16255 31.69212,-4.35659 30.79692,-20.57151 -12.9665,-5.95214 -31.13242,6.60982 -30.79692,20.57151 z"
         id="path4437"
         inkscape:connector-curvature="0"
         sodipodi:nodetypes="ccc" />
      <path
         sodipodi:nodetypes="ccc"
         inkscape:connector-curvature="0"
         id="path4439"
         d="m 449.47264,208.04188 c 6.08527,-10.1848 -1.54228,-31.95296 -17.77293,-32.49247 -7.0734,12.39053 3.83612,31.59433 17.77293,32.49247 z"
         style="fill:#fce30c;fill-opacity:1;fill-rule:evenodd;stroke:none;stroke-width:1px;stroke-linecap:butt;stroke-linejoin:miter;stroke-opacity:1" />
      <path
         style="fill:#fce30c;fill-opacity:1;fill-rule:evenodd;stroke:none;stroke-width:1px;stroke-linecap:butt;stroke-linejoin:miter;stroke-opacity:1"
         d="m 421.716,250.32694 c 8.25722,-8.51933 5.82089,-31.45612 -9.85424,-35.70058 -9.72451,10.43992 -3.50591,31.63267 9.85424,35.70058 z"
         id="path4441"
         inkscape:connector-curvature="0"
         sodipodi:nodetypes="ccc" />
      <path
         sodipodi:nodetypes="ccc"
         inkscape:connector-curvature="0"
         id="path4443"
         d="m 396.6624,316.29367 c 10.08471,-6.24973 13.31257,-29.08859 -0.85523,-37.02575 -11.97588,7.75476 -11.11044,29.82407 0.85523,37.02575 z"
         style="fill:#fce30c;fill-opacity:1;fill-rule:evenodd;stroke:none;stroke-width:1px;stroke-linecap:butt;stroke-linejoin:miter;stroke-opacity:1" />
      <path
         style="fill:#fce30c;fill-opacity:1;fill-rule:evenodd;stroke:none;stroke-width:1px;stroke-linecap:butt;stroke-linejoin:miter;stroke-opacity:1"
         d="m 505.42133,280.81945 c 1.74745,-11.73486 -13.59615,-28.95713 -28.80892,-23.2741 -1.82099,14.15068 15.5805,27.75185 28.80892,23.2741 z"
         id="path4445"
         inkscape:connector-curvature="0"
         sodipodi:nodetypes="ccc" />
      <path
         sodipodi:nodetypes="ccc"
         inkscape:connector-curvature="0"
         id="path4447"
         d="m 527.7956,253.81511 c 11.86424,0.0182 26.66587,-17.67207 18.82595,-31.89391 -14.26499,0.26124 -25.18421,19.45952 -18.82595,31.89391 z"
         style="fill:#fce30c;fill-opacity:1;fill-rule:evenodd;stroke:none;stroke-width:1px;stroke-linecap:butt;stroke-linejoin:miter;stroke-opacity:1" />
      <path
         style="fill:#fce30c;fill-opacity:1;fill-rule:evenodd;stroke:none;stroke-width:1px;stroke-linecap:butt;stroke-linejoin:miter;stroke-opacity:1"
         d="m 581.54531,269.37026 c 9.41669,7.21709 31.91812,2.14578 34.3222,-13.9149 -11.49402,-8.45255 -31.82588,0.17409 -34.3222,13.9149 z"
         id="path4449"
         inkscape:connector-curvature="0"
         sodipodi:nodetypes="ccc" />
      <path
         sodipodi:nodetypes="ccc"
         inkscape:connector-curvature="0"
         id="path4451"
         d="m 287.49125,304.87748 c 5.30658,-10.61135 -3.92749,-31.74816 -20.15304,-31.07238 -6.12699,12.8848 6.18808,31.21898 20.15304,31.07238 z"
         style="fill:#fce30c;fill-opacity:1;fill-rule:evenodd;stroke:none;stroke-width:1px;stroke-linecap:butt;stroke-linejoin:miter;stroke-opacity:1" />
      <path
         style="fill:#fce30c;fill-opacity:1;fill-rule:evenodd;stroke:none;stroke-width:1px;stroke-linecap:butt;stroke-linejoin:miter;stroke-opacity:1"
         d="m 305.20637,289.00009 c 9.61679,6.94821 31.96598,1.24362 33.91543,-14.87888 -11.7282,-8.12449 -31.80826,1.07304 -33.91543,14.87888 z"
         id="path4453"
         inkscape:connector-curvature="0"
         sodipodi:nodetypes="ccc" />
      <path
         sodipodi:nodetypes="ccc"
         inkscape:connector-curvature="0"
         id="path4455"
         d="m 201.79805,376.71501 c 11.36364,3.41 30.60576,-9.30902 27.15995,-25.17885 -13.74404,-3.82876 -29.69709,11.44551 -27.15995,25.17885 z"
         style="fill:#fce30c;fill-opacity:1;fill-rule:evenodd;stroke:none;stroke-width:1px;stroke-linecap:butt;stroke-linejoin:miter;stroke-opacity:1" />
      <path
         style="fill:#fce30c;fill-opacity:1;fill-rule:evenodd;stroke:none;stroke-width:1px;stroke-linecap:butt;stroke-linejoin:miter;stroke-opacity:1"
         d="m 275.79651,379.93913 c 5.62002,-10.44872 -2.98092,-31.85098 -19.2194,-31.65838 -6.50773,12.69675 5.25626,31.38932 19.2194,31.65838 z"
         id="path4457"
         inkscape:connector-curvature="0"
         sodipodi:nodetypes="ccc" />
      <path
         sodipodi:nodetypes="ccc"
         inkscape:connector-curvature="0"
         id="path4459"
         d="m 481.27082,362.69252 c 8.97822,7.75576 31.73785,4.00985 35.07764,-11.88263 -10.97971,-9.11065 -31.78154,-1.68856 -35.07764,11.88263 z"
         style="fill:#fce30c;fill-opacity:1;fill-rule:evenodd;stroke:none;stroke-width:1px;stroke-linecap:butt;stroke-linejoin:miter;stroke-opacity:1" />
      <path
         style="fill:#fce30c;fill-opacity:1;fill-rule:evenodd;stroke:none;stroke-width:1px;stroke-linecap:butt;stroke-linejoin:miter;stroke-opacity:1"
         d="m 625.72075,389.50905 c 1.57086,-11.75981 -14.0298,-28.74953 -29.15544,-22.83853 -1.60812,14.17646 15.9958,27.51457 29.15544,22.83853 z"
         id="path4461"
         inkscape:connector-curvature="0"
         sodipodi:nodetypes="ccc" />
      <path
         sodipodi:nodetypes="ccc"
         inkscape:connector-curvature="0"
         id="path4463"
         d="m 551.4618,430.81311 c 10.08471,-6.24973 13.31257,-29.08859 -0.85523,-37.02575 -11.97588,7.75476 -11.11044,29.82407 0.85523,37.02575 z"
         style="fill:#fce30c;fill-opacity:1;fill-rule:evenodd;stroke:none;stroke-width:1px;stroke-linecap:butt;stroke-linejoin:miter;stroke-opacity:1" />
      <path
         style="fill:#fce30c;fill-opacity:1;fill-rule:evenodd;stroke:none;stroke-width:1px;stroke-linecap:butt;stroke-linejoin:miter;stroke-opacity:1"
         d="m 549.33604,307.52976 c 6.90048,-9.65111 1.08492,-31.97176 -15.04672,-33.84131 -8.06629,11.76831 1.2306,31.80256 15.04672,33.84131 z"
         id="path4465"
         inkscape:connector-curvature="0"
         sodipodi:nodetypes="ccc" />
      <path
         sodipodi:nodetypes="ccc"
         inkscape:connector-curvature="0"
         id="path4467"
         d="m 298.41881,128.81787 c 9.8246,-6.65114 12.12927,-29.601543 -2.34694,-36.961187 -11.65358,8.231177 -9.89929,30.247667 2.34694,36.961187 z"
         style="fill:#fce30c;fill-opacity:1;fill-rule:evenodd;stroke:none;stroke-width:1px;stroke-linecap:butt;stroke-linejoin:miter;stroke-opacity:1" />
      <path
         sodipodi:nodetypes="ccc"
         inkscape:connector-curvature="0"
         id="path4469"
         d="m 465.56016,243.85131 c 11.86335,0.14672 26.85579,-17.38209 19.17042,-31.68805 -14.26697,0.10666 -25.39358,19.18551 -19.17042,31.68805 z"
         style="fill:#fce30c;fill-opacity:1;fill-rule:evenodd;stroke:none;stroke-width:1px;stroke-linecap:butt;stroke-linejoin:miter;stroke-opacity:1" />
    </g>
  </g>
</svg>
