<svg version="1" xmlns="http://www.w3.org/2000/svg" width="1098.667" height="1098.667" viewBox="0 0 824.000000 824.000000"><path d="M37.4 263.2c.2 144.8.6 264.2.9 265.3.5 2.1 1.3 7.1 2.3 14 .6 4.1 2.8 16.8 3.8 21.7.3 1.6.8 4 1.1 5.5 1.3 6.1 1.7 8.1 4 17 4.7 18.2 6.5 23.2 8.3 23.1.9 0 8.9.2 17.7.6 8.8.4 20.3.9 25.5 1.1 5.2.2 12.9.6 17 1 4.1.3 10.2.8 13.5 1.1 20.6 1.6 34.4 2.9 42 3.9 1.7.2 5.9.7 9.5 1.1 3.6.3 6.8.8 7.1 1 .3.1 2.8.6 5.5.9 2.7.4 6 .8 7.3 1 1.3.2 4.5.7 7 1 2.5.4 6.1.8 8 1.1 1.8.2 3.6.6 4 .8.3.2 2.9.7 5.6 1 6 .6 14.4 2.2 16.6 3.1 1.2.4 2.6-1.1 5.3-5.8 6.3-10.8 17.7-21.5 27.6-26 11.9-5.4 14.4-5.9 27-5.9 13.3-.1 18.3 1.1 31.2 7.5l8.7 4.3 14.2-13.8c7.8-7.6 14-14 13.8-14.2-.2-.2-3.8-2-7.9-4.2-22.6-11.6-36.7-26.9-47.3-51.4-.8-1.9-2.1-5.3-2.7-7.5-.7-2.2-1.7-4.6-2.3-5.2-.5-.7-.7-1.3-.4-1.3.3 0 .1-1.5-.4-3.3-.9-3.2-1.4-5.8-2.4-12.7-1.1-7.8-1.6-74.5-2-275.5-.2-116.1-.4-211.6-.4-212.3C306 .3 278.4 0 171.5 0H36.9l.5 263.2zM519.5 2.3c.1 1.3.4 2.8.8 3.4.4.7.4 1.4-.1 1.7-.9.5-.9 4.7.1 6.3.4.7.4 1.4-.1 1.7-.9.5-.9 4.7.1 6.3.4.7.4 1.4-.1 1.7-.9.5-.9 4.7.1 6.3.4.7.4 1.4-.1 1.7-.9.5-.9 4.7.1 6.3.4.7.4 1.4-.1 1.7-.9.5-.9 4.7.1 6.3.4.7.4 1.4-.1 1.7-.9.5-.9 4.7.1 6.3.4.7.4 1.4-.1 1.7-.9.5-.9 4.7.1 6.3.4.7.4 1.4-.1 1.7-.9.5-.9 4.7.1 6.3.4.7.4 1.4-.1 1.7-.9.5-.9 4.7.1 6.3.4.7.4 1.4-.1 1.7-.9.5-.9 4.7.1 6.3.4.7.4 1.4-.1 1.7-.9.5-.9 4.7.1 6.3.4.7.4 1.4-.1 1.7-.9.5-.9 4.7.1 6.3.4.7.4 1.4-.1 1.7-.9.5-.9 4.7.1 6.3.4.7.4 1.4-.1 1.7-.9.5-.9 4.7.1 6.3.4.7.4 1.4-.1 1.7-.9.5-.9 4.7.1 6.3.4.7.4 1.4-.1 1.7-.9.5-.9 4.7.1 6.3.4.7.4 1.4-.1 1.7-.9.5-.9 4.7.1 6.3.4.7.4 1.4-.1 1.7-.9.5-.9 4.7.1 6.3.4.7.4 1.4-.1 1.7-.9.5-.9 4.7.1 6.3.4.7.4 1.4-.1 1.7-.9.5-.9 4.7.1 6.3.4.7.4 1.4-.1 1.7-.9.5-.9 4.7.1 6.3.4.7.4 1.4-.1 1.7-.9.5-.9 4.7.1 6.3.4.7.4 1.4-.1 1.7-.9.5-.9 4.7.1 6.3.4.7.4 1.4-.1 1.7-.9.5-.9 4.7.1 6.3.4.7.4 1.4-.1 1.7-.9.5-.9 4.7.1 6.3.4.7.4 1.4-.1 1.7-.9.5-.9 4.7.1 6.3.4.7.4 1.4-.1 1.7-.7.4-.8 5-.2 6.6.1.3.1 1.3.1 2.3-.2 1.9.6 2.8 5.9 6.9 1.9 1.4 4.9 3.9 6.6 5.5 1.7 1.6 4.3 3.9 5.7 5 5.5 4.3 16.9 14.3 27.3 23.8 11.6 10.5 27.5 25.9 48.4 46.7l25.9 25.6 7.3-2.5c4-1.4 8.9-2.8 10.8-3 5.1-.8 22.3-1.1 23.5-.4.6.3 1.8.7 2.8.8 7.3 1.2 20.8 8 27 13.8 1.8 1.6 4.4 4 5.8 5.3l2.6 2.3 10.9-4.1c6-2.3 11.6-4.3 12.4-4.5.8-.2 5.3-1.8 10-3.5s14.5-5.2 21.8-7.7l13.2-4.5V0H519.4l.1 2.3zM519.7 272.2c-.2.7-.1 2.2.3 3.3.4 1.1.4 2.9 0 4.1-.5 1.1-.4 2.7 0 3.4.5.8.7 1.8.4 2.2-.9 1.3-.8 12.4.1 13.8.5.7.4 1.1-.1.8-1-.7-1.1 17.8-.1 18.8.3.3.3 1.6-.1 2.8-.9 2.4-.8 6.6.1 9 .4 1 .3 1.5-.1 1.2-.8-.5-.8 18.1.1 19 .3.3.3 1.6-.1 2.8-.9 2.4-.8 6.6.1 9 .4 1 .3 1.5-.1 1.2-.8-.5-.8 18.1.1 19 .3.3.3 1.6-.1 2.8-.9 2.4-.8 6.6.1 9 .4 1 .3 1.5-.1 1.2-.8-.5-.8 18.1.1 19 .3.3.3 1.6-.1 2.8-.9 2.4-.8 6.6.1 9 .4 1 .3 1.5-.1 1.2-.9-.5-.8 17.6.1 19.1.4.7.4 1.4-.1 1.6-.4.3-.7 2.5-.5 4.9.2 6.6.4 7.5 1 6 .2-.6.9-1.2 1.4-1.2.5 0 3.8-2 7.4-4.4 5.6-3.9 36.1-22.6 45-27.6 1.7-.9 6.5-3.8 10.7-6.3 4.2-2.5 7.9-4.3 8.2-3.9.3.3.6 0 .6-.6 0-.7.4-1.2.9-1.2.6 0 3.6-1.5 6.8-3.4l5.8-3.4-.1-10.7c-.1-9.1.6-14.5 3-23 .4-1.6 3.5-8.9 4.4-10.5 1.2-1.9-46.3-49.6-77.4-77.7-17.7-16-16.8-15.3-17.7-13.1zM784 369.7c-.8.3-2.6 1-4 1.6-1.4.6-2.7 1.1-3 1.1-1.4.3-42.6 16-43.2 16.5-.4.3-.9 3.8-1.2 7.6-.6 7.4-1.3 11.7-2.3 15-.4 1.1-.8 2.3-.9 2.7-.1.5-.3 1-.4 1.3-.1.3-.3.8-.4 1.2-.2 1.3-4.9 10.8-5.6 11.3-.3.3-1.4 1.8-2.4 3.4-1.5 2.4-1.6 3.2-.5 5.2.7 1.3 1.6 2.4 2.1 2.4.4 0 .8.7.8 1.5s.4 1.5.9 1.5 1.1.8 1.4 1.7c.4 1 3.5 5.8 7.1 10.8 3.6 4.9 6.5 9.5 6.5 10.2.1.7.7 1.6 1.4 2 1.5 1 12.7 17.9 12.7 19.3 0 .5.4 1 .8 1 .5 0 1.5 1.2 2.2 2.7.8 1.6 2 3.5 2.6 4.3 1.8 2.3 23 37.4 23.8 39.5 1 2.6 2.7.5 3.2-3.7 1.9-18.2 2.7-159.9.9-160.4-.5-.1-1.7 0-2.5.3zM620.5 442.4c-2.2 1.2-7.8 4.4-12.5 7-4.7 2.7-10.3 5.9-12.5 7.1-7.2 4-18.8 11-31.8 19.3-7.1 4.5-13.2 8.2-13.7 8.2s-1 .3-1.2.7c-.1.5-4.8 3.8-10.3 7.5-24.3 16.1-26.1 17.6-27.4 22.3-.2.5-.9 2.5-1.7 4.2-.8 1.8-2.1 5-3 7-5 11.7-23.2 32.7-33.3 38.4-2.3 1.2-4.1 2.6-4.1 3.1 0 .4-.9.8-2 .8s-2 .4-2 1c0 .5-.5 1-1 1-.6 0-2.9.9-5.3 1.9-6.2 2.8-12.5 4.7-19.2 5.6-1.1.2-2 .4-2 .5 0 .2-.9.4-2 .5-13.4 1.8-14 2-21 8.6-2.2 2.1-5.9 5.5-8.1 7.6-12.8 11.7-28.7 26.6-34.7 32.4l-6.9 6.7 1.2 5.7c.6 3.1 1.3 8.7 1.5 12.3.2 3.7.4 7.2.4 7.7.1.9 4.7 3.2 8.1 4 .6.2 3.9 1.4 6.5 2.5 1.1.4 3.6 1.3 5.5 2s4.4 1.6 5.5 2c1.1.4 5.8 2.2 10.5 4 4.7 1.8 13 5.1 18.5 7.5 21 9.1 29.8 12.7 31.4 13 1.4.2 8.6-3 10.1-4.5 2.1-2.1 14.6-6.9 22.5-8.6 8.2-1.8 25.5.1 33.2 3.7 2.4 1 4.6 1.9 5 1.9 1.7 0 13.5 8.6 18.7 13.6 1.2 1.1 2.8 2 3.6 1.9.8-.2 11.6-2.8 24-5.8 12.4-3.1 23.9-5.8 25.5-6.1 1.7-.3 4.1-.7 5.5-1.1 1.4-.3 3.7-.7 5.1-1 1.4-.3 6.1-1.1 10.3-2 4.3-.8 8.1-1.4 8.4-1.4.4.1.9 0 1.2-.1.9-.3 4.4-.9 8-1.4 1.9-.2 7.3-1 12-1.6 8.1-1.1 10.3-1.4 19.5-2.4 20.7-2.2 36-3.3 57-4.1 5-.1 9.6-.3 10.2-.4 1.2-.1 7.2-8.5 6.2-8.7-.2 0 .2-.8 1-1.8 2.6-3.1 19.1-35.2 19.1-37.1 0-.3 1.1-3 2.4-5.8 1.3-2.9 4.5-11.3 7.1-18.8l4.7-13.6-4.8-8.9c-2.6-4.9-6-11.2-7.5-13.9-1.5-2.8-3.8-7-5.1-9.5-2.5-4.8-10-17.9-12.6-22-.9-1.4-1.5-2.8-1.4-3.3.1-.4-.3-.7-.8-.7-.6 0-1-.6-1-1.3 0-.7-.9-2.3-2-3.5-1.2-1.2-1.8-2.2-1.4-2.2.4 0 0-.8-.8-1.8-.9-.9-4.2-6-7.4-11.2-3.2-5.2-6.1-9.7-6.6-9.8-.4-.2-.8-.8-.8-1.4 0-.5-1.1-2.4-2.5-4.2-1.4-1.8-2.5-3.8-2.5-4.4 0-.7-.4-1.2-1-1.2-.5 0-1-.5-1-1 0-1-.6-1.9-3.6-5.3-.5-.7-1.3-1.9-1.7-2.7-.3-.8-4.6-7.1-9.4-14-9.6-13.5-9.2-13.3-17.8-11.5-7.5 1.5-20 1.2-27.5-.7-9-2.2-14.6-4.8-22.6-10.5-3.4-2.4-6.5-4.3-7-4.2-.5 0-2.7 1-4.9 2.3zM71.8 643.7c-1 .3-1.8.6-1.8.8 0 .4 7.5 14.5 9.7 18.4 7.7 13 21.7 33.9 24.2 36.1.3.3 3 3.4 6 7 8.8 10.6 28.5 29.8 41.1 39.9 1.4 1.2 3 2.4 3.5 2.9 6.3 5.2 28.1 19.9 33.5 22.6.8.4 3.1 1.5 5 2.5 1.9 1.1 3.9 1.7 4.3 1.4.8-.5 9.6-12.2 13.7-18.3 2.2-3.2 19.3-25.8 28.4-37.5 4.2-5.5 8.9-11.6 10.4-13.5 1.5-1.9 4-4.9 5.5-6.7l2.8-3.2-4-5.3c-4.6-6.1-9.2-16-11-23.5-1.3-5.3-2-5.9-9.1-6.8-1.4-.2-4.1-.6-6-1-21.3-3.6-44.6-7-54-8-2.5-.2-5.9-.6-7.5-.9-1.7-.3-6.1-.8-10-1.1-3.8-.3-9-.8-11.5-1.1-4.6-.6-9.6-.9-23-1.8-4.1-.3-10.4-.8-14-1.1-3.6-.3-12.5-.8-19.8-1-7.2-.2-13.5-.6-14-.8-.4-.2-1.5-.2-2.4 0zM352.1 694.7c-8.9 8.9-22.2 17.4-29.3 18.7-1.3.3-2.3.5-2.3.6 0 .6-6.9 1.1-18.4 1.4-8.3.1-13.6.6-13.8 1.3-.2.6-5.4 7.3-11.4 14.9-6.1 7.7-14.3 18.2-18.2 23.4-4 5.2-7.4 9.7-7.8 10-.3.3-2.1 2.7-4 5.5-1.8 2.7-3.8 5.5-4.4 6.2-1.5 1.9-2.9 3.7-4 5.5-.5.8-2.3 3.4-3.9 5.8-2.7 4.1-2.7 4.4-1 5.4 7.4 4.4 50.7 17.7 68.4 21.1 1.4.2 3.8.7 5.3 1.1 2.1.4 3.9-.1 6.7-2 2.2-1.4 4.4-2.6 5-2.6.5 0 1-.5 1-1 0-.6.4-1 .9-1 .4 0 5.6-3.1 11.3-6.9 24.3-16 50.3-30.8 86.2-49.1 11-5.6 15.1-8.2 15.3-9.6 0-1 .5-4.4.9-7.4 1.6-11.3 1.7-11.1-6.1-15-3.8-1.9-8.3-4-10-4.6-2.6-1-29.8-11.9-36.5-14.6-3.5-1.5-5.7-2.3-12-4.6-3-1.1-7.4-2.7-9.8-3.6-5.4-2-4.9-2.1-8.1 1.1zM683.4 717.9c-.2.2-2.3.5-4.6.7-2.4.2-5.9.5-7.8.8-1.9.2-6.2.7-9.4 1.1-3.3.4-6.7.8-7.5 1-2.7.5-9.4 1.5-13.1 2-1.9.2-4.6.7-6 .9-1.3.3-4.2.9-6.5 1.2-7.3 1.2-8 1.3-14 2.4-3.3.6-6.9 1.3-8 1.5-1.1.2-8.5 1.9-16.5 3.8s-15.8 3.8-17.5 4.2c-1.6.4-4.6 1.3-6.6 2-2 .8-3.9 1.1-4.3.8-.3-.4-.7 0-.8.8 0 .8-.2 2.5-.4 3.9-.1 1.4-.5 4.3-.8 6.4-.4 3.1-.1 4.4 1.4 5.8 1 1 2.3 1.8 2.7 1.8.5 0 1.9 1 3.3 2.3 1.4 1.2 4.2 3.3 6.3 4.6 2 1.2 3.7 2.7 3.7 3.2s.5.9 1 .9c.6 0 3.2 1.7 5.8 3.7 2.7 2.1 6.4 4.9 8.2 6.3 1.8 1.4 4.6 3.5 6.1 4.7l2.7 2.3 12.3-6.3c12.4-6.3 32-17.4 32.9-18.7.3-.3 2.1-1.5 4-2.6 1.9-1 4-2.4 4.7-2.9 3.1-2.5 4-3.2 7.3-5.5 7.4-5.2 24.7-19.7 33-27.7l6.5-6.3-8.8.3c-4.9.1-9 .4-9.3.6zM441 786.3c-2.5 1.2-4.6 2.5-4.8 2.9-.2.5-1.2.8-2.2.8-1 0-2 .3-2.2.7-.1.5-4.6 3-9.8 5.6-10.5 5.4-13.6 7.1-26 14.1-4.7 2.7-9.4 5.4-10.5 6-3.3 1.9-10.5 6.8-10.5 7.2 0 .5 63.8-.5 76.8-1.1 4.5-.2 11.1-.6 14.5-1 11.7-1.2 15.2-1.6 17.7-2 1.4-.2 4.5-.7 7-1 4.9-.7 8.1-1.2 12-2 1.3-.2 4.2-.7 6.4-1.1 2.2-.3 4.3-.7 4.6-.9.3-.2 2.5-.6 5-1s4.8-.9 5.2-1.2c.5-.2 2.1-.7 3.6-.9 8.7-1.5 32.2-8.2 34-9.6 1-.9.9-1.5-.4-2.9-1-1.1-2.3-1.9-3-1.9-.7 0-1.4-.3-1.6-.8-.4-1-7.8-6.6-10.6-8.1-2-1-2.7-.9-5.5 1.4-4.7 3.7-13.5 9.8-14.7 10.1-.3 0-1.8.7-3.5 1.4-1.6.7-3.2 1.4-3.5 1.5-.3.1-1.2.4-2 .8-6.1 2.4-20.5 3.5-29.5 2.2-12.5-1.8-27.3-9.3-35.4-17.9-4-4.2-5-4.3-11.1-1.3z"/></svg>