<?xml version="1.0" encoding="UTF-8" standalone="no"?>
<!-- Created with Inkscape (http://www.inkscape.org/) -->

<svg
   xmlns:dc="http://purl.org/dc/elements/1.1/"
   xmlns:cc="http://creativecommons.org/ns#"
   xmlns:rdf="http://www.w3.org/1999/02/22-rdf-syntax-ns#"
   xmlns:svg="http://www.w3.org/2000/svg"
   xmlns="http://www.w3.org/2000/svg"
   xmlns:sodipodi="http://sodipodi.sourceforge.net/DTD/sodipodi-0.dtd"
   xmlns:inkscape="http://www.inkscape.org/namespaces/inkscape"
   width="138.67876mm"
   height="125.55239mm"
   viewBox="0 0 491.38142 444.87065"
   id="svg4246"
   version="1.1"
   inkscape:version="0.91 r13725"
   sodipodi:docname="air-pro-logo.svg">
  <defs
     id="defs4248" />
  <sodipodi:namedview
     id="base"
     pagecolor="#ffffff"
     bordercolor="#666666"
     borderopacity="1.0"
     inkscape:pageopacity="0.0"
     inkscape:pageshadow="2"
     inkscape:zoom="2.8284271"
     inkscape:cx="173.28131"
     inkscape:cy="246.12133"
     inkscape:document-units="px"
     inkscape:current-layer="g6650"
     showgrid="false"
     fit-margin-top="0"
     fit-margin-left="0"
     fit-margin-right="0"
     fit-margin-bottom="0"
     inkscape:window-width="3840"
     inkscape:window-height="2067"
     inkscape:window-x="2160"
     inkscape:window-y="93"
     inkscape:window-maximized="0"
     showguides="true"
     inkscape:guide-bbox="true"
     inkscape:object-paths="true"
     inkscape:snap-intersection-paths="true"
     inkscape:snap-bbox="true"
     inkscape:bbox-nodes="true"
     inkscape:bbox-paths="true"
     inkscape:snap-bbox-midpoints="true"
     inkscape:snap-global="false" />
  <metadata
     id="metadata4251">
    <rdf:RDF>
      <cc:Work
         rdf:about="">
        <dc:format>image/svg+xml</dc:format>
        <dc:type
           rdf:resource="http://purl.org/dc/dcmitype/StillImage" />
        <dc:title></dc:title>
      </cc:Work>
    </rdf:RDF>
  </metadata>
  <g
     inkscape:groupmode="layer"
     id="layer6"
     inkscape:label="outer circle"
     style="display:inline"
     sodipodi:insensitive="true">
    <path
       style="fill:#fb970d;fill-opacity:1;stroke:none;stroke-width:1.26900005;stroke-miterlimit:4;stroke-dasharray:none;stroke-opacity:1"
       d="M 247.75,-0.12890625 A 222.5,222.5 0 0 0 25.25,222.37109 a 222.5,222.5 0 0 0 222.5,222.5 222.5,222.5 0 0 0 222.5,-222.5 222.5,222.5 0 0 0 -222.5,-222.49999625 z m 0,9.75000005 A 212.75,212.75 0 0 1 460.5,222.37109 212.75,212.75 0 0 1 247.75,435.12109 212.75,212.75 0 0 1 35,222.37109 212.75,212.75 0 0 1 247.75,9.6210938 Z"
       id="path57401"
       inkscape:connector-curvature="0"
       transform="translate(0,-1.5258789e-5)" />
    <path
       id="path57411"
       d="M 455.60096,222.45903 A 207.49741,207.5858 0 0 1 248.10355,430.04482 207.49741,207.5858 0 0 1 40.606135,222.45903 207.49741,207.5858 0 0 1 248.10355,14.873217 207.49741,207.5858 0 0 1 455.60096,222.45903 Z"
       style="fill:none;fill-opacity:1;stroke:#fb970d;stroke-width:0.99936301;stroke-miterlimit:4;stroke-dasharray:none;stroke-opacity:1"
       inkscape:connector-curvature="0" />
  </g>
  <g
     inkscape:label="vertical bars"
     inkscape:groupmode="layer"
     id="g55451"
     transform="translate(77.02353,-279.91101)"
     style="display:inline"
     sodipodi:insensitive="true">
    <path
       style="display:inline;fill:#fb970d;fill-opacity:1;stroke:none;stroke-width:0.1;stroke-miterlimit:4;stroke-dasharray:none;stroke-opacity:1"
       d="m 244.92969,85.912109 c -1.63373,0.0283 -3.26681,0.0862 -4.89844,0.173829 l -0.004,136.367182 0.004,136.36719 c 1.63163,0.0876 3.26471,0.14553 4.89844,0.17383 l 0.004,-136.54102 -0.004,-136.541011 z m 6.48242,0.04687 -0.004,136.494131 0.004,136.49416 c 1.63416,-0.0517 3.26724,-0.13309 4.89844,-0.24415 l 0.004,-136.25 -0.004,-136.25 c -1.6312,-0.11106 -3.26428,-0.192451 -4.89844,-0.244141 z m 11.37891,0.683594 -0.004,135.810537 0.004,135.81055 c 1.63786,-0.2167 3.2716,-0.4635 4.90039,-0.74023 l 0.004,-135.07032 -0.004,-135.070303 c -1.62879,-0.276729 -3.26253,-0.523524 -4.90039,-0.740234 z m -29.23829,0.111328 c -1.63695,0.16801 -3.27068,0.36596 -4.90039,0.59375 l -0.004,135.105469 0.004,135.10546 c 1.62971,0.2278 3.26344,0.42574 4.90039,0.59375 l 0.004,-135.69922 -0.004,-135.699209 z m 40.61915,1.607422 -0.004,134.091787 0.004,134.0918 c 1.6399,-0.35816 3.27302,-0.74689 4.89843,-1.166 l 0.004,-132.92579 -0.004,-132.925781 c -1.62541,-0.41911 -3.25853,-0.807856 -4.89843,-1.166016 z m -52,0.0918 c -1.63949,0.33612 -3.27259,0.702719 -4.89844,1.099609 l -0.004,132.900388 0.004,132.9004 c 1.62585,0.39689 3.25895,0.76349 4.89844,1.0996 l 0.004,-134 -0.004,-133.999997 z m -11.37891,2.697266 c -1.64369,0.51101 -3.27746,1.053413 -4.90039,1.626953 l -0.004,129.675778 0.004,129.67579 c 1.62293,0.57354 3.2567,1.11594 4.90039,1.62695 l 0.004,-131.30274 -0.004,-131.302731 z m 74.75781,0.03125 -0.004,131.271481 0.004,131.27149 c 1.64292,-0.47411 3.27668,-0.97941 4.90039,-1.51563 l 0.004,-129.75586 -0.004,-129.755856 c -1.62371,-0.53622 -3.25747,-1.041515 -4.90039,-1.515625 z m -86.13867,3.75 c -1.64709,0.69404 -3.28023,1.420747 -4.89844,2.179687 l -0.004,125.341794 0.004,125.3418 c 1.61821,0.75894 3.25135,1.48565 4.89844,2.17969 l 0.004,-127.52149 -0.004,-127.521481 z m 97.51953,0.128906 -0.004,127.392575 0.004,127.39258 c 1.64514,-0.60807 3.27826,-1.24816 4.89844,-1.91992 l 0.004,-125.47266 -0.004,-125.472653 c -1.62018,-0.67176 -3.2533,-1.311852 -4.89844,-1.919922 z m -108.90039,4.953125 c -1.65113,0.85934 -3.28429,1.75276 -4.89844,2.67969 l -0.004,119.75976 0.004,119.75977 c 1.61415,0.92693 3.24731,1.82035 4.89844,2.67969 l 0.004,-122.43946 -0.004,-122.43945 z m 120.2793,0.0977 -0.004,122.34179 0.004,122.3418 c 1.64958,-0.77088 3.28337,-1.57508 4.90039,-2.41211 l 0.004,-119.92969 -0.004,-119.92968 c -1.61702,-0.83703 -3.25081,-1.64123 -4.90039,-2.41211 z m -131.65821,6.29883 c -1.65749,1.06886 -3.29135,2.17394 -4.90039,3.31445 l -0.004,112.72851 0.004,112.72852 c 1.60904,1.14051 3.2429,2.24559 4.90039,3.31445 l 0.004,-116.04297 -0.004,-116.04296 z m 143.03907,0.0859 -0.004,115.95703 0.004,115.95704 c 1.65427,-0.97802 3.28745,-1.99127 4.89843,-3.03907 l 0.004,-112.91797 -0.004,-112.91796 c -1.61098,-1.0478 -3.24416,-2.06105 -4.89843,-3.03907 z m -154.41993,7.86329 c -1.66618,1.34501 -3.30011,2.72953 -4.90039,4.15234 l -0.002,103.9414 0.002,103.94141 c 1.60028,1.42281 3.23421,2.80732 4.90039,4.15235 l 0.004,-108.09376 -0.004,-108.09374 z m 165.79883,0.10156 -0.004,107.99218 0.004,107.99219 c 1.66384,-1.25428 3.2984,-2.54694 4.90235,-3.87695 l 0.002,-104.11524 -0.002,-104.11523 c -1.60395,-1.33001 -3.23851,-2.62267 -4.90235,-3.87695 z m -177.17773,9.80468 c -1.67993,1.71006 -3.31397,3.46458 -4.90039,5.26172 l -0.002,92.92578 0.002,92.92579 c 1.58642,1.79714 3.22046,3.55166 4.90039,5.26171 l 0.004,-98.1875 -0.004,-98.1875 z m 188.55664,0.10743 -0.002,98.08007 0.002,98.08008 c 1.67858,-1.6445 3.31391,-3.33257 4.9043,-5.0625 l 0.002,-93.01758 -0.002,-93.01757 c -1.59039,-1.72993 -3.22572,-3.418 -4.9043,-5.0625 z m 11.38086,12.43359 -0.002,85.64648 0.002,85.64649 c 1.70498,-2.23098 3.33989,-4.51464 4.90234,-6.84766 l 0.002,-78.79883 -0.002,-78.79882 c -1.56245,-2.33302 -3.19736,-4.61668 -4.90234,-6.84766 z m -211.31641,0.2793 c -1.69834,2.10082 -3.33319,4.25218 -4.90234,6.45117 l -0.002,78.91601 0.002,78.91602 c 1.56915,2.19899 3.204,4.35035 4.90234,6.45117 l 0.002,-85.36719 -0.002,-85.36718 z m -11.3789,16.77344 c -1.76137,3.12427 -3.39744,6.31758 -4.9043,9.57226 l -0.002,59.02148 0.002,59.02149 c 1.50686,3.25468 3.14293,6.44798 4.9043,9.57227 l 0.002,-68.59376 -0.002,-68.59374 z m 234.07421,0.0605 -0.002,68.5332 0.002,68.53321 c 1.75701,-3.0635 3.39304,-6.19482 4.9043,-9.38672 l 0.002,-59.14649 -0.002,-59.14648 c -1.51126,-3.1919 -3.14729,-6.32322 -4.9043,-9.38672 z m -245.45507,25.72266 c -2.2332,7.10861 -3.87358,14.39003 -4.9043,21.76953 l 0,21.04101 0,21.04102 c 1.03072,7.3795 2.6711,14.66092 4.9043,21.76953 l 0.002,-42.81055 -0.002,-42.81054 z m 256.83593,0.20117 -0.002,42.60937 0.002,42.60938 c 2.19055,-6.84517 3.83054,-13.85447 4.9043,-20.96094 l 0,-21.64844 0,-21.64843 c -1.07376,-7.10647 -2.71375,-14.11577 -4.9043,-20.96094 z"
       transform="translate(-77.02353,279.91099)"
       id="path55563"
       inkscape:connector-curvature="0" />
    <path
       transform="translate(-77.02353,279.91101)"
       style="display:inline;fill:none;fill-opacity:1;stroke:#fb970d;stroke-width:1.27569747;stroke-miterlimit:4;stroke-dasharray:none;stroke-opacity:1"
       d="m 387.67336,222.54083 c 0,42.73488 -18.81964,81.02703 -48.53914,106.87172 -24.40785,21.22556 -56.16756,34.05542 -90.89203,34.05542 -77.00571,0 -139.43117,-63.09523 -139.43117,-140.92714 0,-77.83191 62.42546,-140.927137 139.43117,-140.927137 77.00571,0 139.43117,63.095227 139.43117,140.927137 z"
       id="path55435"
       inkscape:connector-curvature="0"
       sodipodi:nodetypes="ssssss" />
  </g>
  <g
     inkscape:groupmode="layer"
     id="layer11"
     inkscape:label="main text"
     style="display:inline"
     sodipodi:insensitive="true">
    <g
       inkscape:groupmode="layer"
       id="layer10"
       inkscape:label="pro background"
       style="display:inline">
      <path
         transform="matrix(1.0475028,0,0,1.0475028,554.19123,30.66952)"
         inkscape:connector-curvature="0"
         id="rect58714"
         d="m -494.8125,210.52966 114.125,0 0,2.875 -114.125,0 z"
         style="display:inline;fill:#ffffff;fill-opacity:1;stroke:none;stroke-width:1;stroke-miterlimit:4;stroke-dasharray:none;stroke-opacity:1"
         sodipodi:nodetypes="ccccc" />
      <path
         transform="matrix(1.0475028,0,0,1.0475028,554.19123,30.66952)"
         inkscape:connector-curvature="0"
         id="rect58714-9"
         d="m -208.91368,210.52986 114.124999,0 0,2.875 -114.124999,0 z"
         style="display:inline;fill:#ffffff;fill-opacity:1;stroke:none;stroke-width:1;stroke-miterlimit:4;stroke-dasharray:none;stroke-opacity:1"
         sodipodi:nodetypes="ccccc" />
      <path
         inkscape:connector-curvature="0"
         style="display:inline;fill:#ffffff;fill-opacity:1;stroke:none;stroke-width:1;stroke-miterlimit:4;stroke-dasharray:none;stroke-opacity:1"
         d="m -244.86914,195.0918 c -13.01388,0.0201 -20.56056,8.90394 -20.56055,19.86718 0,10.96323 7.96817,19.91611 20.49805,19.91211 12.68596,-0.004 20.68359,-8.9645 20.68359,-19.92773 1e-5,-10.96324 -7.70034,-19.87156 -20.62109,-19.85156 z m 0.13281,11.70508 c 3.84175,4.2e-4 7.33849,3.3641 7.06836,8.42187 -0.25823,4.83495 -3.43138,8.03554 -7.25586,7.93164 -4.02789,-0.10939 -7.15197,-3.45007 -7.06836,-8.42187 0.0952,-5.64403 3.9313,-7.93202 7.25586,-7.93164 z"
         id="path58689"
         transform="matrix(1.0475028,0,0,1.0475028,554.19123,30.669504)"
         sodipodi:nodetypes="sssssssscs" />
      <path
         transform="matrix(1.0475028,0,0,1.0475028,554.19123,30.66952)"
         sodipodi:nodetypes="csccscccccccscscccscccccccc"
         inkscape:connector-curvature="0"
         id="path58645"
         d="m -364.0764,234.03547 c -0.0194,-0.0505 -0.0351,-8.46561 -0.0351,-18.70015 0,-16.83916 0.009,-18.61696 0.091,-18.69956 0.0819,-0.0821 0.88896,-0.091 8.03821,-0.0892 8.50348,0.002 10.39539,0.0395 11.24934,0.22195 0.28676,0.0613 0.72995,0.12986 0.98486,0.15247 5.04591,0.80681 9.20391,4.441 10.45569,8.88851 10e-4,0.0959 0.0697,0.43566 0.15169,0.75515 0.13701,0.53374 0.15167,0.71049 0.18066,2.17829 0.15077,4.99023 -1.96849,9.24333 -6.21134,11.47208 -3.25492,1.7472 -7.26738,1.96863 -9.44307,1.98835 -1.93942,0.0173 -3.03831,0.0481 -3.08494,0.0866 -0.0571,0.047 -0.0724,1.29419 -0.0724,5.87887 0,4.44852 -0.0163,5.83552 -0.0695,5.88881 -0.0532,0.0534 -1.49458,0.0697 -6.1347,0.0697 -5.4772,0 -6.06858,-0.009 -6.10034,-0.0918 z m 16.30193,-21.76906 c 1.25003,-0.36491 1.89743,-0.91201 2.26091,-1.91062 0.24366,-0.66944 0.24352,-1.29502 -4.1e-4,-1.95841 -0.33971,-0.92379 -0.7088,-1.23717 -1.99978,-1.69783 -0.10336,-0.0369 -0.97041,-0.0737 -2.13934,-0.0907 -1.84802,-0.027 -1.97011,-0.0225 -2.04214,0.0763 -0.10893,0.14938 -0.11293,5.59929 -0.004,5.7093 0.0558,0.0566 0.44975,0.0686 1.72351,0.0529 1.60208,-0.0197 1.66742,-0.0251 2.20144,-0.18095 z"
         style="display:inline;fill:#ffffff;fill-opacity:1" />
      <path
         transform="matrix(1.0475028,0,0,1.0475028,554.19123,30.66952)"
         style="display:inline;fill:#ffffff;fill-opacity:1"
         d="m -314.79984,234.11574 c 0,0 0.0316,-37.51228 0.0339,-37.50078 0.0799,-0.0665 1.61501,-0.0512 7.99854,-0.0648 7.48098,0.10629 13.16301,-0.584 18.34137,2.59161 3.06316,2.11972 4.53886,5.85978 4.61973,9.36257 0.20942,2.36904 -0.582,4.58421 -1.6072,6.409 -0.80998,1.38734 -2.53246,2.96555 -4.18143,3.8312 -0.40039,0.21018 -0.45321,0.25677 -0.45321,0.39971 0,0.0891 0.0744,0.27367 0.16526,0.41038 3.17917,4.74688 7.00133,10.44347 9.29724,14.57411 -0.24016,0.0916 -14.63121,0.0135 -14.74114,-0.0784 -2.62855,-4.26016 -4.84908,-9.1834 -7.16667,-13.09159 -0.14909,4.95068 0.1473,9.47371 -0.1236,13.17984 -0.3311,0.0232 -11.73698,0.0367 -12.18279,-0.0226 z m 16.17756,-21.88007 c 1.29289,-0.33963 1.88171,-0.80827 2.27869,-1.81363 0.14824,-0.37542 0.17306,-0.5174 0.17788,-1.01724 0.005,-0.52395 -0.0137,-0.63387 -0.19157,-1.12091 -0.16226,-0.44442 -0.2499,-0.59351 -0.49518,-0.84234 -0.30542,-0.30984 -0.33379,-0.32792 -0.92978,-0.59275 -0.48656,-0.21621 -1.13487,-0.26825 -3.09942,-0.24878 l -1.65109,0.0163 -0.0151,2.8465 c -0.008,1.56559 -0.002,2.88135 0.0145,2.92392 0.024,0.0628 0.33281,0.0723 1.63721,0.0506 1.55875,-0.026 1.62788,-0.0321 2.27385,-0.20177 z"
         id="path58674"
         inkscape:connector-curvature="0"
         sodipodi:nodetypes="ccccccssccccccccsssccccccccc" />
    </g>
    <g
       style="display:inline"
       inkscape:label="pro"
       id="g58854"
       inkscape:groupmode="layer">
      <path
         sodipodi:nodetypes="sssssssscs"
         transform="matrix(1.0475028,0,0,1.0475028,554.19123,30.669504)"
         id="path58860"
         d="m -244.86914,195.0918 c -13.01388,0.0201 -20.56056,8.90394 -20.56055,19.86718 0,10.96323 7.96817,19.91611 20.49805,19.91211 12.68596,-0.004 20.68359,-8.9645 20.68359,-19.92773 1e-5,-10.96324 -7.70034,-19.87156 -20.62109,-19.85156 z m 0.13281,11.70508 c 3.84175,4.2e-4 7.33849,3.3641 7.06836,8.42187 -0.25823,4.83495 -3.43138,8.03554 -7.25586,7.93164 -4.02789,-0.10939 -7.15197,-3.45007 -7.06836,-8.42187 0.0952,-5.64403 3.9313,-7.93202 7.25586,-7.93164 z"
         style="display:inline;fill:#fb980d;fill-opacity:0.50196078;stroke:none;stroke-width:1;stroke-miterlimit:4;stroke-dasharray:none;stroke-opacity:1"
         inkscape:connector-curvature="0" />
      <path
         style="display:inline;fill:#fb980d;fill-opacity:0.50196078"
         d="m -364.0764,234.03547 c -0.0194,-0.0505 -0.0351,-8.46561 -0.0351,-18.70015 0,-16.83916 0.009,-18.61696 0.091,-18.69956 0.0819,-0.0821 0.88896,-0.091 8.03821,-0.0892 8.50348,0.002 10.39539,0.0395 11.24934,0.22195 0.28676,0.0613 0.72995,0.12986 0.98486,0.15247 5.04591,0.80681 9.20391,4.441 10.45569,8.88851 10e-4,0.0959 0.0697,0.43566 0.15169,0.75515 0.13701,0.53374 0.15167,0.71049 0.18066,2.17829 0.15077,4.99023 -1.96849,9.24333 -6.21134,11.47208 -3.25492,1.7472 -7.26738,1.96863 -9.44307,1.98835 -1.93942,0.0173 -3.03831,0.0481 -3.08494,0.0866 -0.0571,0.047 -0.0724,1.29419 -0.0724,5.87887 0,4.44852 -0.0163,5.83552 -0.0695,5.88881 -0.0532,0.0534 -1.49458,0.0697 -6.1347,0.0697 -5.4772,0 -6.06858,-0.009 -6.10034,-0.0918 z m 16.30193,-21.76906 c 1.25003,-0.36491 1.89743,-0.91201 2.26091,-1.91062 0.24366,-0.66944 0.24352,-1.29502 -4.1e-4,-1.95841 -0.33971,-0.92379 -0.7088,-1.23717 -1.99978,-1.69783 -0.10336,-0.0369 -0.97041,-0.0737 -2.13934,-0.0907 -1.84802,-0.027 -1.97011,-0.0225 -2.04214,0.0763 -0.10893,0.14938 -0.11293,5.59929 -0.004,5.7093 0.0558,0.0566 0.44975,0.0686 1.72351,0.0529 1.60208,-0.0197 1.66742,-0.0251 2.20144,-0.18095 z"
         id="path58862"
         inkscape:connector-curvature="0"
         sodipodi:nodetypes="csccscccccccscscccscccccccc"
         transform="matrix(1.0475028,0,0,1.0475028,554.19123,30.66952)" />
      <path
         sodipodi:nodetypes="ccccccssccccccccsssccccccccc"
         inkscape:connector-curvature="0"
         id="path58864"
         d="m -314.79984,234.11574 c 0,0 0.0316,-37.51228 0.0339,-37.50078 0.0799,-0.0665 1.61501,-0.0512 7.99854,-0.0648 7.48098,0.10629 13.16301,-0.584 18.34137,2.59161 3.06316,2.11972 4.53886,5.85978 4.61973,9.36257 0.20942,2.36904 -0.582,4.58421 -1.6072,6.409 -0.80998,1.38734 -2.53246,2.96555 -4.18143,3.8312 -0.40039,0.21018 -0.45321,0.25677 -0.45321,0.39971 0,0.0891 0.0744,0.27367 0.16526,0.41038 3.17917,4.74688 7.00133,10.44347 9.29724,14.57411 -0.24016,0.0916 -14.63121,0.0135 -14.74114,-0.0784 -2.62855,-4.26016 -4.84908,-9.1834 -7.16667,-13.09159 -0.14909,4.95068 0.1473,9.47371 -0.1236,13.17984 -0.3311,0.0232 -11.73698,0.0367 -12.18279,-0.0226 z m 16.17756,-21.88007 c 1.29289,-0.33963 1.88171,-0.80827 2.27869,-1.81363 0.14824,-0.37542 0.17306,-0.5174 0.17788,-1.01724 0.005,-0.52395 -0.0137,-0.63387 -0.19157,-1.12091 -0.16226,-0.44442 -0.2499,-0.59351 -0.49518,-0.84234 -0.30542,-0.30984 -0.33379,-0.32792 -0.92978,-0.59275 -0.48656,-0.21621 -1.13487,-0.26825 -3.09942,-0.24878 l -1.65109,0.0163 -0.0151,2.8465 c -0.008,1.56559 -0.002,2.88135 0.0145,2.92392 0.024,0.0628 0.33281,0.0723 1.63721,0.0506 1.55875,-0.026 1.62788,-0.0321 2.27385,-0.20177 z"
         style="display:inline;fill:#fb980d;fill-opacity:0.50196078"
         transform="matrix(1.0475028,0,0,1.0475028,554.19123,30.66952)" />
    </g>
    <g
       inkscape:label="main box"
       inkscape:groupmode="layer"
       id="g55583"
       transform="translate(77.02353,-279.91101)"
       style="display:inline">
      <path
         style="fill:#fb970d;fill-opacity:1;stroke:none;stroke-width:1.26900005;stroke-miterlimit:4;stroke-dasharray:none;stroke-opacity:1"
         d="m 0,137.66406 0,148.44922 491.38086,0 0,-148.44922 -491.38086,0 z m 297.68945,97.36524 c 13.53452,-0.0209 21.60158,9.31089 21.60157,20.79492 0,11.48401 -8.37744,20.86886 -21.66602,20.87305 -13.12508,0.004 -21.47266,-9.37341 -21.47266,-20.85743 -10e-6,-11.48402 7.90504,-20.78949 21.53711,-20.81054 z m -116.39062,1.52343 c 8.90742,0.002 10.88869,0.0413 11.7832,0.23243 0.30038,0.0642 0.76423,0.13647 1.03125,0.16015 5.28561,0.84514 9.64188,4.65177 10.95313,9.31055 0.001,0.10045 0.0723,0.45635 0.1582,0.79102 0.14352,0.55909 0.15909,0.74372 0.18945,2.28124 0.15793,5.22728 -2.06146,9.68296 -6.50586,12.01758 -3.40953,1.8302 -7.61158,2.06138 -9.89062,2.08203 -2.03155,0.0181 -3.18358,0.0515 -3.23242,0.0918 -0.0598,0.0492 -0.0762,1.35574 -0.0762,6.1582 0,4.65984 -0.0165,6.11215 -0.0723,6.16797 -0.0557,0.0559 -1.56524,0.0723 -6.42578,0.0723 -5.73738,0 -6.35736,-0.009 -6.39063,-0.0957 -0.0203,-0.0529 -0.0371,-8.86719 -0.0371,-19.58789 0,-17.63907 0.01,-19.50137 0.0957,-19.5879 0.0858,-0.086 0.93106,-0.0956 8.41992,-0.0937 z m 51.55273,0.004 c 7.83635,0.11134 13.78855,-0.61162 19.21289,2.71484 3.20867,2.22042 4.75514,6.13746 4.83985,9.80664 0.21936,2.48158 -0.6097,4.80142 -1.6836,6.7129 -0.84845,1.45324 -2.65356,3.1069 -4.38086,4.01367 -0.41941,0.22016 -0.47461,0.27019 -0.47461,0.41992 0,0.0933 0.0787,0.28648 0.17383,0.42969 3.33019,4.97237 7.33331,10.93876 9.73828,15.26562 -0.25156,0.096 -15.32625,0.0142 -15.4414,-0.082 -2.75342,-4.46253 -5.08013,-9.61905 -7.50782,-13.71289 -0.15617,5.18585 0.15487,9.92251 -0.1289,13.80469 -0.34683,0.0243 -12.29473,0.0387 -12.76172,-0.0234 0,0 0.0327,-39.2933 0.0352,-39.28125 0.0837,-0.0697 1.69214,-0.0541 8.3789,-0.0684 z m -46.68945,10.52734 c -0.28338,0.0106 -0.33532,0.0361 -0.37305,0.0879 -0.1141,0.15647 -0.11801,5.86523 -0.004,5.98046 0.0585,0.0593 0.47042,0.0731 1.80468,0.0566 1.67819,-0.0206 1.74726,-0.0262 2.30664,-0.18945 1.30941,-0.38224 1.9884,-0.95591 2.36914,-2.00195 0.25524,-0.70124 0.25357,-1.35588 -0.002,-2.05078 -0.35585,-0.96768 -0.74144,-1.29676 -2.09375,-1.7793 -0.10827,-0.0386 -1.01773,-0.0759 -2.24219,-0.0937 -0.9679,-0.0141 -1.48224,-0.0204 -1.76562,-0.01 z m 52.85547,0 -1.73047,0.0176 -0.0156,2.98047 c -0.008,1.63996 -0.002,3.01791 0.0156,3.0625 0.0251,0.0658 0.34848,0.0774 1.71484,0.0547 1.6328,-0.0272 1.70421,-0.0352 2.38086,-0.21289 1.35431,-0.35577 1.97088,-0.84532 2.38672,-1.89844 0.15528,-0.39325 0.18245,-0.54282 0.1875,-1.06641 0.005,-0.54883 -0.0148,-0.66365 -0.20117,-1.17382 -0.16997,-0.46553 -0.26065,-0.62217 -0.51758,-0.88282 -0.31993,-0.32455 -0.35031,-0.34368 -0.97461,-0.62109 -0.50967,-0.22648 -1.18822,-0.28016 -3.24609,-0.25977 z m 58.8125,0.20508 c -3.48249,-4e-4 -7.50184,2.39646 -7.60156,8.3086 -0.0876,5.20797 3.18507,8.70768 7.40429,8.82226 4.00616,0.10884 7.32912,-3.24397 7.59961,-8.30859 0.28296,-5.29803 -3.3781,-8.82183 -7.40234,-8.82227 z m -261.957033,3.91016 119.546873,0 0,3.01172 -119.546873,0 0,-3.01172 z m 299.480473,0 119.54687,0 0,3.01172 -119.54687,0 0,-3.01172 z"
         transform="translate(-77.02353,279.91099)"
         id="rect57396"
         inkscape:connector-curvature="0" />
      <path
         style="fill:#ffffff;fill-opacity:1"
         d="m -15.865327,439.89146 -13.4375,30.51367 c -7.3901,16.78315 -13.465633,30.57318 -13.501953,30.64258 -0.0367,0.0694 1.813538,0.125 4.111328,0.125 l 4.177734,0 3.126954,-7.44922 3.125,-7.44922 15.273437,0 15.273438,0 3.064453,7.4082 3.064453,7.40625 4.267578,0.0449 4.267578,0.0449 -0.101562,-0.38086 c -0.0555,-0.20993 -5.883855,-13.98031 -12.953125,-30.59961 l -12.853516,-30.2168 -3.453125,-0.0449 -3.451172,-0.0449 z m 367.148437,0 c -6.37676,0.008 -12.37723,0.0822 -12.42383,0.2168 -0.0843,0.24341 -8.50195,60.46625 -8.50195,60.82617 0,0.20313 1.02112,0.24023 6.72266,0.24023 3.69803,0 6.75667,-0.0575 6.79687,-0.12695 0.0402,-0.0694 0.8199,-5.56403 1.73242,-12.20899 l 1.65821,-12.08203 3.28125,0.0469 3.28125,0.0449 3.99218,10.35352 c 2.1957,5.69405 4.30554,11.16684 4.6875,12.1621 l 0.69532,1.81055 8.06836,0 c 5.24749,0 8.07031,-0.0591 8.07031,-0.16797 0,-0.0922 -2.58519,-5.75541 -5.74414,-12.58398 -3.15895,-6.82856 -5.77998,-12.58658 -5.82617,-12.79492 -0.0665,-0.29931 -0.011,-0.37891 0.26953,-0.37891 0.61893,0 3.59111,-1.01654 4.9707,-1.70117 6.33952,-3.14571 10.27048,-10.22371 10.27148,-18.49805 0,-3.13684 -0.22447,-4.18078 -1.44921,-6.72461 -0.73885,-1.53443 -1.03169,-1.94189 -2.30274,-3.19922 -0.80086,-0.79219 -1.88529,-1.69165 -2.41016,-2 -2.89225,-1.69917 -6.31959,-2.63604 -11.1621,-3.05078 -1.54817,-0.13259 -8.30098,-0.19159 -14.67774,-0.18359 z m -158.71094,0.002 -10.42382,23.90625 c -5.73275,13.14839 -10.46759,23.9053 -10.52149,23.9043 -0.0541,0 -3.9185,-8.84618 -8.58789,-19.6543 -4.66939,-10.8082 -9.31901,-21.56261 -10.33203,-23.90039 l -1.8418,-4.25195 -5.44922,0 -5.44922,0 0,30.63867 0,30.63672 3.70118,0 3.70312,0 0.043,-25.5957 0.043,-25.59766 10.94141,25.60156 10.94335,25.59961 2.26563,-0.0449 2.26758,-0.0469 10.89258,-25.47461 c 5.99055,-14.01162 10.93448,-25.52041 10.98828,-25.57421 0.0541,-0.0541 0.0977,11.43111 0.0977,25.52148 l 0,25.61914 3.66211,-0.0449 3.66211,-0.0449 0,-30.55469 0,-30.55273 -5.30273,-0.0449 -5.30274,-0.0449 z m -167.58203,0.004 0,30.63867 0,30.63672 17.67578,0 17.67578,0 0,-3.45117 0,-3.45117 -13.97265,0 -13.97266,0 0,-27.18555 0,-27.1875 -3.70312,0 -3.70313,0 z m 63.80078,0 0,30.63867 0,30.63672 20.03125,0 20.03321,0 0,-3.45117 0,-3.45117 -16.33008,0 -16.32813,0 0,-10.77344 0,-10.77344 14.56055,0 14.5625,0 0,-3.45117 0,-3.45117 -14.5625,0 -14.56055,0 0,-9.50977 0,-9.51172 15.57227,0 15.57031,0 0,-3.45117 0,-3.45117 -19.27539,0 -19.27344,0 z m 224.40235,0 -0.0859,0.3789 c -0.0464,0.20827 -1.94136,13.71064 -4.21094,30.00586 -2.26958,16.29521 -4.17176,29.9126 -4.22656,30.25977 l -0.0977,0.63086 6.83203,0 c 3.75792,0 6.83204,-0.0643 6.83204,-0.14258 0,-0.0785 1.89435,-13.68524 4.20898,-30.23828 2.3147,-16.55305 4.20898,-30.27687 4.20898,-30.49609 l 0,-0.39844 -6.73046,0 -6.73047,0 z m -37.85742,0.0742 c -3.28942,-0.003 -7.81126,0.01 -12.77344,0.0391 l -18.04492,0.10742 -3.28907,5.61328 c -1.80916,3.08728 -3.28906,5.64836 -3.28906,5.69336 0,0.0451 5.60448,0.1012 12.45508,0.125 l 12.45508,0.043 -2.28321,3.99805 -2.28125,3.99804 -12.59375,0 -12.59179,0 -2.79883,4.78516 c -1.5392,2.63137 -2.79883,4.82921 -2.79883,4.88281 0,0.0534 5.64329,0.0957 12.54102,0.0957 6.89767,0 12.53625,0.0575 12.53125,0.12695 -0.007,0.0695 -0.85979,1.60271 -1.90039,3.4082 l -1.89258,3.28321 -12.7461,0.084 -12.74609,0.084 -3.25977,5.55665 -3.25781,5.55468 12.75977,0.043 12.76172,0.043 -3.86133,6.75195 c -2.12299,3.71362 -3.85938,6.78081 -3.85938,6.81641 0,0.0352 3.35852,0.0644 7.46485,0.0644 l 7.46679,0 3.4336,-6.47656 0,0.006 3.43359,-6.47656 11.81445,-0.006 11.8125,-0.008 0.23047,0.79882 c 0.12704,0.43983 0.90935,3.35772 1.73828,6.48242 l 1.50782,5.67969 7.63672,0 7.63671,0 -0.0762,-0.3789 c -0.14527,-0.72185 -17.85728,-60.64308 -17.96093,-60.76368 -0.0288,-0.0333 -2.08561,-0.0517 -5.375,-0.0547 z m -204.38868,0.0312 c -1.52624,0.0146 -2.26136,0.30743 -3.36718,1.34179 -1.95672,1.8303 -2.1466,4.90034 -0.42969,6.93164 1.38673,1.64074 4.00413,2.12057 6.09961,1.11719 2.91345,-1.39504 3.60117,-5.28616 1.36718,-7.73047 -1.14768,-1.25573 -2.07381,-1.67565 -3.66992,-1.66015 z m -83.644528,9.57031 c 0.02318,-0.0132 0.04472,-0.0123 0.06641,0 0.02892,0.0164 0.05798,0.0549 0.08984,0.11133 0.12364,0.21881 10.200964,25.19185 11.589844,28.7207 l 0.349609,0.88477 -12.361328,0 -12.361328,0 0.3125,-0.7168 c 0.27218,-0.6226 11.282453,-26.69094 12.033203,-28.49023 0.129476,-0.3103 0.21173,-0.47027 0.28125,-0.50977 z m 363.498048,1.91211 6.14844,0.0703 c 5.6682,0.0638 6.25434,0.0962 7.48242,0.43359 3.64224,1.00083 5.08214,3.15953 4.48242,6.71485 -0.52474,3.11099 -2.53239,5.15891 -5.92969,6.04883 -0.87433,0.22907 -2.22248,0.29226 -7.55273,0.35156 l -6.49024,0.0723 0.92969,-6.8457 0.92969,-6.8457 z m -78.59766,6.63086 c 0.0249,0.0257 1.07857,4.09939 2.33985,9.05273 1.2612,4.95342 2.33321,9.13881 2.38281,9.30078 0.085,0.27743 -0.33712,0.29493 -7.24414,0.29493 -4.03369,0 -7.33399,-0.0498 -7.33399,-0.11133 0,-0.15962 9.80067,-18.59361 9.85547,-18.53711 z m -204.62304,2.48047 0,20.29101 0,20.29297 3.4082,-0.0469 3.41016,-0.0449 0,-20.20117 0,-20.19922 -3.41016,-0.0469 -3.4082,-0.0449 z"
         id="path55585"
         inkscape:connector-curvature="0" />
      <g
         style="display:inline"
         id="g58735"
         transform="matrix(1.0475028,0,0,1.0475028,477.1677,310.58053)">
        <g
           id="g58682">
          <g
             id="g58709" />
        </g>
      </g>
    </g>
  </g>
  <g
     inkscape:label="certified"
     inkscape:groupmode="layer"
     id="g57442"
     transform="translate(77.02353,-279.91101)"
     style="display:inline"
     sodipodi:insensitive="true">
    <path
       style="fill:#fb970c;fill-opacity:1"
       d="m 174.86489,691.2681 c -0.23863,-0.042 -0.40026,-0.2238 -0.46063,-0.5175 -0.0906,-0.4411 -0.2028,-3.4693 -0.36304,-9.7955 -0.0437,-1.7128 -0.11838,-4.4778 -0.16675,-6.1444 -0.0485,-1.6666 -0.0798,-3.1816 -0.0699,-3.3668 0.0215,-0.4071 0.0257,-0.2717 -0.076,-2.4409 -0.26219,-5.5799 -0.29213,-8.5477 -0.0874,-8.6742 0.31868,-0.197 4.1378,-0.3174 4.25105,-0.134 0.0534,0.087 0.13986,1.8581 0.19143,3.936 0.11775,4.7484 0.24285,9.0134 0.35021,11.9425 0.13107,3.5762 0.28881,9.9519 0.31238,12.6254 l 0.0215,2.4409 -1.34673,0.033 c -0.7407,0.019 -1.53609,0.062 -1.76758,0.097 -0.23149,0.035 -0.58628,0.034 -0.78845,0 z m -37.42451,-2.9264 c -0.41661,-0.081 -1.13624,-0.2044 -1.59915,-0.2751 -0.80073,-0.1224 -0.84065,-0.1532 -0.81979,-0.6321 1.47216,-8.88474 2.94009,-16.8046 4.30012,-24.1998 0.24223,-1.2637 0,-1.5717 -1.35111,-1.7296 -0.99578,-0.12186 -1.9721,-0.33318 -2.95829,-0.5078 -0.27072,-0.036 -0.56473,-0.1385 -0.65331,-0.227 -0.13494,-0.135 0.23267,-3.2612 0.49313,-4.1944 0.0672,-0.2396 1.33821,-0.159 2.67261,0.1693 3.3007,0.61156 6.93151,1.27903 9.932,1.7447 2.38941,0.3686 2.8325,0.5289 2.70553,0.9783 -0.0911,0.3227 -0.59051,3.5399 -0.59821,3.8539 -0.007,0.2145 -0.88021,0.1408 -2.45255,-0.2068 -0.82858,-0.1832 -1.77887,-0.3347 -2.11169,-0.3367 -1.01849,-0.01 -1.13091,0.2477 -1.66507,3.7586 -0.0824,0.5415 -0.2683,1.5263 -0.41322,2.1884 -0.97373,4.79929 -1.82024,10.10229 -2.61924,14.4184 -0.2871,1.49215 -0.57877,3.01786 -0.7852,4.503 l -0.17623,0.8839 -0.53227,-0.021 c -0.33573,-0.012 -0.95133,-0.087 -1.36802,-0.1676 z m 71.71411,-2.6822 c -2.05851,-9.41952 -4.70776,-19.12783 -6.48944,-27.2196 -0.36886,-0.8828 -0.31667,-1.1987 0.21715,-1.3153 3.93769,-1.12539 7.01701,-1.75047 10.87715,-2.6902 1.26267,-0.3781 1.71622,-0.3271 1.93739,0.2177 0.22823,0.5623 0.70944,2.7988 0.74971,3.4842 0.0256,0.4349 -0.0437,0.5151 -0.56008,0.6488 -2.91776,0.64456 -5.59682,1.13085 -7.99098,2.11702 l 0.83528,3.48548 c 0.44157,1.84257 0.90919,3.4855 1.05356,3.6475 0.31764,0.3566 0.93059,0.21062 1.80951,0.027 2.28882,-0.43107 4.30287,-0.84487 6.44667,-1.3378 0.0395,0.039 0.17181,0.5119 0.29345,1.0493 0.12164,0.5374 0.34252,1.4635 0.49084,2.0581 0.14832,0.5945 0.2107,1.133 0.13862,1.1965 -1.73857,0.44456 -3.56082,0.81093 -5.41487,1.21582 -1.47468,0.2465 -2.36585,0.78608 -2.48693,1.26848 -0.0596,0.2375 0.0485,0.9793 0.24819,1.7015 0.80754,3.50268 1.79972,7.17829 2.46004,10.304 0.15477,0.87274 0.12032,0.89751 -0.60985,1.1284 -1.06325,0.26625 -2.04088,0.51272 -3.10433,0.7959 -0.49656,0.10579 -0.75204,-1.15829 -0.90108,-1.7828 z m -108.41198,-7.6436 c -1.64019,-0.6809 -3.04486,-1.4486 -3.14959,-1.7215 0.130413,-0.88203 0.367647,-1.8178 0.69104,-2.6321 0.4216,-0.7354 0.82442,-1.7277 2.66166,-6.557 0.35354,-0.9292 0.29262,-2.169 -0.1495,-3.043 -0.38529,-0.7616 -0.5219,-0.8673 -2.03768,-1.5756 l -1.93709,-0.87639 c -0.29687,0.31468 -0.815082,1.31176 -1.148398,2.0862 -1.188172,2.53814 -2.369987,5.1146 -3.329922,7.49489 -0.39055,0.9722 -0.81805,1.9129 -0.95015,2.0905 -0.23579,0.3172 -0.25728,0.3173 -1.21082,0.01 -1.020621,-0.44664 -2.005795,-0.81492 -2.9775,-1.2342 -0.11845,-0.1917 0.44822,-1.6477 1.4288,-3.6711 3.55997,-8.44099 7.70784,-17.00804 10.92886,-24.6699 4.07355,1.48785 12.09291,3.93669 12.1647,8.6237 -0.007,2.1156 -0.25035,3.1397 -1.17887,4.966 -0.32957,0.6481 -0.73738,1.4557 -0.90628,1.7946 -0.16898,0.3388 -0.36554,0.6418 -0.43686,0.6733 -0.0713,0.031 -0.33503,0.3324 -0.586,0.6687 -0.59689,0.7997 -1.80251,1.4991 -3.16283,1.8349 -0.67063,0.1656 -1.11261,0.3662 -1.14193,0.5184 -0.0263,0.1364 0.23288,0.6084 0.57596,1.0488 0.50456,0.6476 0.63854,0.9794 0.70133,1.7369 -0.0177,2.64329 -0.83919,4.6428 -1.97114,6.9591 -0.1233,0.3241 -0.37662,0.9301 -0.56285,1.3467 -0.53326,1.1931 -0.92333,2.5259 -1.04698,3.5772 -0.0624,0.5324 -0.16516,0.9613 -0.22795,0.9531 -0.0631,-0.01 -0.53077,-0.1878 -1.04005,-0.3992 z m 6.10859,-24.2475 c -0.007,-1.1849 -0.37136,-2.1422 -1.08295,-2.8197 -0.95765,-0.85183 -2.31556,-1.25114 -3.39131,-1.48724 -0.34391,0.086 -0.61445,0.55174 -1.34836,2.07734 -0.79517,1.58872 -1.472356,3.33494 -2.10137,4.818 -0.55197,1.1147 -0.611668,1.75899 0.01453,2.02459 3.68937,2.05675 7.75595,-0.42268 7.90946,-4.61299 z m 173.85365,1.4464 c -0.18457,-0.3618 -0.39443,-0.6838 -0.46631,-0.7155 -0.13078,-0.057 -0.87897,-0.9326 -1.43711,-1.6805 -0.16295,-0.2185 -0.69884,-0.8895 -1.19079,-1.4913 -0.49202,-0.6018 -1.32019,-1.7003 -1.84042,-2.441 -0.52023,-0.7407 -1.07512,-1.4773 -1.233,-1.637 -0.15796,-0.1597 -0.40844,-0.471 -0.55676,-0.6918 -0.14825,-0.2207 -0.83773,-1.1394 -1.53214,-2.0413 -0.6944,-0.9021 -1.37612,-1.8083 -1.51501,-2.0139 -0.1389,-0.2055 -0.82069,-1.0824 -1.51509,-1.9485 -0.6944,-0.8662 -1.48979,-1.8961 -1.76758,-2.2887 -0.96283,-1.3612 -2.18966,-2.9838 -2.45803,-3.2509 -0.14832,-0.1475 -0.33774,-0.3905 -0.42084,-0.54 -0.16322,-0.2931 -0.98404,-1.3375 -1.44689,-1.8407 -0.15705,-0.1709 -0.40441,-0.5403 -0.54954,-0.821 -0.2631,-0.5088 -0.26206,-0.5115 0.36983,-0.933 1.10637,-0.7379 1.47384,-1.012 1.53165,-1.1422 0.0312,-0.07 0.44759,-0.3891 0.92589,-0.7099 0.4783,-0.3208 1.15787,-0.8509 1.51024,-1.178 0.35236,-0.327 0.70597,-0.5946 0.78589,-0.5946 0.0798,0 0.54906,-0.3457 1.04275,-0.7683 0.49361,-0.4225 1.38991,-1.0954 1.99172,-1.4951 0.6018,-0.3998 1.27784,-0.9253 1.50226,-1.1677 0.52397,-0.5658 0.94017,-0.5587 1.30862,0.022 0.16142,0.2546 0.56937,0.8038 0.90648,1.2205 0.33712,0.4166 0.75595,1.0097 0.93075,1.3179 l 0.31785,0.5605 -0.42084,0.3233 c -0.23142,0.1778 -0.5291,0.418 -0.66135,0.5337 -0.13231,0.1158 -0.43532,0.3401 -0.6734,0.4985 -0.238,0.1584 -0.66009,0.4857 -0.93781,0.7275 -0.27779,0.2416 -0.92167,0.7368 -1.43088,1.1003 -1.6205,1.1567 -2.52512,2.0309 -2.52512,2.4402 0,0.2098 0.14978,0.5583 0.33282,0.7745 0.40844,0.4824 2.0453,2.6573 2.27644,3.0248 0.39083,0.6212 1.53214,1.9811 1.73611,2.0687 0.33192,0.1423 1.14152,-0.3349 2.66242,-1.5696 2.71302,-2.2022 3.91864,-3.0467 4.3496,-3.0467 0.12947,0 0.2823,0.1479 0.33962,0.3286 0.0575,0.1808 0.34654,0.5895 0.64263,0.9083 0.29608,0.3188 0.78838,0.9349 1.09403,1.3692 0.65642,0.9327 0.70307,0.8434 -1.19834,2.2948 -0.75755,0.5783 -1.84874,1.4166 -2.4247,1.8629 -0.57609,0.4463 -1.11108,0.8115 -1.18899,0.8115 -0.0779,0 -0.35589,0.2236 -0.61781,0.4969 -0.43866,0.4579 -0.45959,0.5368 -0.26587,1.0044 0.11561,0.2791 0.32041,0.599 0.45501,0.7107 0.13467,0.1118 0.50277,0.5878 0.81805,1.0577 0.31529,0.47 0.78499,1.0818 1.04386,1.3596 0.43671,0.4686 0.7242,0.8513 1.40571,1.8711 0.14632,0.219 0.50624,0.6621 0.79983,0.9847 0.47365,0.5205 0.58392,0.5676 0.97863,0.4175 0.24473,-0.093 0.72899,-0.3942 1.07616,-0.6691 1.66053,-1.08233 2.88545,-2.27984 4.4546,-3.4145 0.27779,-0.1406 0.68865,-0.4521 0.91314,-0.6924 0.22442,-0.2403 0.4932,-0.4369 0.5973,-0.4369 0.23489,0 2.61682,3.2584 2.60594,3.5647 -3.07693,2.07455 -5.89289,4.93172 -8.76775,6.9235 -0.52134,0.3496 -1.08232,0.7841 -1.24658,0.9656 -0.49556,0.5476 -1.03374,0.4231 -1.41688,-0.3279 z m 9.2563,-48.05758 c 0,-0.0823 0.43,-0.67445 0.96235,-1.3159 1.0284,-1.23215 1.93327,-2.59606 2.98166,-3.77413 1.48186,-1.74513 3.33266,-3.56934 5.31625,-3.89313 1.57767,-0.22997 4.61117,0.48162 5.7847,1.35685 2.72723,1.6407 4.73391,3.12501 6.9335,4.84731 0.68182,0.52882 6.01536,5.36938 6.47821,6.25328 0.83803,1.19553 1.67692,2.45352 2.07641,3.8841 0.50207,1.9274 -0.11567,4.4201 -1.48313,5.9847 -1.72835,1.99713 -3.341,4.27268 -5.03992,6.0768 -7.96845,-6.10463 -16.06708,-12.97592 -24.01003,-19.41988 z m 24.17637,12.72918 c 0.19913,-0.1599 0.74251,-0.8053 1.20764,-1.4341 0.82422,-1.1142 0.84452,-1.1697 0.80079,-2.1884 -0.0485,-1.1256 -0.48481,-2.183 -1.25837,-3.0486 -1.6519,-1.8483 -4.46458,-4.4322 -6.24886,-5.74016 -2.00466,-1.67017 -3.94925,-3.24507 -6.22606,-4.26484 -0.72698,-0.33622 -1.17194,-0.4241 -2.07178,-0.40934 -1.37383,0.0222 -1.67373,0.18686 -3.10461,1.70174 -1.45264,1.53789 -1.41382,1.88672 0.36803,3.30664 4.65327,3.69247 8.62977,6.97899 12.97277,10.50496 0.46298,0.3188 0.99326,0.716 1.17839,0.8828 1.22832,0.93412 1.71954,1.2216 2.38206,0.6893 z m -286.40474,4.4971 c -1.812099,-0.27573 -3.434577,-1.37647 -4.51587,-2.7638 -0.32811,-0.4298 -0.82817,-1.2873 -1.1113,-1.9055 -1.01696,-2.2202 -0.83378,-4.0557 0.65851,-6.5981 0.75886,-1.293 1.3644,-2.0216 3.14938,-3.7892 2.09444,-2.07411 5.51177,-5.04107 6.27936,-5.45186 3.863256,-2.86633 8.417761,-6.77837 13.51615,-4.79311 1.721577,0.97707 2.95625,2.29513 3.79437,3.82937 0.9751,1.43511 1.03928,3.90173 0.1452,5.5853 -0.63875,1.2028 -1.12834,1.9725 -1.5119,2.3771 -0.18512,0.1953 -0.63965,0.6848 -1.01003,1.0876 -0.93075,1.0124 -2.07649,1.8732 -2.35234,1.7673 -0.12662,-0.048 -0.76988,-0.7865 -1.42942,-1.64 l -1.19931,-1.5518 0.50248,-0.5207 c 2.11946,-2.19692 2.56421,-2.74723 2.86085,-3.54019 0.44822,-1.19779 0.19012,-2.24594 -0.7513,-3.05166 -0.55586,-0.47573 -0.79497,-0.56666 -1.50275,-0.57117 -1.07297,-0.007 -1.92948,0.23288 -2.86896,0.80294 -4.455478,2.6732 -8.706414,6.35011 -12.1891,9.70508 -0.49029,0.4597 -1.22295,1.33 -1.6282,1.9341 -0.60478,0.9016 -0.73682,1.2374 -0.73682,1.8744 0,0.8321 0.59204,1.9331 1.30966,2.4358 2.54782,0.88345 4.460495,-0.63995 6.54668,-2.1561 0.93629,-0.6888 1.49444,-0.8001 1.64421,-0.3282 0.0527,0.1667 0.54151,0.7726 1.08579,1.3464 1.3249,1.3966 1.35408,1.5737 0.38203,2.3164 -2.112452,1.5313 -4.440725,3.2688 -7.09658,3.6388 -0.41661,0.046 -1.30349,0.028 -1.97079,-0.039 z"
       id="path57444"
       inkscape:connector-curvature="0"
       sodipodi:nodetypes="cccccccccssccsccccccccccccccccccccccccccccccccscccscccccccccccccccccccccccccccccccccccccccccccccccccscsccccccccccscsccccccccccccsccccsccsccscccccccccccscccccccccccccccccccccccsccccccccccccscccccccsccccscccccccc" />
    <path
       transform="translate(0,4.7412109e-6)"
       sodipodi:nodetypes="cccccccccssccscc"
       inkscape:connector-curvature="0"
       id="path55416"
       d="m 250.95773,673.50288 c -0.23548,0.057 -0.45638,-0.0449 -0.62927,-0.28984 -0.2596,-0.36795 -1.57466,-3.098 -4.25397,-8.83105 -0.7257,-1.55207 -1.90101,-4.05596 -2.61249,-5.56383 -0.71162,-1.50783 -1.34677,-2.88361 -1.41184,-3.05728 -0.14327,-0.38166 -0.0852,-0.25927 -1.04677,-2.20636 -2.47398,-5.00834 -3.68948,-7.71598 -3.5525,-7.91386 0.21317,-0.3081 3.66473,-1.94728 3.84192,-1.82455 0.0837,0.0583 0.87199,1.64673 1.75106,3.53023 2.00876,4.30419 3.83074,8.16246 5.10169,10.80365 1.55172,3.22467 4.24855,9.00408 5.34038,11.44458 l 0.99684,2.22818 -1.2209,0.56936 c -0.67116,0.31392 -1.38282,0.67173 -1.58094,0.79648 -0.19812,0.12473 -0.52365,0.26585 -0.72253,0.31562 z"
       style="display:inline;fill:#fb970c;fill-opacity:1"
       inkscape:transform-center-x="-8.5507108"
       inkscape:transform-center-y="13.027237" />
    <path
       transform="translate(0,4.7412109e-6)"
       sodipodi:nodetypes="ccccscsccccccccccscsccccccccccccsccccsccsccscccccccccccsccccc"
       inkscape:connector-curvature="0"
       id="path57451"
       d="m 50.98706,647.39142 c 0.302693,-0.27081 0.560449,-0.55592 0.572748,-0.63351 0.02173,-0.141 0.677308,-1.08793 1.25794,-1.81851 0.169661,-0.21333 0.681621,-0.90276 1.137892,-1.53204 0.456252,-0.62935 1.306932,-1.71051 1.89028,-2.4026 0.583349,-0.69208 1.153885,-1.41663 1.267988,-1.61005 0.114083,-0.19349 0.351124,-0.51514 0.526743,-0.71492 0.175541,-0.19968 0.887784,-1.10084 1.582525,-2.00249 0.694937,-0.90168 1.397075,-1.79216 1.560406,-1.97893 0.163231,-0.18676 0.837022,-1.06982 1.497152,-1.96232 0.660227,-0.89252 1.452947,-1.92448 1.761622,-2.29329 1.070298,-1.27842 2.325938,-2.87883 2.515676,-3.2065 0.104749,-0.18106 0.29134,-0.42624 0.414672,-0.54475 0.24172,-0.23263 1.041968,-1.29288 1.410335,-1.86885 0.125144,-0.19548 0.419156,-0.52895 0.653505,-0.74093 0.424775,-0.38427 0.427651,-0.38395 0.996498,0.1194 0.995893,0.88133 1.354722,1.16665 1.495366,1.1893 0.07564,0.0123 0.490471,0.33343 0.922746,0.71399 0.432274,0.38055 1.118295,0.90228 1.524513,1.15947 0.406118,0.2572 0.755123,0.53078 0.775526,0.60805 0.02037,0.0772 0.474414,0.44261 1.009044,0.81206 0.534513,0.3694 1.413931,1.06421 1.954022,1.54404 0.540185,0.4798 1.220858,0.99929 1.512517,1.15439 0.680816,0.36216 0.780202,0.76639 0.312804,1.27087 -0.204955,0.22107 -0.631813,0.75571 -0.948645,1.18803 -0.316733,0.4323 -0.783259,0.98866 -1.036622,1.23635 l -0.460785,0.45041 -0.420023,-0.32436 c -0.230987,-0.17837 -0.539222,-0.40486 -0.68485,-0.50319 -0.14574,-0.0984 -0.439963,-0.33408 -0.653893,-0.52383 -0.21391,-0.18968 -0.63812,-0.51422 -0.942806,-0.72101 -0.304511,-0.20691 -0.947678,-0.70304 -1.429128,-1.10258 -1.532067,-1.27151 -2.60824,-1.92298 -3.003977,-1.81849 -0.202849,0.0536 -0.501564,0.28734 -0.663872,0.51951 -0.362146,0.51806 -2.04711,2.6559 -2.343426,2.9732 -0.500842,0.53647 -1.52432,1.98713 -1.556946,2.2067 -0.05285,0.35725 0.61522,1.0182 2.197275,2.1735 2.821832,2.06093 3.94613,3.01101 4.056149,3.42769 0.03305,0.12518 -0.07093,0.31071 -0.231011,0.41226 -0.16013,0.10175 -0.4815,0.48555 -0.714148,0.85321 -0.232651,0.36766 -0.702658,1.00093 -1.044539,1.40732 -0.734219,0.87278 -0.635969,0.89509 -2.524684,-0.5728 -0.752531,-0.58481 -1.841622,-1.42584 -2.420169,-1.86878 -0.578581,-0.44306 -1.068257,-0.8671 -1.088146,-0.94242 -0.01989,-0.0753 -0.307046,-0.28702 -0.638155,-0.47049 -0.554712,-0.30723 -0.636341,-0.30732 -1.038993,-6.5e-4 -0.240338,0.18303 -0.497355,0.46271 -0.570992,0.62137 -0.07372,0.15875 -0.439972,0.63617 -0.813815,1.06096 -0.373937,0.42483 -0.845556,1.03515 -1.048065,1.35636 -0.341586,0.54187 -0.638212,0.91753 -1.45024,1.8368 -0.17439,0.19738 -0.510925,0.65849 -0.747885,1.02471 -0.382336,0.59083 -0.399725,0.70947 -0.153834,1.05279 0.152395,0.21288 0.567241,0.6042 0.92166,0.86968 1.470381,1.32921 2.940919,2.20783 4.438567,3.43532 0.206857,0.23269 0.612924,0.55042 0.902571,0.70612 0.289629,0.15564 0.548331,0.36533 0.574907,0.46598 0.05996,0.2271 -2.482391,3.36194 -2.781319,3.42961 -2.791313,-2.44537 -6.272692,-4.43862 -8.932391,-6.70974 -0.471108,-0.41482 -1.034423,-0.84629 -1.251842,-0.95877 -0.655966,-0.33934 -0.672982,-0.89147 -0.04468,-1.45364 z"
       style="display:inline;fill:#fb970c;fill-opacity:1"
       inkscape:transform-center-x="4.2675031"
       inkscape:transform-center-y="16.360231" />
  </g>
  <g
     transform="translate(77.02353,-279.91101)"
     id="g6650"
     inkscape:groupmode="layer"
     inkscape:label="stars"
     style="display:inline"
     sodipodi:insensitive="true">
    <path
       transform="matrix(0.14565564,0.17328632,-0.17328632,0.14565564,305.62727,353.22452)"
       style="fill:#fb970d;fill-opacity:1;stroke:none;stroke-width:0.30000001;stroke-miterlimit:4;stroke-dasharray:none;stroke-opacity:1"
       inkscape:transform-center-x="-6.0174285"
       inkscape:transform-center-y="19.151885"
       d="M 175.35148,188.90666 123.02686,150.5387 70.533778,188.67585 90.854684,127.05583 38.362846,88.916967 l 64.883624,0.284697 20.05134,-61.708261 19.77938,61.795971 64.88425,0.0011 -52.65929,37.907316 z"
       id="path6702"
       inkscape:connector-curvature="0" />
    <path
       transform="matrix(0.20526812,0.09543958,-0.09543958,0.20526812,230.01165,309.90829)"
       style="fill:#fb970d;fill-opacity:1;stroke:none;stroke-width:0.30000001;stroke-miterlimit:4;stroke-dasharray:none;stroke-opacity:1"
       inkscape:transform-center-x="-18.840177"
       inkscape:transform-center-y="-8.9986288"
       d="M 175.35148,188.90666 123.02686,150.5387 70.533778,188.67585 90.854684,127.05583 38.362846,88.916967 l 64.883624,0.284697 20.05134,-61.708261 19.77938,61.795971 64.88425,0.0011 -52.65929,37.907316 z"
       id="path6717"
       inkscape:connector-curvature="0" />
    <path
       transform="matrix(0.07125955,0.21486226,-0.21486226,0.07125955,187.48167,294.25335)"
       style="fill:#fb970d;fill-opacity:1;stroke:none;stroke-width:0.30000001;stroke-miterlimit:4;stroke-dasharray:none;stroke-opacity:1"
       inkscape:transform-center-x="-0.052644772"
       inkscape:transform-center-y="18.279676"
       d="M 175.35148,188.90666 123.02686,150.5387 70.533778,188.67585 90.854684,127.05583 38.362846,88.916967 l 64.883624,0.284697 20.05134,-61.708261 19.77938,61.795971 64.88425,0.0011 -52.65929,37.907316 z"
       id="path6719"
       inkscape:connector-curvature="0" />
    <path
       transform="matrix(-0.20526812,0.09543958,0.09543958,0.20526812,113.04848,309.90829)"
       style="fill:#fb970d;fill-opacity:1;stroke:none;stroke-width:0.30000001;stroke-miterlimit:4;stroke-dasharray:none;stroke-opacity:1"
       inkscape:transform-center-x="18.840172"
       inkscape:transform-center-y="-8.9986288"
       d="M 175.35148,188.90666 123.02686,150.5387 70.533778,188.67585 90.854684,127.05583 38.362846,88.916967 l 64.883624,0.284697 20.05134,-61.708261 19.77938,61.795971 64.88425,0.0011 -52.65929,37.907316 z"
       id="path6727"
       inkscape:connector-curvature="0" />
    <path
       transform="matrix(-0.14565564,0.17328632,0.17328632,0.14565564,37.404417,353.22434)"
       style="fill:#fb970d;fill-opacity:1;stroke:none;stroke-width:0.30000001;stroke-miterlimit:4;stroke-dasharray:none;stroke-opacity:1"
       inkscape:transform-center-x="6.0174245"
       inkscape:transform-center-y="19.151885"
       d="M 175.35148,188.90666 123.02686,150.5387 70.533778,188.67585 90.854684,127.05583 38.362846,88.916967 l 64.883624,0.284697 20.05134,-61.708261 19.77938,61.795971 64.88425,0.0011 -52.65929,37.907316 z"
       id="path6757"
       inkscape:connector-curvature="0" />
  </g>
</svg>
