<?xml version="1.0" encoding="UTF-8" standalone="no"?>
<!-- Created with Inkscape (http://www.inkscape.org/) -->

<svg
   xmlns:dc="http://purl.org/dc/elements/1.1/"
   xmlns:cc="http://creativecommons.org/ns#"
   xmlns:rdf="http://www.w3.org/1999/02/22-rdf-syntax-ns#"
   xmlns:svg="http://www.w3.org/2000/svg"
   xmlns="http://www.w3.org/2000/svg"
   xmlns:sodipodi="http://sodipodi.sourceforge.net/DTD/sodipodi-0.dtd"
   xmlns:inkscape="http://www.inkscape.org/namespaces/inkscape"
   width="132.29169mm"
   height="69.58535mm"
   viewBox="0 0 468.75005 246.56226"
   id="svg2"
   version="1.1"
   inkscape:version="0.92.2 2405546, 2018-03-11"
   sodipodi:docname="aliemu-placeholder.svg">
  <defs
     id="defs4" />
  <sodipodi:namedview
     id="base"
     pagecolor="#ffffff"
     bordercolor="#666666"
     borderopacity="1.0"
     inkscape:pageopacity="0.0"
     inkscape:pageshadow="2"
     inkscape:zoom="2"
     inkscape:cx="445.57848"
     inkscape:cy="-93.537835"
     inkscape:document-units="px"
     inkscape:current-layer="layer2"
     showgrid="false"
     fit-margin-top="0"
     fit-margin-left="0"
     fit-margin-right="0"
     fit-margin-bottom="0"
     showguides="true"
     inkscape:guide-bbox="true"
     inkscape:window-width="3840"
     inkscape:window-height="2076"
     inkscape:window-x="2160"
     inkscape:window-y="84"
     inkscape:window-maximized="0" />
  <metadata
     id="metadata7">
    <rdf:RDF>
      <cc:Work
         rdf:about="">
        <dc:format>image/svg+xml</dc:format>
        <dc:type
           rdf:resource="http://purl.org/dc/dcmitype/StillImage" />
        <dc:title></dc:title>
      </cc:Work>
    </rdf:RDF>
  </metadata>
  <g
     inkscape:groupmode="layer"
     id="layer2"
     inkscape:label="vector"
     transform="translate(-701.07424,15.416476)">
    <path
       style="opacity:1;fill:#345995;fill-opacity:1;stroke:none;stroke-width:0.18749981;stroke-miterlimit:4;stroke-dasharray:none;stroke-opacity:1"
       d="M 701.07424,-15.416476 V 231.14578 H 1169.8243 V -15.416476 Z m 178.19901,61.640549 h 20.13912 20.13673 l 0.0553,36.317377 c 0.0588,38.588 0.0175,36.41373 0.75607,39.17305 1.2356,4.62228 4.1626,8.26078 8.00123,9.94438 0.49317,0.21625 0.95352,0.43957 1.02332,0.496 0.0697,0.0565 -0.8608,1.0324 -2.06592,2.16947 l -2.19113,2.06833 -1.1967,-0.6405 c -1.70107,-0.91095 -2.855,-1.20298 -4.72657,-1.19668 -1.747,0.005 -3.00405,0.3345 -4.61823,1.20873 -1.22565,0.66382 -2.91185,2.37755 -3.51542,3.57322 -0.44578,0.88303 -0.6323,1.08675 -0.82348,0.89573 -0.1185,-0.1185 -5.9353,-1.04753 -9.19795,-1.4688 -4.24347,-0.54795 -10.66597,-1.05473 -15.1573,-1.19668 l -3.74177,-0.118 -0.46953,-1.46637 c -0.66455,-2.07573 -1.51545,-6.0222 -1.94312,-9.01973 l -0.3636,-2.55712 -0.0505,-39.091205 z m 72.2447,0 h 20.0548 20.0549 v 24.661052 24.661051 l -2.0852,0.703075 c -1.1471,0.386475 -3.4389,1.2127 -5.0926,1.834775 -1.6537,0.622125 -3.0452,1.12295 -3.0917,1.112425 -0.046,-0.01 -0.4891,-0.42255 -0.9823,-0.914975 v 0 c -2.5679,-2.564025 -6.6772,-3.255675 -10.291,-1.73125 l -0.59,0.248 -4.4641,-4.466551 c -4.4717,-4.4754 -7.5481,-7.312275 -11.4348,-10.5463 l -2.0755,-1.728825 V 63.139099 Z m 0,40.405877 0.5297,0.44065 c 2.0562,1.703375 6.9898,6.34375 10.0936,9.496476 l 3.6936,3.753824 -0.3876,0.79218 c -0.6645,1.3571 -0.9275,2.72482 -0.8572,4.47375 l 0.065,1.57955 -2.533,1.3869 c -2.5549,1.40005 -9.0938,5.36842 -10.0744,6.1135 l -0.5297,0.4021 v -14.21825 z m 40.0302,14.748 0.046,9.0679 c 0.044,8.50393 -0.1163,14.4853 -0.419,15.57628 -0.1273,0.45882 -0.1615,0.42282 -0.9993,-1.05945 -1.5002,-2.65423 -3.8131,-6.2989 -6.412,-10.09605 l -2.5114,-3.66713 0.3588,-0.4888 c 1.0148,-1.3765 1.6859,-3.29942 1.7433,-5.00347 l 0.041,-1.25208 1.305,-0.5249 c 0.7174,-0.28885 2.552,-0.98132 4.0765,-1.5386 z m -24.1482,10.58725 0.6598,0.5297 c 1.721,1.38568 3.648,2.06075 5.8775,2.0587 0.8376,0 1.8182,-0.10725 2.2826,-0.248 0.6402,-0.194 0.8522,-0.20275 0.9969,-0.0457 0.1012,0.10975 1.2877,1.82025 2.6366,3.79958 3.4907,5.1222 6.0415,9.35662 8.8367,14.67575 l 0.8644,1.64455 -0.6958,2.10685 c -0.896,2.7153 -2.5309,6.3152 -3.9922,8.7886 l -1.1558,1.95757 -3.0122,0.118 c -7.8137,0.30868 -16.0579,1.55108 -23.0935,3.47933 -1.1237,0.30805 -2.0895,0.557 -2.1478,0.5538 -0.058,-0.005 -0.5329,-0.40633 -1.0546,-0.89813 -2.908,-2.74077 -7.7291,-3.24042 -11.03515,-1.14372 -1.67838,1.06455 -1.3759,1.06632 -3.78993,-0.0337 -2.73687,-1.24703 -4.89205,-2.11653 -8.19627,-3.30838 l -2.60768,-0.94145 -0.0385,-1.1943 c -0.02,-0.65762 -0.1235,-1.5616 -0.22875,-2.00812 l -0.19025,-0.81145 2.10205,-2.02258 c 1.1573,-1.11217 3.08335,-2.90525 4.27873,-3.98255 l 2.17427,-1.95757 1.49525,-0.219 c 3.52008,-0.51768 5.94393,-1.67 8.18903,-3.89105 1.628,-1.6105 2.5796,-3.05363 3.4288,-5.1961 l 0.5273,-1.32673 2.6631,-1.8444 c 3.2597,-2.2562 8.5155,-5.51315 11.7887,-7.30537 z m -83.23638,30.57468 2.90145,0.11075 c 3.93635,0.151 10.07093,0.66865 13.82578,1.1654 2.61755,0.34627 8.93675,1.35522 8.98362,1.43507 0.008,0.0125 0.144,0.50305 0.3034,1.08593 0.3547,1.2977 0.9312,2.47575 1.63973,3.3493 l 0.53455,0.65975 -1.38933,1.70475 c -1.64892,2.0225 -5.85137,7.60835 -6.89122,9.1594 -0.4035,0.60192 -0.8084,1.0912 -0.89813,1.08832 -0.0897,-0.005 -0.7119,-0.31597 -1.3845,-0.69825 -4.94682,-2.8119 -10.08437,-7.41977 -13.48627,-12.09697 -1.24285,-1.70878 -3.33923,-5.17453 -3.92718,-6.49153 z m 42.73425,7.1898 1.91663,0.68622 c 2.4196,0.8659 7.11877,2.75083 8.92825,3.58285 1.28805,0.59228 1.3722,0.66233 1.24005,1.0113 -0.078,0.20625 -0.1935,0.90138 -0.25765,1.54343 l -0.118,1.1678 -3.08445,1.56027 c -4.87908,2.47013 -9.23973,5.00648 -13.38995,7.78693 -1.0511,0.70415 -1.9671,1.27477 -2.03703,1.26892 -0.07,-0.005 -1.1918,-0.25657 -2.49212,-0.5562 -3.6621,-0.8438 -8.68373,-2.4798 -9.14255,-2.9785 -0.1675,-0.182 4.15877,-6.0309 7.39927,-10.00455 l 1.27135,-1.56027 1.6638,0.0747 c 2.80858,0.12475 4.92325,-0.64595 6.98273,-2.5475 z m 51.75153,3.7803 -0.561,0.5899 c -1.2427,1.30662 -4.5959,4.06675 -6.595,5.42727 -1.9138,1.30233 -5.9569,3.6073 -7.3391,4.1848 l -0.5394,0.22625 -1.9503,-1.51452 v 0.002 c -1.0722,-0.83203 -2.4728,-1.87138 -3.1133,-2.30913 l -1.1654,-0.79697 0.1035,-1.06908 c 0.057,-0.58895 0.1487,-1.11922 0.2047,-1.17745 0.1693,-0.176 5.1514,-1.39122 7.8471,-1.91422 4.0793,-0.79145 10.4733,-1.63458 12.4654,-1.64455 z m -37.95705,9.9034 0.88127,0.84275 c 1.68648,1.617 3.59688,2.43425 6.03158,2.5764 2.4435,0.14275 4.6571,-0.57733 6.5518,-2.12853 0.5096,-0.41725 0.9708,-0.75847 1.0233,-0.75847 0.1512,0 2.8605,2.007 2.8605,2.11887 0,0.30778 -5.7586,1.78798 -9.1979,2.3645 -4.5223,0.7581 -6.70023,0.92458 -13.0577,1.00168 l -6.03405,0.0747 0.37322,-0.32505 c 0.5502,-0.47745 5.4651,-3.22788 8.19628,-4.58693 z"
       id="rect823"
       inkscape:connector-curvature="0" />
    <g
       id="g4303"
       transform="matrix(0.37228055,0,0,0.37228055,400.58165,87.277852)">
      <g
         inkscape:label="Layer 1"
         id="layer1-6"
         transform="matrix(0.31088216,0,0,0.31088216,1072.0229,8.7285289)"
         style="display:inline" />
    </g>
  </g>
</svg>
