<?xml version="1.0" encoding="UTF-8" standalone="no"?>
<!-- Created with Inkscape (http://www.inkscape.org/) -->

<svg
   xmlns:dc="http://purl.org/dc/elements/1.1/"
   xmlns:cc="http://creativecommons.org/ns#"
   xmlns:rdf="http://www.w3.org/1999/02/22-rdf-syntax-ns#"
   xmlns:svg="http://www.w3.org/2000/svg"
   xmlns="http://www.w3.org/2000/svg"
   xmlns:sodipodi="http://sodipodi.sourceforge.net/DTD/sodipodi-0.dtd"
   xmlns:inkscape="http://www.inkscape.org/namespaces/inkscape"
   id="svg5066"
   version="1.1"
   inkscape:version="0.91 r13725"
   xml:space="preserve"
   width="509.96515"
   height="202.47591"
   viewBox="0 0 509.96515 202.4759"
   sodipodi:docname="capsules-logo-pill.svg"><metadata
     id="metadata5072"><rdf:RDF><cc:Work
         rdf:about=""><dc:format>image/svg+xml</dc:format><dc:type
           rdf:resource="http://purl.org/dc/dcmitype/StillImage" /><dc:title></dc:title></cc:Work></rdf:RDF></metadata><defs
     id="defs5070"><clipPath
       clipPathUnits="userSpaceOnUse"
       id="clipPath5082"><path
         d="m 794,913 0,1617 1105,0 0,-1617 -1105,0 z"
         id="path5084"
         inkscape:connector-curvature="0" /></clipPath><clipPath
       clipPathUnits="userSpaceOnUse"
       id="clipPath5092"><path
         d="M 807.922,2530 C 361.719,2530 0,2168.13 0,1721.73 0,1275.34 361.719,913.473 807.922,913.473 c 446.208,0 807.918,361.867 807.918,808.257 0,446.4 -361.71,808.27 -807.918,808.27 z"
         id="path5094"
         inkscape:connector-curvature="0"
         style="clip-rule:evenodd" /></clipPath><clipPath
       clipPathUnits="userSpaceOnUse"
       id="clipPath5098"><path
         d="m 0,0 4080,0 0,2530 L 0,2530 0,0 Z"
         id="path5100"
         inkscape:connector-curvature="0" /></clipPath><clipPath
       clipPathUnits="userSpaceOnUse"
       id="clipPath5112"><path
         d="M 561.801,103.398 C 536.734,74.6016 505.801,51.8008 469,35 432.199,18.1992 389.801,9.80078 341.801,9.80078 298.066,9.80078 257.668,17 220.602,31.3984 183.531,45.8008 151.398,66.1992 124.199,92.6016 97,119 75.668,150.602 60.1992,187.398 44.7344,224.199 37,264.734 37,309 c 0,45.332 7.8672,86.398 23.6016,123.199 15.7304,36.801 37.4648,68.133 65.1994,94 27.734,25.867 60.265,45.735 97.597,59.602 37.336,13.867 77.602,20.801 120.801,20.801 40,0 79.332,-7.067 118,-21.204 38.668,-14.132 70,-34.796 94,-62 l -92.801,-92.796 c -12.796,17.597 -29.597,30.664 -50.398,39.199 -20.801,8.531 -42.133,12.801 -64,12.801 -24,0 -46,-4.403 -66,-13.204 C 263,460.602 245.801,448.465 231.398,433 217,417.535 205.801,399.266 197.801,378.199 c -8,-21.066 -12,-44.133 -12,-69.199 0,-25.602 4,-49.066 12,-70.398 8,-21.336 19.066,-39.602 33.199,-54.801 14.133,-15.199 31.066,-27.067 50.801,-35.602 19.734,-8.531 41.332,-12.801 64.801,-12.801 27.199,0 50.933,5.336 71.199,16 20.265,10.668 36.531,24.536 48.801,41.602 l 95.199,-89.602 z M 994.602,25 l -44,111.199 -219.204,0 L 689.801,25 541,25 l 237.602,566.398 132.796,0 L 1146.6,25 994.602,25 Z m -152,415.199 -72,-194.398 142.398,0 -70.398,194.398 z M 1623.4,417 c 0,-33.066 -6.13,-60.934 -18.4,-83.602 -12.27,-22.664 -28.8,-40.933 -49.6,-54.796 -20.8,-13.868 -44.8,-24 -72,-30.403 -27.2,-6.398 -55.47,-9.597 -84.8,-9.597 l -68,0 0,-213.602 -136.8,0 0,566.398 208,0 c 30.93,0 59.87,-3.066 86.8,-9.199 26.94,-6.133 50.4,-16 70.4,-29.597 20,-13.602 35.73,-31.469 47.2,-53.602 11.47,-22.133 17.2,-49.465 17.2,-82 l 0,0 z m -136.8,-0.801 c 0,13.336 -2.67,24.266 -8,32.801 -5.33,8.535 -12.53,15.199 -21.6,20 -9.07,4.801 -19.33,8 -30.8,9.602 -11.47,1.597 -23.33,2.398 -35.6,2.398 l -60,0 0,-133.602 57.6,0 c 12.8,0 25.07,1.067 36.8,3.204 11.73,2.132 22.27,5.863 31.6,11.199 9.33,5.332 16.67,12.398 22,21.199 5.33,8.801 8,19.867 8,33.199 l 0,0 z m 518.4,28 c -11.73,14.934 -27.07,26.801 -46,35.602 -18.93,8.801 -37.2,13.199 -54.8,13.199 -9.07,0 -18.27,-0.801 -27.6,-2.398 -9.33,-1.602 -17.73,-4.668 -25.2,-9.204 -7.47,-4.531 -13.73,-10.398 -18.8,-17.597 -5.06,-7.199 -7.6,-16.403 -7.6,-27.602 0,-9.597 2,-17.597 6,-24 4,-6.398 9.87,-12 17.6,-16.801 7.73,-4.796 16.94,-9.199 27.6,-13.199 10.67,-4 22.67,-8.133 36,-12.398 19.2,-6.403 39.2,-13.469 60,-21.199 20.8,-7.735 39.73,-18 56.8,-30.801 17.07,-12.801 31.2,-28.668 42.4,-47.602 11.2,-18.933 16.8,-42.531 16.8,-70.801 0,-32.531 -6,-60.664 -18,-84.398 -12,-23.7344 -28.13,-43.332 -48.4,-58.8008 -20.26,-15.4648 -43.47,-26.9336 -69.6,-34.3984 -26.13,-7.4688 -53.07,-11.1992 -80.8,-11.1992 -40.53,0 -79.73,7.0664 -117.6,21.1992 -37.87,14.1328 -69.33,34.2656 -94.4,60.3984 l 89.6,91.1988 c 13.87,-17.066 32.13,-31.332 54.8,-42.796 22.67,-11.469 45.2,-17.204 67.6,-17.204 10.14,0 20,1.067 29.6,3.204 9.6,2.132 18,5.597 25.2,10.398 7.2,4.801 12.93,11.199 17.2,19.199 4.27,8 6.4,17.602 6.4,28.801 0,10.668 -2.67,19.734 -8,27.199 -5.34,7.469 -12.93,14.266 -22.8,20.403 -9.87,6.132 -22.13,11.73 -36.8,16.796 -14.66,5.067 -31.33,10.536 -50,16.403 -18.13,5.867 -35.87,12.801 -53.2,20.801 -17.33,8 -32.8,18.265 -46.4,30.796 -13.6,12.536 -24.53,27.735 -32.8,45.602 -8.26,17.867 -12.4,39.602 -12.4,65.199 0,31.469 6.4,58.403 19.2,80.801 12.8,22.398 29.6,40.801 50.4,55.199 20.8,14.403 44.27,24.934 70.4,31.602 26.14,6.664 52.53,10 79.2,10 32,0 64.67,-5.867 98,-17.602 33.33,-11.734 62.53,-29.066 87.6,-52 l -87.2,-92 z m 653.6,-205.597 c 0,-34.137 -5.73,-65.204 -17.2,-93.204 -11.47,-28 -27.86,-51.9996 -49.2,-71.9996 -21.33,-20 -47.07,-35.5976 -77.2,-46.7968 -30.13,-11.2032 -63.6,-16.80082 -100.4,-16.80082 -37.33,0 -70.93,5.59762 -100.8,16.80082 -29.87,11.1992 -55.2,26.7968 -76,46.7968 -20.8,20 -36.8,43.9996 -48,71.9996 -11.2,28 -16.8,59.067 -16.8,93.204 l 0,352.796 136,0 0,-341.597 c 0,-15.469 2,-30.133 6,-44 4,-13.867 10.13,-26.266 18.4,-37.199 8.27,-10.934 19.2,-19.602 32.8,-26 13.6,-6.403 30,-9.602 49.2,-9.602 19.2,0 35.6,3.199 49.2,9.602 13.6,6.398 24.67,15.066 33.2,26 8.53,10.933 14.66,23.332 18.4,37.199 3.73,13.867 5.6,28.531 5.6,44 l 0,341.597 136.8,0 0,-352.796 z M 2769,25 l 0,566.398 137.6,0 0,-447.199 219.2,0 0,-119.199 -356.8,0 z m 420.8,0 0,566.398 380.8,0 0,-116 -248.8,0 0,-106.398 235.2,0 0,-109.602 -235.2,0 0,-117.597 263.2,0 0,-116.801 -395.2,0 z m 784.8,419.199 c -11.73,14.934 -27.06,26.801 -46,35.602 -18.93,8.801 -37.2,13.199 -54.8,13.199 -9.07,0 -18.26,-0.801 -27.6,-2.398 -9.33,-1.602 -17.73,-4.668 -25.2,-9.204 -7.46,-4.531 -13.73,-10.398 -18.8,-17.597 -5.07,-7.199 -7.6,-16.403 -7.6,-27.602 0,-9.597 2,-17.597 6,-24 4,-6.398 9.86,-12 17.6,-16.801 7.73,-4.796 16.93,-9.199 27.6,-13.199 10.67,-4 22.66,-8.133 36,-12.398 19.2,-6.403 39.2,-13.469 60,-21.199 20.8,-7.735 39.74,-18 56.8,-30.801 17.07,-12.801 31.2,-28.668 42.4,-47.602 11.2,-18.933 16.8,-42.531 16.8,-70.801 0,-32.531 -6,-60.664 -18,-84.398 -12,-23.7344 -28.13,-43.332 -48.4,-58.8008 -20.27,-15.4648 -43.47,-26.9336 -69.6,-34.3984 -26.13,-7.4688 -53.07,-11.1992 -80.8,-11.1992 -40.54,0 -79.73,7.0664 -117.6,21.1992 -37.86,14.1328 -69.33,34.2656 -94.4,60.3984 l 89.6,91.1988 c 13.87,-17.066 32.13,-31.332 54.8,-42.796 22.67,-11.469 45.2,-17.204 67.6,-17.204 10.13,0 20,1.067 29.6,3.204 9.6,2.132 18,5.597 25.2,10.398 7.2,4.801 12.93,11.199 17.2,19.199 4.27,8 6.4,17.602 6.4,28.801 0,10.668 -2.67,19.734 -8,27.199 -5.33,7.469 -12.93,14.266 -22.8,20.403 -9.87,6.132 -22.13,11.73 -36.8,16.796 -14.67,5.067 -31.34,10.536 -50,16.403 -18.13,5.867 -35.87,12.801 -53.2,20.801 -17.33,8 -32.8,18.265 -46.4,30.796 -13.6,12.536 -24.53,27.735 -32.8,45.602 -8.27,17.867 -12.4,39.602 -12.4,65.199 0,31.469 6.4,58.403 19.2,80.801 12.8,22.398 29.6,40.801 50.4,55.199 20.8,14.403 44.27,24.934 70.4,31.602 26.13,6.664 52.54,10 79.2,10 32,0 64.67,-5.867 98,-17.602 33.34,-11.734 62.53,-29.066 87.6,-52 l -87.2,-92 z"
         id="path5114"
         inkscape:connector-curvature="0"
         style="clip-rule:evenodd" /></clipPath><clipPath
       clipPathUnits="userSpaceOnUse"
       id="clipPath5118"><path
         d="m 0,0 4080,0 0,2530 L 0,2530 0,0 Z"
         id="path5120"
         inkscape:connector-curvature="0" /></clipPath></defs><sodipodi:namedview
     pagecolor="#ffffff"
     bordercolor="#666666"
     borderopacity="1"
     objecttolerance="10"
     gridtolerance="10"
     guidetolerance="10"
     inkscape:pageopacity="0"
     inkscape:pageshadow="2"
     inkscape:window-width="3840"
     inkscape:window-height="2067"
     id="namedview5068"
     showgrid="false"
     inkscape:zoom="4"
     inkscape:cx="206.73724"
     inkscape:cy="39.894373"
     inkscape:window-x="2160"
     inkscape:window-y="93"
     inkscape:window-maximized="0"
     inkscape:current-layer="layer12"
     fit-margin-top="0"
     fit-margin-left="0"
     fit-margin-right="0"
     fit-margin-bottom="0" /><g
     inkscape:groupmode="layer"
     id="layer12"
     inkscape:label="new"
     transform="translate(0.07384436,0.19920808)"><path
       style="display:inline;fill:#4a7ce2;fill-opacity:1"
       d="m 272.62688,192.73956 0,-9.53716 3.60795,-5.15035 c 4.75284,-6.78468 12.40447,-16.83919 17.59788,-23.12424 l 4.17885,-5.05723 4.09877,0.0144 c 6.03834,0.0213 10.67311,-1.69391 15.25627,-5.64556 l 2.44803,-2.11078 4.01028,1.38591 c 11.60831,4.01193 24.93435,9.69368 24.6847,10.5247 -0.0874,0.29099 -0.27503,1.59469 -0.41658,2.89715 l -0.25769,2.36811 -7.25132,4.66376 c -8.68188,5.58381 -16.48212,11.30209 -24.51718,17.97323 -7.24962,6.01903 -17.10473,14.99853 -19.82865,18.06688 l -2.01369,2.26832 -10.79882,0 -10.79881,0 0,-9.53715 z m 45.55689,7.12178 c 6.8372,-6.43056 19.57,-16.23072 29.30635,-22.55641 l 5.68316,-3.69235 1.48129,1.43856 c 1.93657,1.88082 5.52346,4.00989 8.38907,4.97956 3.17114,1.07305 10.14749,1.07588 13.33334,0.005 2.75025,-0.92401 5.44193,-2.4105 7.72678,-4.26684 l 1.68506,-1.3691 6.27703,4.68421 c 7.84565,5.8548 14.58231,11.52617 21.07812,17.74501 l 5.03706,4.82229 -2.46458,0.26728 c -1.35551,0.147 -24.43272,0.28763 -51.28268,0.3125 l -48.8181,0.0452 2.56809,-2.41537 z m 108.08639,-7.55663 c -9.79973,-9.89735 -22.28403,-20.45012 -32.07368,-27.11133 l -2.7556,-1.87495 0.0225,-3.42316 0.0225,-3.42316 1.2996,-0.4129 c 0.71488,-0.227 3.17469,-0.87743 5.46635,-1.44524 21.70026,-5.377 44.05918,-5.36884 66.14054,0.0241 l 6.14054,1.49972 1.56774,3.14219 c 1.88884,3.7856 5.72731,7.86783 8.91874,9.48506 l 2.21897,1.12448 -4.39297,4.21443 c -4.97474,4.77269 -10.91727,9.41794 -16.4268,12.84088 -7.51953,4.67171 -18.35922,9.49224 -25.50744,11.34345 -1.425,0.36901 -2.83116,0.7602 -3.125,0.86931 -0.29853,0.1108 -3.61596,-2.91407 -7.51595,-6.8529 z m -153.63008,-47.2155 c -0.0103,-11.32297 0.10033,-14.47482 0.50763,-14.4592 0.28646,0.011 2.09804,0.33918 4.02575,0.7292 l 3.50491,0.70915 0.76302,2.29168 c 0.86359,2.5938 2.08622,4.99095 3.56175,6.98343 l 1.00598,1.35844 -5.75362,7.1863 c -3.16449,3.95247 -6.16956,7.74742 -6.67792,8.43324 l -0.9243,1.24699 -0.0132,-14.47917 z m 78.52846,-4.16153 C 345.01002,138.16912 335.616,134.433 329.45418,132.2916 l -5.04771,-1.75426 -0.22419,-3.40117 c -0.1233,-1.87069 -0.34153,-3.69093 -0.48498,-4.04506 -0.41633,-1.02768 14.698,-14.82492 28.31689,-25.849332 18.22475,-14.75284 38.55179,-28.4881 56.99724,-38.513854 l 6.32379,-3.437195 1.45825,1.145948 c 1.8658,1.4661 4.562,2.829836 7.25313,3.668854 2.43713,0.75978 9.79882,0.86346 11.55993,0.162689 1.3775,-0.548168 0.90393,-1.089855 7.97093,9.117358 13.19094,19.05232 25.73065,41.951992 33.26127,60.740872 l 1.22574,3.05801 -2.30565,2.49045 c -1.26825,1.36971 -2.6092,3.08739 -2.98013,3.81698 -0.37097,0.72961 -0.71511,1.37558 -0.76499,1.43552 -0.0498,0.0599 -2.44444,-0.4536 -5.32133,-1.14108 -20.36441,-4.86677 -42.63585,-5.45971 -62.8681,-1.67367 -5.53069,1.03498 -13.63312,3.00371 -17.33144,4.2113 l -2.59253,0.84645 -1.36586,-1.02425 c -7.05677,-5.29155 -18.48588,-5.33397 -25.53249,-0.0948 l -1.25007,0.92928 -4.58334,-2.05298 z m 151.25,-9.51924 c -2.73835,-1.5714 -5.67326,-2.40933 -9.60118,-2.74137 -3.19948,-0.27054 -3.20511,-0.27297 -3.81493,-1.76803 -9.0488,-22.18365 -20.84452,-43.866882 -35.04132,-64.413927 -3.32517,-4.812494 -6.19099,-8.940537 -6.3685,-9.173412 -0.17751,-0.232875 0.32752,-1.451723 1.12219,-2.708337 1.6967,-2.682963 3.01098,-6.796892 3.17236,-9.929223 l 0.11478,-2.227662 4.52585,-1.819057 c 2.48923,-1.000553 8.65195,-3.185588 13.69498,-4.855687 l 9.16912,-3.036548 3.54984,3.749996 c 13.62768,14.396049 22.68139,33.057095 25.97667,53.541665 1.29841,8.07082 1.29699,22.362452 -0.003,30.416672 -1.12504,6.97088 -3.50596,16.30544 -4.13336,16.20527 -0.1541,-0.0246 -1.21766,-0.5828 -2.3636,-1.24011 z m -225,-12.62997 -4.58333,-0.8966 -0.1056,-58.844249 -0.10561,-58.84424633 54.2159,0 54.21589,0 4.845,4.27082603 c 2.66475,2.34896 9.39956,8.7598063 14.96623,14.2463213 7.35735,7.251403 10.04454,10.152864 9.84046,10.624992 -1.9095,4.417254 -2.32465,6.221185 -2.33107,10.129455 l -0.007,4.063284 -5.2672,2.784578 c -2.89703,1.531507 -9.04369,5.077485 -13.65931,7.879923 -24.66584,14.976164 -47.93762,32.587394 -68.37604,51.744476 l -5.51807,5.17213 -2.23892,-1.2636 c -3.36487,-1.89904 -6.60406,-2.70479 -10.8916,-2.70937 -4.14381,-0.004 -6.76518,0.66906 -10.7565,2.76381 -2.9259,1.53555 -6.54195,5.05225 -8.05675,7.83543 -0.61097,1.12266 -1.22168,2.01811 -1.35715,1.99017 -0.13545,-0.028 -2.30878,-0.45421 -4.82961,-0.9475 z m 167.5,-95.093054 c -2.27382,-2.059769 -4.96396,-3.578803 -8.53231,-4.817779 -3.44833,-1.197382 -9.29059,-1.105447 -13.29959,0.20898 l -3.08192,1.010475 -10.04309,-10.008684 -10.04309,-10.00870433 9.375,0.238545 c 17.46373,0.444083 30.48884,3.50057703 44.375,10.41287433 4.41467,2.19755 13.12501,7.243405 13.12501,7.603247 0,0.07336 -2.39063,0.926033 -5.3125,1.894793 -2.92186,0.96876 -7.31682,2.578047 -9.76657,3.57617 -2.44974,0.998122 -4.51223,1.8063 -4.58332,1.796175 -0.0711,-0.01027 -1.06685,-0.867915 -2.21255,-1.90593 z"
       id="path4795"
       inkscape:connector-curvature="0" /><path
       style="display:inline;fill:#d0021b;fill-opacity:1;stroke:none;stroke-width:0.30000001;stroke-miterlimit:4;stroke-dasharray:none;stroke-opacity:1"
       d="M 237.35616,202.11959 C 189.76249,201.9662 142.15641,202.40443 94.569751,201.91495 51.168777,199.78577 11.740553,166.40457 2.5878407,123.8831 -7.096206,84.158095 10.266794,39.67552 44.556393,17.259461 64.063934,3.594437 88.289522,-1.2899501 111.76936,5.3433105e-5 153.63664,4.8257589e-4 195.50393,0.00133837 237.37122,0.0021616 c -0.005,67.3724764 -0.01,134.7449484 -0.0151,202.1174284 z"
       id="path6335"
       inkscape:connector-curvature="0" /></g></svg>