<svg id="Layer_1" xmlns="http://www.w3.org/2000/svg" viewBox="0 0 960 960">
  <circle fill="#e6e6e6" cx="478.7" cy="792.5" r="35.9"/>
  <path d="M488.4 222.2c-2.7-.1-5.3-.2-8-.2-2.6 0-5.2.1-7.9.2-130.1 5.2-227.4 145.4-170 262.3l2.7 5.4c30.5 52.5 70.4 38.5 70.4 98.3v42.3h210.6v-42.8c0-59.5 36-47.4 65.6-97.5l3.1-6.4c56.3-117-36.8-256.4-166.5-261.6z" fill="#fbb03b"/>
  <path d="M488.4 222.2c-2.7-.1-5.3-.2-8-.2-2.6 0-5.2.1-7.9.2-57.2 2.3-108 30.6-142.1 71.6 31.8-26.6 72.1-43.9 116.2-45.7 2.6-.1 5.2-.2 7.9-.2s5.3.1 8 .2c129.7 5.3 222.9 144.6 166.6 261.6l-3.1 6.4c-2.3 3.9-4.6 7.4-7 10.5 10.4-8.2 22.1-18.2 32.9-36.4l3.1-6.4c56.2-117-36.9-256.4-166.6-261.6z" fill="#ffc06c"/>
  <path d="M500.2 615.4c-3.8-33.6-7.5-67.3-6.2-101.1s8.1-67.8 24.2-97.5c4.1-7.5 8.9-14.9 15.9-19.9 11.7-8.3 28.8-8.1 40.3.6s16.3 25.1 11.5 38.6c-4.8 13.3-17.2 22.3-30.1 28.2-25.6 11.8-134.3 11.8-159.9 0-12.8-5.9-25.3-14.9-30.1-28.2-4.9-13.5 0-29.9 11.5-38.6s28.6-8.9 40.3-.6c7 5 11.8 12.4 15.9 19.9 16.1 29.7 22.9 63.7 24.2 97.5s-2.4 67.5-6.2 101.1" fill="none" stroke="#fff" stroke-width="14.936" stroke-miterlimit="10"/>
  <path d="M556.9 792.5H406.2c-12.1 0-30.9-9.4-30.9-20.9V619.9c0-8.1 6.5-14.6 14.6-14.6h183.3c8.1 0 14.6 6.5 14.6 14.6v151.7c0 11.5-18.9 20.9-30.9 20.9z" fill="#ccc"/>
  <path fill="#e6e6e6" d="M588.2 630.5l-225.6 27.2c-9.6 1.2-18.3-5.7-19.5-15.3l-.4-3.4c-1.2-9.6 5.7-18.3 15.3-19.5l225.6-27.2c9.6-1.2 18.3 5.7 19.5 15.3l.4 3.4c1.2 9.6-5.7 18.3-15.3 19.5zM595.9 693.9l-225.6 27.2c-9.6 1.2-18.3-5.7-19.5-15.3l-.4-3.4c-1.2-9.6 5.7-18.3 15.3-19.5l225.6-27.2c9.6-1.2 18.3 5.7 19.5 15.3l.4 3.4c1.1 9.6-5.7 18.4-15.3 19.5zM603.5 757.4l-225.6 27.2c-9.6 1.2-18.3-5.7-19.5-15.3l-.4-3.4c-1.2-9.6 5.7-18.3 15.3-19.5l225.6-27.2c9.6-1.2 18.3 5.7 19.5 15.3l.4 3.4c1.2 9.6-5.7 18.3-15.3 19.5z"/>
  <path fill="#b3b3b3" d="M375.3 720.5v12.1L587.8 707v-12.1zM586.5 630.7l-211.2 25.5v12.1l211.2-25.5 1.2-.3v-12.1c-.4.1-.7.2-1.2.3zM382.8 784c6.6 5.1 16.2 8.5 23.4 8.5h6.5l175.1-21.1v-12.1l-205 24.7z"/>
  <path style="stroke:#fbb03b;stroke-width:24.893;stroke-miterlimit:10" d="M242.2 605.2l55.8-47.6M242.2 605.2l55.8-47.6"/>
  <path fill="none" d="M275 466.8l.3.9c.2.6.5 1.5.9 2.6.8 2.2 1.8 5.4 3.3 9.2.4.9.7 1.9 1.1 2.9.2.5.4 1 .6 1.6.2.5.5 1 .7 1.6.9 2.1 1.9 4.4 2.9 6.7 1.1 2.3 2.3 4.6 3.4 7 .5 1.2 1.2 2.4 1.9 3.5.6 1.2 1.3 2.4 1.9 3.6 5.2 9.4 11.3 18.4 16.1 24.9 2.4 3.2 4.6 5.9 6.1 7.7s2.4 2.8 2.4 2.8l-85 72.6s-1.3-1.5-3.6-4.3-5.5-6.8-9.2-11.7c-1.8-2.5-3.7-5.2-5.8-8.1-1-1.4-2.1-2.9-3.1-4.4s-2.1-3.1-3.1-4.7-2.1-3.2-3.2-4.9c-1.1-1.6-2.1-3.4-3.1-5.1-1-1.7-2.1-3.5-3.1-5.2l-1.6-2.6-1.5-2.7c-1-1.8-2-3.6-2.9-5.4-1-1.8-2-3.6-2.8-5.4-1.8-3.6-3.5-7.2-5.2-10.7-1.5-3.5-3-6.9-4.4-10.2-.3-.8-.7-1.6-1-2.4l-.9-2.4c-.6-1.5-1.2-3-1.7-4.5-2.3-5.7-3.9-10.6-5-14-.6-1.7-1-3-1.3-4-.3-.9-.5-1.4-.5-1.4L275 466.8z"/>
  <path style="stroke:#fbb03b;stroke-width:24.893;stroke-miterlimit:10" d="M177.9 482.7l70.8-18.8M177.9 482.7l70.8-18.8"/>
  <path fill="none" d="M267.3 371.9s-.2 1.3-.4 3.7c-.1 1.2-.3 2.6-.5 4.2-.1.8-.2 1.7-.3 2.6-.1.9-.1 1.9-.2 2.9-.7 8.1-.9 19-.3 29.7.1 1.3.2 2.7.3 4 .1 1.3.1 2.7.3 4 .3 2.6.6 5.2.9 7.7.8 5 1.4 9.7 2.3 13.6.4 2 .7 3.8 1.1 5.4s.7 3 1 4.1c.6 2.3.9 3.6.9 3.6l-108.1 28.7s-.5-2-1.4-5.5c-.4-1.7-.9-3.9-1.5-6.3s-1.1-5.2-1.7-8.2c-1.3-6-2.3-13.1-3.5-20.7-.4-3.8-.9-7.8-1.3-11.8-.3-2-.3-4-.5-6.1-.1-2-.3-4.1-.4-6.1-.9-16.4-.6-32.7.5-45 .1-1.5.2-3 .3-4.4.2-1.4.3-2.7.4-3.9.3-2.5.5-4.6.8-6.4.4-3.6.7-5.6.7-5.6l110.6 15.8z"/>
  <path style="stroke:#fbb03b;stroke-width:24.893;stroke-miterlimit:10" d="M172.9 344.5l72 13.5M172.9 344.5l72 13.5"/>
  <path fill="none" d="M301.2 283.2s-.2.3-.5.8-.8 1.3-1.5 2.3c-.6 1-1.4 2.2-2.3 3.6-.4.7-.9 1.4-1.4 2.2-.5.8-.9 1.6-1.4 2.5-1 1.8-2.1 3.7-3.2 5.7-.6 1-1.1 2.1-1.6 3.2s-1.1 2.2-1.7 3.3c-.6 1.1-1.2 2.3-1.7 3.4-.6 1.2-1.1 2.4-1.6 3.6s-1.1 2.4-1.6 3.7c-.5 1.2-1.1 2.4-1.6 3.7-1 2.5-1.9 5-2.9 7.5-.5 1.2-.9 2.5-1.3 3.7s-.8 2.5-1.2 3.7c-.4 1.2-.8 2.4-1.2 3.5-.4 1.2-.6 2.3-1 3.4-.6 2.2-1.2 4.3-1.7 6.3-.3 1-.5 1.9-.7 2.8s-.4 1.8-.6 2.6c-.4 1.6-.7 3-.9 4.1-.3 1.2-.5 2-.6 2.7-.1.6-.2 1-.2 1L159 341.9l.3-1.5c.1-1 .5-2.3.8-4.1.4-1.8.9-3.9 1.4-6.3.3-1.2.6-2.5.9-3.9.3-1.4.6-2.8 1-4.3.8-3 1.7-6.2 2.6-9.6.5-1.7.9-3.5 1.5-5.2l1.8-5.4c.6-1.8 1.2-3.7 1.8-5.6s1.2-3.8 2-5.7c1.5-3.8 2.9-7.6 4.4-11.4.7-1.9 1.6-3.8 2.4-5.7.8-1.9 1.7-3.7 2.5-5.6.8-1.8 1.6-3.7 2.5-5.5s1.8-3.5 2.6-5.2c.9-1.7 1.7-3.4 2.5-5.1.8-1.6 1.6-3.3 2.5-4.8 1.7-3.1 3.4-6 4.9-8.7.8-1.3 1.5-2.6 2.2-3.8s1.5-2.3 2.1-3.4c1.3-2.1 2.5-4 3.5-5.5s1.7-2.7 2.2-3.5.8-1.2.8-1.2l93 62.3z"/>
  <path style="stroke:#fbb03b;stroke-width:24.893;stroke-miterlimit:10" d="M228 217.5l59 43.4M228 217.5l59 43.4"/>
  <path fill="none" d="M370.2 217.7s-.3.2-.8.5-1.4.8-2.4 1.4c-2 1.3-4.8 3.1-8.2 5.3-6.6 4.7-15.3 11.1-23.3 18.4-1 .9-2 1.8-3 2.8-1 .9-1.9 1.9-2.9 2.8-1 .9-1.9 1.8-2.8 2.7-.9 1-1.8 1.9-2.6 2.8-.9.9-1.7 1.8-2.6 2.7-.8.9-1.7 1.7-2.4 2.6-1.5 1.8-2.9 3.4-4.2 5-.7.8-1.3 1.5-1.9 2.2s-1.1 1.4-1.6 2.1c-1 1.3-1.9 2.4-2.6 3.4-.7.9-1.3 1.7-1.7 2.2-.4.5-.6.8-.6.8l-90.1-66.2.9-1.2c.6-.8 1.4-1.9 2.5-3.3s2.4-3.1 4-5.1c.8-1 1.6-2 2.4-3.1.9-1.1 1.9-2.2 2.8-3.4 2-2.3 4.2-4.9 6.5-7.5 1.1-1.4 2.4-2.6 3.7-4 1.3-1.3 2.6-2.7 3.9-4.1 1.3-1.4 2.7-2.8 4-4.2 1.4-1.4 2.8-2.8 4.3-4.2s2.9-2.8 4.4-4.2c1.5-1.4 2.9-2.9 4.5-4.2 12.1-11.1 25.3-20.9 35.3-27.9 5.2-3.4 9.4-6.1 12.5-8.1 1.5-1 2.8-1.6 3.6-2.1.8-.5 1.3-.7 1.3-.7l57.1 95.8z"/>
  <g>
    <path style="stroke:#fbb03b;stroke-width:24.893;stroke-miterlimit:10" d="M332.4 126.9l34.6 64.5M332.4 126.9l34.6 64.5"/>
    <path fill="none" d="M460.6 188.4s-1.3.1-3.7.3c-2.3.2-5.7.8-9.7 1.3-2 .2-4.1.7-6.4 1.1-1.1.2-2.3.4-3.5.7-1.2.2-2.4.4-3.6.7-2.5.6-5 1.2-7.6 1.8-1.3.3-2.6.7-3.9 1.1-1.3.4-2.6.8-3.9 1.1-1.3.4-2.6.7-3.9 1.1-1.3.4-2.5.9-3.8 1.3-1.3.4-2.5.9-3.7 1.3-1.2.4-2.5.8-3.6 1.3-2.3.9-4.6 1.9-6.8 2.7-.5.2-1.1.4-1.6.6-.5.2-1 .5-1.5.7-1 .5-1.9.9-2.9 1.3-1.8.8-3.5 1.6-5 2.3-1.5.8-2.7 1.4-3.8 2-2.1 1.1-3.3 1.7-3.3 1.7l-52.9-98.5s1.8-.9 5-2.6c1.6-.8 3.5-1.8 5.7-3 2.3-1.1 4.8-2.2 7.6-3.5 1.4-.6 2.9-1.3 4.4-2 .8-.3 1.5-.7 2.3-1s1.6-.7 2.4-1c3.3-1.3 6.7-2.7 10.3-4.1 1.8-.7 3.6-1.4 5.5-2 1.9-.7 3.8-1.3 5.7-2 1.9-.7 3.8-1.3 5.8-2 2-.6 3.9-1.2 5.9-1.7 2-.6 3.9-1.2 5.9-1.7 2-.6 3.9-1.2 5.9-1.6 3.9-.9 7.8-1.9 11.5-2.8 1.9-.5 3.7-.8 5.5-1.1 1.8-.3 3.6-.7 5.3-1 3.5-.6 6.7-1.3 9.8-1.7 6.1-.8 11.2-1.6 14.7-1.9 3.6-.3 5.6-.5 5.6-.5l10.3 111.3z"/>
  </g>
  <g>
    <path style="stroke:#fbb03b;stroke-width:24.893;stroke-miterlimit:10" d="M465.8 90.2l3.3 73.2M465.8 90.2l3.3 73.2"/>
    <path fill="none" d="M554.9 201s-.3-.1-.9-.4c-.6-.2-1.4-.6-2.6-.9-2.2-.7-5.4-1.8-9.3-3-1.9-.5-4.1-1.1-6.3-1.7-1.1-.3-2.3-.6-3.4-1-1.2-.3-2.4-.5-3.6-.8-2.5-.5-5-1.1-7.6-1.7-2.6-.4-5.3-.9-7.9-1.3-10.7-1.6-21.5-2.5-29.6-2.5-2 0-3.9-.1-5.5-.1s-3.1.1-4.3.1c-2.4.1-3.7.1-3.7.1l-5-111.7s2-.1 5.6-.2c1.8 0 4-.2 6.5-.2s5.3.1 8.4.1c12.3 0 28.6 1.4 44.8 3.8 4 .7 8.1 1.4 12.1 2.1 4 .8 7.8 1.7 11.6 2.5 1.9.4 3.7.8 5.5 1.3s3.5 1 5.2 1.4c3.4.9 6.6 1.8 9.6 2.6 5.9 1.9 10.7 3.5 14.1 4.6 1.7.5 3 1.1 3.9 1.4s1.4.5 1.4.5l-39 105z"/>
  </g>
  <g>
    <path style="stroke:#fbb03b;stroke-width:24.893;stroke-miterlimit:10" d="M601.9 114.6L573.4 182M601.9 114.6L573.4 182"/>
    <path fill="none" d="M634.4 253.1s-.9-1-2.6-2.7c-.8-.9-1.9-1.8-3.1-3-1.2-1.1-2.5-2.4-4-3.8-1.4-1.4-3.2-2.8-4.9-4.3-.9-.8-1.8-1.5-2.7-2.3-.5-.4-.9-.8-1.4-1.2l-1.5-1.2c-2-1.6-4.1-3.2-6.2-4.8-2.1-1.6-4.4-3.1-6.6-4.7-8.9-6.1-18.2-11.6-25.5-15-1.8-.9-3.4-1.8-4.9-2.5s-2.8-1.2-3.9-1.7c-2.2-1-3.4-1.5-3.4-1.5l43.6-102.9s1.9.8 5.2 2.3c1.6.7 3.6 1.6 5.9 2.6 2.3 1 4.8 2.4 7.5 3.7 11.1 5.4 25.3 13.6 38.8 22.9 3.3 2.4 6.7 4.7 10 7.1 3.2 2.5 6.3 4.9 9.4 7.3.8.6 1.5 1.2 2.2 1.8l2.1 1.8c1.4 1.2 2.8 2.4 4.1 3.5 2.7 2.3 5.2 4.4 7.4 6.6 2.2 2.1 4.3 4 6.1 5.7s3.4 3.2 4.6 4.5c2.5 2.6 3.9 4 3.9 4l-80.1 77.8z"/>
  </g>
  <g>
    <path style="stroke:#fbb03b;stroke-width:24.893;stroke-miterlimit:10" d="M714.1 195.4L659.3 244M714.1 195.4L659.3 244"/>
    <path fill="none" d="M683.8 334.3s-.4-1.3-1.2-3.5c-.4-1.1-.9-2.5-1.4-4-.6-1.5-1.3-3.2-2.1-5.1-.4-.9-.8-1.9-1.2-2.9l-.6-1.5c-.2-.5-.5-1-.7-1.6-1-2.1-2-4.3-3-6.6-.5-1.2-1.1-2.3-1.7-3.4-.6-1.2-1.2-2.3-1.8-3.5l-1.8-3.6c-.7-1.2-1.4-2.3-2.1-3.5-.7-1.2-1.4-2.3-2-3.5l-1-1.7c-.4-.6-.7-1.1-1.1-1.7-1.4-2.2-2.9-4.4-4.2-6.5-1.4-2.1-2.9-4-4.2-5.9-.7-.9-1.3-1.9-2-2.7-.6-.9-1.3-1.7-2-2.5-1.3-1.6-2.4-3-3.4-4.3-.5-.6-1-1.3-1.4-1.8-.5-.5-.9-1-1.3-1.5-1.6-1.8-2.5-2.8-2.5-2.8l83.8-74s1.3 1.5 3.7 4.2c.6.7 1.2 1.4 2 2.2.7.8 1.4 1.7 2.2 2.7 1.6 2 3.3 4.2 5.2 6.6.9 1.2 2 2.4 3 3.8 1 1.3 2 2.7 3 4.2 2 2.9 4.3 5.8 6.4 9 2.1 3.2 4.3 6.5 6.5 9.9.5.8 1.1 1.7 1.6 2.6.5.9 1 1.8 1.5 2.6 1 1.8 2.1 3.5 3.1 5.3s2.1 3.5 3.1 5.3 1.9 3.6 2.8 5.4c.9 1.8 1.9 3.6 2.8 5.3.9 1.8 1.8 3.5 2.6 5.2 1.6 3.5 3.2 6.9 4.6 10.1.4.8.7 1.6 1.1 2.4.3.8.6 1.6 1 2.3.6 1.5 1.2 3 1.8 4.4 1.1 2.9 2.2 5.5 3.1 7.8.8 2.4 1.6 4.4 2.2 6.1 1.2 3.4 1.8 5.3 1.8 5.3l-106.2 35.4z"/>
  </g>
  <g>
    <path style="stroke:#fbb03b;stroke-width:24.893;stroke-miterlimit:10" d="M780.6 316.8l-70.5 20M780.6 316.8l-70.5 20"/>
    <path fill="none" d="M692.8 425.6s.1-.3.2-.9c.1-.3.1-.7.2-1.1.1-.4.1-.9.2-1.4.2-1 .4-2.3.6-3.7.1-.7.1-1.4.2-2.1 0-.4.1-.7.1-1.1s.1-.8.1-1.1c0-.7.1-1.4.1-2.2.1-.6.1-1.9.1-3 0-2.3.1-4.8.1-7.3.1-1.3 0-2.6-.1-3.9 0-1.3-.1-2.6-.1-3.9s-.1-2.7-.1-4-.2-2.7-.3-4c-.6-10.8-2.7-21.4-4.2-29.3-.9-3.9-1.7-7.2-2.3-9.5-.7-2.3-1.1-3.5-1.1-3.5L794 313s.6 2 1.6 5.4c.8 3.5 2 8.5 3.5 14.5 2.5 12.1 5.4 28.3 6.4 44.6.2 2 .4 4.1.5 6.1s.1 4.1.2 6.1.1 4 .2 6 .1 3.9.1 5.8c-.1 3.8-.1 7.5-.2 11.1 0 1.8 0 3.3-.2 5.5-.1 2-.3 3.9-.4 5.8-.1 1-.2 1.8-.2 2.6l-.3 2.4c-.2 1.6-.4 3.1-.5 4.5-.4 2.7-.7 5-1 6.9-.1.9-.3 1.8-.4 2.5-.1.7-.2 1.3-.3 1.8l-.3 1.5-109.9-20.5z"/>
  </g>
  <g>
    <path style="stroke:#fbb03b;stroke-width:24.893;stroke-miterlimit:10" d="M786 457.2l-71.3-16.8M786 457.2l-71.3-16.8"/>
    <path fill="none" d="M657.2 524s.7-1.4 1.9-3.7c1.2-2.4 2.8-5.8 4.8-9.9 3.8-8.3 8.7-19.5 13-30.8 4.4-11.3 8.1-22.7 10.5-31 1.1-4.1 2.1-7.6 2.7-10 .3-1.2.5-2.1.7-2.8.2-.6.2-1 .2-1l108.9 25.5s-.1.5-.3 1.4-.6 2.2-1 3.9c-.8 3.4-2.1 8.2-3.7 13.8-3.2 11.3-8 25.8-13.4 39.8-5.4 14.1-11.3 27.8-16.1 38-2.4 5.1-4.4 9.3-5.9 12.3l-2.3 4.6-100-50.1z"/>
  </g>
  <g>
    <path style="stroke:#fbb03b;stroke-width:24.893;stroke-miterlimit:10" d="M738.3 579.7L673.8 545M738.3 579.7L673.8 545"/>
    <path fill="none" d="M607.2 594.4s.2-.2.5-.4c.1 0 .1 0 .2-.1l.3-.3c.2-.2.5-.4.7-.5.1-.1.3-.2.4-.3.2-.1.4-.3.6-.5.4-.3.8-.7 1.3-1.1.4-.3 1-.9 1.5-1.4.6-.5 1.1-1.1 1.7-1.6.6-.7 1.3-1.4 2-2.1.3-.3.7-.7 1-1.1.3-.3.7-.8 1.1-1.2.7-.8 1.5-1.7 2.2-2.5.8-.8 1.5-1.9 2.3-2.8 1.6-1.9 3.2-4 4.8-6.1 6.4-8.5 12.6-18.5 17.1-26 2.2-3.9 4.1-7 5.3-9.4 1.3-2.3 2-3.6 2-3.6l98.5 52.8s-.9 1.7-2.5 4.6c-1.6 2.9-4 7.1-6.8 12.1-5.9 10-14 23.2-24 36.4-2.5 3.3-5 6.6-7.7 9.9-1.4 1.6-2.6 3.2-4 4.8s-2.8 3.2-4.2 4.7c-.7.8-1.3 1.5-2.1 2.3-.7.8-1.5 1.5-2.2 2.3-1.5 1.5-2.9 3-4.3 4.4-1.5 1.4-3 2.9-4.5 4.2-1.5 1.4-2.8 2.6-4.4 3.9-1.5 1.3-3 2.5-4.3 3.6-.7.6-1.3 1.1-2.1 1.7-.7.5-1.5 1.1-2.2 1.6-1.4 1-2.7 2-4 2.9-.6.4-1.2.9-1.8 1.2-.6.4-1.3.8-1.8 1.2-4.7 2.9-7.5 4.5-7.5 4.5l-53.1-98.1z"/>
  </g>
</svg>
