<svg xmlns="http://www.w3.org/2000/svg" viewBox="0 0 2600 5148">
  <g id="Layer_2" data-name="Layer 2">
    <g id="Layer_1-2" data-name="Layer 1">
      <path fill="#9ce2db" d="M1965.93 4812.54c0-192.83-156.32-349.14-349.14-349.14s-349.15 156.31-349.15 349.14a351.05 351.05 0 0 0 4.43 55.67h689.44a352.23 352.23 0 0 0 4.42-55.67z"/>
      <circle fill="#9ce2db" cx="998.05" cy="4612.56" r="258.14"/>
      <circle fill="#9ce2db" cx="357.79" cy="4883.91" r="199.49" transform="rotate(-45 357.791 4883.908)"/>
      <circle fill="#9ce2db" cx="568.47" cy="4608.33" r="285.87"/>
      <path fill="#9ce2db" d="M2510.77 5147.6h75.75a135.61 135.61 0 0 0-134.7-120 137 137 0 0 0-18.34 1.24c-20.79-96.83-106.87-169.42-209.9-169.42a214.09 214.09 0 0 0-81.43 16 214.74 214.74 0 0 0-198.8-133.49c-103.89 0-190.54 73.79-210.41 171.82a167.24 167.24 0 0 0-162.2 157.58 135.59 135.59 0 0 0-234.53 77.38h1250.44c0-.36-.09-.72-.13-1.08z"/>
      <path fill="#39bcb2" d="M2025 4935.52a238.07 238.07 0 0 0-175.53 76.94c-8.59-152-132.45-273.13-285.54-277.41-35-172.57-187.52-302.47-370.41-302.47-158.15 0-293.61 97.13-350 235a376.93 376.93 0 0 0-143.34-28.13c-181.39 0-332.93 127.78-369.52 298.24a240.55 240.55 0 0 0-32.29-2.17c-123.2 0-224.6 93.34-237.35 213.16H2262.3c-12.75-119.82-114.14-213.16-237.3-213.16z"/>
      <path fill="#ea5123" d="M1426.63 3201.68c-7.19 49.38 4.11 97.8 23.54 143.49a254 254 0 0 1 19.57 83.24c1.24 19.62.52 52.74-7.72 80.12a524 524 0 0 0-93.82-155.75c19.89 147.52-33.34 303.59-133.19 413.38-36.28 39.89-72.83 80.15-100.25 126.57 27.73-81.09 36.59-168.24 27.8-253.39-11-107-39.86-203.18-131.48-267.82 13.93 49.37 30.24 99.94 18.21 151.25-13.3 56.72-51.27 85.93-73.17 103.92 2.18-90.28-35.93-104.5-62.94-155-34.13-63.8-33-143.77-2.44-208.89 9.48-20.21 22.41-42.7 39.7-59l-71.08-24.8c-14 33.9-29.32 66.62-41.54 96.19-35.48 85.87-57.3 196.06 4.36 274.53 74.59 94.94 124.83 196.84 108.22 321.56 70.52-73.69 101-175.85 129.16-273.88-7 64.44-13.86 129.73-13.74 194.46.09 49.86 4.36 99.38 16 147.92 26.7 111.57 100.33 218.9 209.64 253.73-38.2-46.58-39-114.39-22.08-172.21s49-109.88 72-165.58 36.47-119.54 14.7-175.71c42.59 86.34 51.66 188.7 24.92 281.2 74.3-94.42 161.7-209.77 197.31-325.54 27.46-89.27-23-186.07-52.3-270.86-20.57-59.54-38.89-121.87-38.68-184.29z"/>
      <path fill="#ededc9" d="M1185.56 3285.78h-.1l-42.93-15-192.09-67c-17.29 16.33-30.22 38.82-39.7 59-30.53 65.12-31.69 145.09 2.44 208.89 27 50.48 65.12 64.7 62.94 155 21.9-18 59.87-47.2 73.17-103.92 12-51.31-4.28-101.88-18.21-151.25 91.62 64.64 120.45 160.84 131.48 267.82 8.79 85.15-.07 172.3-27.8 253.39 27.42-46.42 64-86.68 100.25-126.57 99.85-109.79 153.08-265.86 133.19-413.38a524 524 0 0 1 93.8 155.77c8.24-27.38 9-60.5 7.72-80.12a254 254 0 0 0-19.57-83.24c-19.43-45.69-30.73-94.11-23.54-143.49L1228.06 3271zM1181.26 917.92V2.7l-2.7-2.14-803.49 637.58 804.07 280.52 2.12-.74z"/>
      <path fill="#eda02d" d="M1982.41 638.42L1181.26 2.7v915.22l801.15-279.5z"/>
      <path fill="#6f2e38" d="M1179.2 341.24v-.03l-.07.03h.07zM1179.07 341.24h.06l-.06-.03v.03zM1179.07.94l-.51-.38.51.39V.94z"/>
      <path fill="#ea5123" d="M1178.64 0L899.42 222.69l277.51 117.61 1.07.45 1.07-.45-.43-340.3z"/>
      <path fill="#6f2e38" d="M1179.07 340.3l279.23-117.61L1178.64 0l.43 340.3z"/>
      <path fill="#39bcb2" d="M1179.2 2165.22l-804.95-280.8V690.93l804.95 280.83v1193.46z"/>
      <path fill="#6f2e38" d="M1179.07 2165.22l804.96-280.8V690.93l-804.96 280.83v1193.46z"/>
      <path fill="#39bcb2" d="M1370.93 1416.37v-315.88l177.91-62.07v315.88l-177.91 62.07zM1370.93 1913.14v-315.87l177.91-62.08v315.88l-177.91 62.07zM1668.99 1320.44v-315.88l177.92-62.07v315.88l-177.92 62.07z"/>
      <path fill="#6f2e38" d="M474.49 1919.39v1.87l2.57-1z"/>
      <path fill="#6f2e38" d="M748.12 1817.83V1498c-157.71-61-271.22-103.76-273.63-101.31v522.72l2.57.9z"/>
      <path fill="#fff" d="M477.06 1920.29l271.06 94.55v-197.01l-271.06 102.46z"/>
      <path fill="#eda02d" d="M1125.16 2198l-750.91-261.97v986.14l750.91 261.95 54.04 18.85v-986.11l-54.04-18.86z"/>
      <path fill="#ea5123" d="M1232.58 2198.19l-53.51 18.67v986.11l53.51-18.66 751.45-262.14v-986.14l-751.45 262.16z"/>
      <path fill="#ededc9" d="M979.62 2395.31v68.73l-390.12-136.1v-68.74l390.12 136.11zM979.62 2521.32v68.74l-390.12-136.1v-68.74l390.12 136.1zM979.62 2647.34v68.74L589.5 2579.97v-68.73l390.12 136.1z"/>
      <path fill="#918e88" d="M2360.55 2276.7l-316.35-211.26v834.63l304.28 564.31 12.07-1187.68zM0 2276.7l316.35-211.26v834.63L12.07 3464.38 0 2276.7z"/>
    </g>
  </g>
</svg>
